SplineFontDB: 3.2
FontName: LMRoman10-Italic
FullName: LMRoman10-Italic
FamilyName: LM Roman 10
Weight: Book
Copyright: Copyright 2003, 2008 B. Jackowski and J. M. Nowacki (on behalf of TeX users groups). This work is released under the GUST Font License --  see http://tug.org/fonts/licenses/GUST-FONT-LICENSE.txt for details.
Version: 1.106;PS 1.106;hotconv 1.0.49;makeotf.lib2.0.14853
ItalicAngle: -14.0362
UnderlinePosition: -146
UnderlineWidth: 40
Ascent: 806
Descent: 194
InvalidEm: 0
sfntRevision: 0x00011b22
LayerCount: 2
Layer: 0 1 "Back" 1
Layer: 1 1 "Fore" 0
XUID: [1021 332 -436623442 14863900]
StyleMap: 0x0001
FSType: 12
OS2Version: 3
OS2_WeightWidthSlopeOnly: 0
OS2_UseTypoMetrics: 0
CreationTime: 1201518133
ModificationTime: 1644853606
PfmFamily: 81
TTFWeight: 400
TTFWidth: 5
LineGap: 0
VLineGap: 0
Panose: 0 0 5 0 0 0 0 0 0 0
OS2TypoAscent: 806
OS2TypoAOffset: 0
OS2TypoDescent: -194
OS2TypoDOffset: 0
OS2TypoLinegap: 200
OS2WinAscent: 1125
OS2WinAOffset: 0
OS2WinDescent: 290
OS2WinDOffset: 0
HheadAscent: 1125
HheadAOffset: 0
HheadDescent: -290
HheadDOffset: 0
OS2SubXSize: 650
OS2SubYSize: 600
OS2SubXOff: -19
OS2SubYOff: 75
OS2SupXSize: 650
OS2SupYSize: 600
OS2SupXOff: 87
OS2SupYOff: 350
OS2StrikeYSize: 40
OS2StrikeYPos: 258
OS2CapHeight: 683
OS2XHeight: 24
OS2Vendor: 'UKWN'
OS2CodePages: 20000193.00000000
OS2UnicodeRanges: 20000007.00000000.00000000.00000000
Lookup: 1 0 0 "'aalt' Access All Alternates lookup 0" { "'aalt' Access All Alternates lookup 0 subtable"  } ['aalt' ('DFLT' <'dflt' > 'cyrl' <'dflt' > 'latn' <'AZE ' 'CRT ' 'MOL ' 'NLD ' 'PLK ' 'ROM ' 'TRK ' 'dflt' > ) ]
Lookup: 3 0 0 "'aalt' Access All Alternates lookup 1" { "'aalt' Access All Alternates lookup 1 subtable"  } ['aalt' ('DFLT' <'dflt' > 'cyrl' <'dflt' > 'latn' <'AZE ' 'CRT ' 'MOL ' 'NLD ' 'PLK ' 'ROM ' 'TRK ' 'dflt' > ) ]
Lookup: 1 0 0 "'locl' Localized Forms in Latin lookup 2" { "'locl' Localized Forms in Latin lookup 2 subtable"  } ['locl' ('latn' <'MOL ' 'ROM ' > ) ]

StartChar: exclam
Encoding: 33 33 4
Width: 307
GlyphClass: 2
Flags: W
LayerCount: 2
Fore
SplineSet
370 654 m 2,0,-1
 221 204 l 2,1,2
 216 192 216 192 213.5 189.5 c 128,-1,3
 211 187 211 187 203 187 c 0,4,5
 188 187 188 187 188 199 c 0,6,7
 188 202 188 202 190 211 c 2,8,-1
 265 656 l 2,9,10
 269 682 269 682 286 697 c 128,-1,11
 303 712 303 712 313 714 c 128,-1,12
 323 716 323 716 330 716 c 0,13,14
 351 716 351 716 363 703.5 c 128,-1,15
 375 691 375 691 375 675 c 0,16,17
 375 668 375 668 370 654 c 2,0,-1
222 63 m 0,18,19
 222 39 222 39 202 19.5 c 128,-1,20
 182 0 182 0 157 0 c 0,21,22
 138 0 138 0 125.5 12 c 128,-1,23
 113 24 113 24 113 43 c 0,24,25
 113 68 113 68 133 87 c 128,-1,26
 153 106 153 106 177 106 c 0,27,28
 198 106 198 106 210 93 c 128,-1,29
 222 80 222 80 222 63 c 0,18,19
EndSplineSet
EndChar

StartChar: quotedbl
Encoding: 34 34 5
Width: 401
GlyphClass: 2
Flags: W
LayerCount: 2
Fore
SplineSet
354 673 m 2,0,-1
 274 423 l 1,1,-1
 244 423 l 1,2,-1
 290 673 l 2,3,4
 292 686 292 686 304 695.5 c 128,-1,5
 316 705 316 705 330 705 c 128,-1,6
 344 705 344 705 351 695.5 c 128,-1,7
 358 686 358 686 354 673 c 2,0,-1
448 673 m 2,8,-1
 368 423 l 1,9,-1
 338 423 l 1,10,-1
 384 673 l 2,11,12
 386 686 386 686 398 695.5 c 128,-1,13
 410 705 410 705 424 705 c 128,-1,14
 438 705 438 705 445 695.5 c 128,-1,15
 452 686 452 686 448 673 c 2,8,-1
EndSplineSet
EndChar

StartChar: numbersign
Encoding: 35 35 6
Width: 818
GlyphClass: 2
Flags: W
LayerCount: 2
Fore
SplineSet
828 347 m 128,-1,1
 828 327 828 327 794 327 c 2,2,-1
 637 327 l 1,3,-1
 561 173 l 1,4,-1
 746 173 l 2,5,6
 779 173 779 173 779 153 c 128,-1,7
 779 133 779 133 746 133 c 2,8,-1
 540 133 l 1,9,-1
 381 -188 l 2,10,11
 375 -194 375 -194 366 -194 c 0,12,13
 346 -194 346 -194 346 -174 c 0,14,15
 346 -170 346 -170 351 -157 c 2,16,-1
 495 133 l 1,17,-1
 330 133 l 1,18,-1
 171 -188 l 2,19,20
 165 -194 165 -194 156 -194 c 0,21,22
 136 -194 136 -194 136 -174 c 0,23,24
 136 -170 136 -170 141 -157 c 2,25,-1
 285 133 l 1,26,-1
 149 133 l 2,27,28
 115 133 115 133 115 153 c 128,-1,29
 115 173 115 173 149 173 c 2,30,-1
 306 173 l 1,31,-1
 382 327 l 1,32,-1
 197 327 l 2,33,34
 164 327 164 327 164 347 c 128,-1,35
 164 367 164 367 197 367 c 2,36,-1
 403 367 l 1,37,-1
 562 688 l 2,38,39
 568 694 568 694 577 694 c 0,40,41
 597 694 597 694 597 674 c 0,42,43
 597 670 597 670 592 657 c 2,44,-1
 448 367 l 1,45,-1
 613 367 l 1,46,-1
 772 688 l 2,47,48
 778 694 778 694 787 694 c 0,49,50
 807 694 807 694 807 674 c 0,51,52
 807 670 807 670 802 657 c 2,53,-1
 658 367 l 1,54,-1
 794 367 l 2,55,0
 828 367 828 367 828 347 c 128,-1,1
592 327 m 1,56,-1
 427 327 l 1,57,-1
 351 173 l 1,58,-1
 516 173 l 1,59,-1
 592 327 l 1,56,-1
EndSplineSet
EndChar

StartChar: dollar
Encoding: 36 36 7
Width: 500
GlyphClass: 2
Flags: W
LayerCount: 2
Fore
SplineSet
581 560 m 0,0,1
 571 479 571 479 519 479 c 0,2,3
 502 479 502 479 491 489 c 128,-1,4
 480 499 480 499 481 518 c 0,5,6
 483 540 483 540 499.5 555.5 c 128,-1,7
 516 571 516 571 538 571 c 0,8,9
 548 571 548 571 555 568 c 1,10,11
 555 619 555 619 520.5 645.5 c 128,-1,12
 486 672 486 672 433 674 c 1,13,-1
 365 402 l 1,14,15
 393 395 393 395 405.5 391 c 128,-1,16
 418 387 418 387 435 376 c 128,-1,17
 452 365 452 365 467 347 c 0,18,19
 502 294 502 294 497 229 c 0,20,21
 489 139 489 139 419.5 68 c 128,-1,22
 350 -3 350 -3 262 -10 c 1,23,-1
 251 -56 l 1,24,-1
 220 -56 l 1,25,-1
 231 -10 l 1,26,27
 168 -7 168 -7 128.5 31.5 c 128,-1,28
 89 70 89 70 95 144 c 0,29,30
 104 229 104 229 157 229 c 0,31,32
 171 229 171 229 183.5 219.5 c 128,-1,33
 196 210 196 210 195 189 c 0,34,35
 193 169 193 169 177.5 153 c 128,-1,36
 162 137 162 137 137 137 c 0,37,38
 126 137 126 137 120 140 c 1,39,40
 117 84 117 84 150.5 53.5 c 128,-1,41
 184 23 184 23 239 20 c 1,42,-1
 314 319 l 1,43,44
 273 330 273 330 252.5 339.5 c 128,-1,45
 232 349 232 349 213 371 c 0,46,47
 174 414 174 414 179 483 c 0,48,49
 185 554 185 554 244 621.5 c 128,-1,50
 303 689 303 689 405 704 c 0,51,52
 410 705 410 705 411 709 c 0,53,54
 412 710 412 710 413 715 c 128,-1,55
 414 720 414 720 414 722 c 2,56,-1
 421 750 l 1,57,-1
 452 750 l 1,58,-1
 442 704 l 1,59,60
 512 701 512 701 549 662 c 128,-1,61
 586 623 586 623 581 560 c 0,0,1
402 673 m 1,62,63
 338 666 338 666 291 621 c 128,-1,64
 244 576 244 576 239 522 c 0,65,66
 232 434 232 434 336 410 c 1,67,-1
 402 673 l 1,62,63
438 191 m 0,68,69
 442 245 442 245 414.5 273.5 c 128,-1,70
 387 302 387 302 343 311 c 1,71,-1
 271 21 l 1,72,73
 338 30 338 30 385.5 81.5 c 128,-1,74
 433 133 433 133 438 191 c 0,68,69
EndSplineSet
Substitution2: "'onum' Oldstyle Figures lookup 4 subtable" dollar.oldstyle
Substitution2: "'aalt' Access All Alternates lookup 0 subtable" dollar.oldstyle
EndChar

StartChar: percent
Encoding: 37 37 8
Width: 818
GlyphClass: 2
Flags: W
LayerCount: 2
Fore
SplineSet
846 730 m 0,0,1
 846 723 846 723 835 709 c 2,2,-1
 186 -43 l 2,3,4
 175 -56 175 -56 165 -56 c 0,5,6
 157 -56 157 -56 151 -50 c 128,-1,7
 145 -44 145 -44 145 -36 c 0,8,9
 145 -29 145 -29 156 -16 c 2,10,-1
 729 649 l 1,11,-1
 729 650 l 1,12,13
 666 621 666 621 607 621 c 0,14,15
 530 621 530 621 476 663 c 1,16,17
 479 649 479 649 479 624 c 0,18,19
 479 526 479 526 422 436.5 c 128,-1,20
 365 347 365 347 300 347 c 0,21,22
 258 347 258 347 231.5 383 c 128,-1,23
 205 419 205 419 205 480 c 0,24,25
 205 577 205 577 266 663.5 c 128,-1,26
 327 750 327 750 395 750 c 0,27,28
 432 750 432 750 455 718 c 0,29,30
 510 643 510 643 608 643 c 0,31,32
 663 643 663 643 716 668 c 128,-1,33
 769 693 769 693 802 732 c 0,34,35
 817 750 817 750 827 750 c 0,36,37
 835 750 835 750 840.5 744 c 128,-1,38
 846 738 846 738 846 730 c 0,0,1
788 221 m 0,39,40
 788 127 788 127 731.5 35.5 c 128,-1,41
 675 -56 675 -56 608 -56 c 0,42,43
 565 -56 565 -56 539 -18.5 c 128,-1,44
 513 19 513 19 513 77 c 0,45,46
 513 173 513 173 573.5 260 c 128,-1,47
 634 347 634 347 704 347 c 0,48,49
 748 347 748 347 768 307.5 c 128,-1,50
 788 268 788 268 788 221 c 0,39,40
449 629 m 0,51,52
 449 669 449 669 436 698.5 c 128,-1,53
 423 728 423 728 395 728 c 0,54,55
 365 728 365 728 337.5 695 c 128,-1,56
 310 662 310 662 293 615.5 c 128,-1,57
 276 569 276 569 266 523.5 c 128,-1,58
 256 478 256 478 256 449 c 0,59,60
 256 369 256 369 302 369 c 0,61,62
 351 369 351 369 400 454 c 128,-1,63
 449 539 449 539 449 629 c 0,51,52
757 226 m 0,64,65
 757 270 757 270 743 297.5 c 128,-1,66
 729 325 729 325 704 325 c 0,67,68
 663 325 663 325 629 268 c 128,-1,69
 595 211 595 211 579.5 148 c 128,-1,70
 564 85 564 85 564 46 c 0,71,72
 564 -34 564 -34 610 -34 c 0,73,74
 641 -34 641 -34 675.5 4.5 c 128,-1,75
 710 43 710 43 733.5 104.5 c 128,-1,76
 757 166 757 166 757 226 c 0,64,65
EndSplineSet
EndChar

StartChar: ampersand
Encoding: 38 38 9
Width: 767
GlyphClass: 2
Flags: W
LayerCount: 2
Fore
SplineSet
734 311 m 0,0,1
 734 277 734 277 724.5 237.5 c 128,-1,2
 715 198 715 198 689.5 151 c 128,-1,3
 664 104 664 104 626.5 66.5 c 128,-1,4
 589 29 589 29 525 3.5 c 128,-1,5
 461 -22 461 -22 382 -22 c 0,6,7
 263 -22 263 -22 194.5 36 c 128,-1,8
 126 94 126 94 126 176 c 0,9,10
 126 213 126 213 148.5 272 c 128,-1,11
 171 331 171 331 219 383 c 1,12,-1
 222 389 l 2,13,14
 222 391 222 391 220 396 c 0,15,16
 211 424 211 424 211 456 c 0,17,18
 211 551 211 551 277.5 633.5 c 128,-1,19
 344 716 344 716 424 716 c 0,20,21
 474 716 474 716 502 682.5 c 128,-1,22
 530 649 530 649 530 601 c 0,23,24
 530 522 530 522 477 522 c 0,25,26
 459 522 459 522 450.5 532 c 128,-1,27
 442 542 442 542 442 554 c 0,28,29
 442 556 442 556 442.5 559.5 c 128,-1,30
 443 563 443 563 446 571 c 128,-1,31
 449 579 449 579 454.5 585.5 c 128,-1,32
 460 592 460 592 471.5 597.5 c 128,-1,33
 483 603 483 603 499 603 c 1,34,35
 498 652 498 652 475.5 673 c 128,-1,36
 453 694 453 694 424 694 c 0,37,38
 380 694 380 694 343.5 648 c 128,-1,39
 307 602 307 602 289 542 c 128,-1,40
 271 482 271 482 269 427 c 1,41,42
 320 461 320 461 367 461 c 0,43,44
 395 461 395 461 412.5 445 c 128,-1,45
 430 429 430 429 430 401 c 0,46,47
 430 366 430 366 401 338 c 128,-1,48
 372 310 372 310 334 310 c 0,49,50
 285 310 285 310 253 342 c 1,51,52
 235 309 235 309 218.5 252.5 c 128,-1,53
 202 196 202 196 202 156 c 0,54,55
 202 113 202 113 218.5 81 c 128,-1,56
 235 49 235 49 263 32 c 128,-1,57
 291 15 291 15 321 7.5 c 128,-1,58
 351 0 351 0 383 0 c 0,59,60
 457 0 457 0 516 24.5 c 128,-1,61
 575 49 575 49 609 85 c 128,-1,62
 643 121 643 121 665 165.5 c 128,-1,63
 687 210 687 210 694.5 245 c 128,-1,64
 702 280 702 280 702 308 c 0,65,66
 702 381 702 381 650 448 c 1,67,68
 572 400 572 400 546.5 375 c 128,-1,69
 521 350 521 350 521 310 c 0,70,71
 521 296 521 296 524 288 c 1,72,73
 536 320 536 320 569 320 c 0,74,75
 601 320 601 320 601 289 c 0,76,77
 601 270 601 270 587.5 256 c 128,-1,78
 574 242 574 242 553 242 c 0,79,80
 526 242 526 242 508 261.5 c 128,-1,81
 490 281 490 281 490 313 c 128,-1,82
 490 345 490 345 511 375 c 128,-1,83
 532 405 532 405 552 419.5 c 128,-1,84
 572 434 572 434 606 455 c 128,-1,85
 640 476 640 476 661 491.5 c 128,-1,86
 682 507 682 507 712 541.5 c 128,-1,87
 742 576 742 576 758 616 c 1,88,89
 724 618 724 618 724 647 c 0,90,91
 724 668 724 668 739 681 c 128,-1,92
 754 694 754 694 771 694 c 0,93,94
 784 694 784 694 794 686 c 128,-1,95
 804 678 804 678 804 663 c 0,96,97
 804 650 804 650 793.5 620 c 128,-1,98
 783 590 783 590 751.5 544 c 128,-1,99
 720 498 720 498 677 467 c 1,100,101
 734 392 734 392 734 311 c 0,0,1
400 406 m 0,102,103
 400 439 400 439 367 439 c 0,104,105
 322 439 322 439 276 379 c 1,106,107
 293 332 293 332 336 332 c 0,108,109
 363 332 363 332 381.5 355 c 128,-1,110
 400 378 400 378 400 406 c 0,102,103
EndSplineSet
Substitution2: "'lnum' Lining Figures lookup 5 subtable" ampersand
Substitution2: "'onum' Oldstyle Figures lookup 4 subtable" ampersand
Substitution2: "'aalt' Access All Alternates lookup 0 subtable" ampersand
EndChar

StartChar: quotesingle
Encoding: 39 39 10
Width: 307
GlyphClass: 2
Flags: W
LayerCount: 2
Fore
SplineSet
354 673 m 2,0,-1
 274 423 l 1,1,-1
 244 423 l 1,2,-1
 290 673 l 2,3,4
 292 686 292 686 304 695.5 c 128,-1,5
 316 705 316 705 330 705 c 128,-1,6
 344 705 344 705 351 695.5 c 128,-1,7
 358 686 358 686 354 673 c 2,0,-1
EndSplineSet
EndChar

StartChar: parenleft
Encoding: 40 40 11
Width: 389
GlyphClass: 2
Flags: W
LayerCount: 2
Fore
SplineSet
331 -240 m 0,0,1
 331 -250 331 -250 321 -250 c 0,2,3
 314 -250 314 -250 290 -230 c 128,-1,4
 266 -210 266 -210 229 -164 c 128,-1,5
 192 -118 192 -118 165 -62 c 0,6,7
 99 74 99 74 99 250 c 0,8,9
 99 419 99 419 162 555 c 0,10,11
 189 612 189 612 226.5 660 c 128,-1,12
 264 708 264 708 289 729 c 128,-1,13
 314 750 314 750 321 750 c 0,14,15
 331 750 331 750 331 740 c 0,16,17
 331 735 331 735 318 723 c 0,18,19
 157 559 157 559 157 250 c 0,20,21
 157 -60 157 -60 314 -218 c 0,22,23
 331 -235 331 -235 331 -240 c 0,0,1
EndSplineSet
EndChar

StartChar: parenright
Encoding: 41 41 12
Width: 389
GlyphClass: 2
Flags: W
LayerCount: 2
Fore
SplineSet
289 250 m 0,0,1
 289 81 289 81 226 -55 c 0,2,3
 199 -112 199 -112 161.5 -160 c 128,-1,4
 124 -208 124 -208 99 -229 c 128,-1,5
 74 -250 74 -250 67 -250 c 0,6,7
 57 -250 57 -250 57 -240 c 0,8,9
 57 -235 57 -235 70 -223 c 0,10,11
 231 -59 231 -59 231 250 c 0,12,13
 231 560 231 560 76 717 c 0,14,15
 57 735 57 735 57 740 c 0,16,17
 57 750 57 750 67 750 c 0,18,19
 74 750 74 750 98 730 c 128,-1,20
 122 710 122 710 159 664 c 128,-1,21
 196 618 196 618 223 562 c 0,22,23
 289 426 289 426 289 250 c 0,0,1
EndSplineSet
EndChar

StartChar: asterisk
Encoding: 42 42 13
Width: 500
GlyphClass: 2
Flags: W
LayerCount: 2
Fore
SplineSet
434 441 m 0,0,1
 434 431 434 431 426 422 c 128,-1,2
 418 413 418 413 407 413 c 0,3,4
 401 413 401 413 391 419 c 2,5,-1
 261 514 l 1,6,-1
 276 344 l 2,7,8
 276 334 276 334 268.5 326.5 c 128,-1,9
 261 319 261 319 249 319 c 0,10,11
 239 319 239 319 231 326 c 128,-1,12
 223 333 223 333 223 344 c 2,13,-1
 238 514 l 1,14,-1
 98 413 l 1,15,16
 83 413 83 413 75 420 c 128,-1,17
 67 427 67 427 66 434 c 2,18,-1
 65 441 l 2,19,20
 65 458 65 458 88 469 c 2,21,-1
 227 535 l 1,22,-1
 86 601 l 2,23,24
 65 611 65 611 65 628 c 0,25,26
 65 638 65 638 73 647 c 128,-1,27
 81 656 81 656 92 656 c 0,28,29
 100 656 100 656 114 645 c 2,30,-1
 238 555 l 1,31,-1
 223 725 l 2,32,33
 223 735 223 735 230.5 742.5 c 128,-1,34
 238 750 238 750 250 750 c 0,35,36
 260 750 260 750 268 743 c 128,-1,37
 276 736 276 736 276 725 c 2,38,-1
 261 555 l 1,39,-1
 372 637 l 2,40,41
 398 656 398 656 407 656 c 0,42,43
 418 656 418 656 426 647 c 128,-1,44
 434 638 434 638 434 628 c 0,45,46
 434 611 434 611 411 600 c 2,47,-1
 272 534 l 1,48,-1
 413 468 l 2,49,50
 434 458 434 458 434 441 c 0,0,1
EndSplineSet
EndChar

StartChar: plus
Encoding: 43 43 14
Width: 739
GlyphClass: 2
Flags: W
LayerCount: 2
Fore
SplineSet
687.75 250 m 128,-1,1
 687.75 232 687.75 232 658.049804688 232 c 2,2,-1
 406.950195312 232 l 1,3,-1
 406.950195312 -20 l 2,4,5
 406.950195312 -49.7001953125 406.950195312 -49.7001953125 388.950195312 -49.7001953125 c 128,-1,6
 370.950195312 -49.7001953125 370.950195312 -49.7001953125 370.950195312 -20 c 2,7,-1
 370.950195312 232 l 1,8,-1
 118.950195312 232 l 2,9,10
 89.25 232 89.25 232 89.25 250 c 128,-1,11
 89.25 268 89.25 268 118.950195312 268 c 2,12,-1
 370.950195312 268 l 1,13,-1
 370.950195312 520 l 2,14,15
 370.950195312 549.700195312 370.950195312 549.700195312 388.950195312 549.700195312 c 128,-1,16
 406.950195312 549.700195312 406.950195312 549.700195312 406.950195312 520 c 2,17,-1
 406.950195312 268 l 1,18,-1
 658.049804688 268 l 2,19,0
 687.75 268 687.75 268 687.75 250 c 128,-1,1
EndSplineSet
EndChar

StartChar: comma
Encoding: 44 44 15
Width: 307
GlyphClass: 2
Flags: W
LayerCount: 2
Fore
SplineSet
224 47 m 0,0,1
 224 -7 224 -7 192 -66 c 128,-1,2
 160 -125 160 -125 127 -159 c 128,-1,3
 94 -193 94 -193 83 -193 c 0,4,5
 73 -193 73 -193 73 -183 c 0,6,7
 73 -179 73 -179 86 -166 c 0,8,9
 178 -88 178 -88 198 15 c 1,10,11
 179 0 179 0 157 0 c 0,12,13
 113 0 113 0 113 42 c 0,14,15
 113 66 113 66 131.5 86 c 128,-1,16
 150 106 150 106 178 106 c 0,17,18
 224 106 224 106 224 47 c 0,0,1
EndSplineSet
EndChar

StartChar: hyphen
Encoding: 45 45 16
Width: 703
GlyphClass: 2
Flags: W
LayerCount: 2
Fore
SplineSet
657.825195312 250 m 128,-1,1
 657.825195312 233.799804688 657.825195312 233.799804688 630.28515625 233.799804688 c 2,2,-1
 146.71484375 233.799804688 l 2,3,4
 119.174804688 233.799804688 119.174804688 233.799804688 119.174804688 250 c 128,-1,5
 119.174804688 266.200195312 119.174804688 266.200195312 145.905273438 266.200195312 c 2,6,-1
 631.094726562 266.200195312 l 2,7,0
 657.825195312 266.200195312 657.825195312 266.200195312 657.825195312 250 c 128,-1,1
EndSplineSet
EndChar

StartChar: period
Encoding: 46 46 17
Width: 307
GlyphClass: 2
Flags: W
LayerCount: 2
Fore
SplineSet
222 63 m 0,0,1
 222 40 222 40 202 20 c 128,-1,2
 182 0 182 0 157 0 c 0,3,4
 137 0 137 0 125 12 c 128,-1,5
 113 24 113 24 113 43 c 0,6,7
 113 67 113 67 133.5 86.5 c 128,-1,8
 154 106 154 106 178 106 c 0,9,10
 198 106 198 106 210 93 c 128,-1,11
 222 80 222 80 222 63 c 0,0,1
EndSplineSet
EndChar

StartChar: slash
Encoding: 47 47 18
Width: 500
GlyphClass: 2
Flags: W
LayerCount: 2
Fore
SplineSet
443 730 m 0,0,1
 443 725 443 725 438 712 c 2,2,-1
 97 -230 l 2,3,4
 91 -250 91 -250 76 -250 c 0,5,6
 68 -250 68 -250 62 -244 c 128,-1,7
 56 -238 56 -238 56 -230 c 0,8,9
 56 -225 56 -225 61 -212 c 2,10,-1
 402 730 l 2,11,12
 408 750 408 750 423 750 c 0,13,14
 431 750 431 750 437 744 c 128,-1,15
 443 738 443 738 443 730 c 0,0,1
EndSplineSet
EndChar

StartChar: zero
Encoding: 48 48 19
Width: 500
GlyphClass: 2
Flags: W
LayerCount: 2
Fore
SplineSet
460 320 m 0,0,1
 460 174 460 174 423 94 c 0,2,3
 369 -22 369 -22 249 -22 c 0,4,5
 204 -22 204 -22 158.5 1 c 128,-1,6
 113 24 113 24 84 79 c 0,7,8
 39 162 39 162 39 320 c 0,9,10
 39 467 39 467 76 547 c 0,11,12
 128 666 128 666 250 666 c 0,13,14
 276 666 276 666 303 659 c 128,-1,15
 330 652 330 652 364.5 625 c 128,-1,16
 399 598 399 598 420 554 c 0,17,18
 460 469 460 469 460 320 c 0,0,1
377 332 m 0,19,20
 377 471 377 471 367 527 c 0,21,22
 354 592 354 592 319 618 c 128,-1,23
 284 644 284 644 249 644 c 0,24,25
 236 644 236 644 222 640 c 128,-1,26
 208 636 208 636 188 625 c 128,-1,27
 168 614 168 614 152.5 586 c 128,-1,28
 137 558 137 558 130 516 c 0,29,30
 122 462 122 462 122 332 c 0,31,32
 122 181 122 181 133 121 c 0,33,34
 145 56 145 56 178.5 28 c 128,-1,35
 212 0 212 0 249 0 c 0,36,37
 289 0 289 0 322.5 30 c 128,-1,38
 356 60 356 60 366 125 c 0,39,40
 377 189 377 189 377 332 c 0,19,20
EndSplineSet
Substitution2: "LMRoman10-Regular-'zero' Slashed Zero lookup 14 subtable" zero.slash
Substitution2: "LMRoman10-Regular-'pnum' Proportional Numbers lookup 6 subtable" zero.prop
Substitution2: "LMRoman10-Regular-'onum' Oldstyle Figures lookup 4 subtable" zero.oldstyle
AlternateSubs2: "LMRoman10-Regular-'aalt' Access All Alternates lookup 1 subtable" zero.oldstyle zero.prop zero.slash
EndChar

StartChar: one
Encoding: 49 49 20
Width: 500
GlyphClass: 2
Flags: W
LayerCount: 2
Fore
SplineSet
419 0 m 1,0,1
 384 3 384 3 257 3 c 128,-1,2
 130 3 130 3 95 0 c 1,3,-1
 95 31 l 1,4,-1
 127 31 l 2,5,6
 190 31 190 31 205 40 c 128,-1,7
 220 49 220 49 220 79 c 2,8,-1
 220 597 l 1,9,10
 168 571 168 571 89 571 c 1,11,-1
 89 602 l 1,12,13
 209 602 209 602 271 666 c 1,14,15
 288 666 288 666 291 662 c 128,-1,16
 294 658 294 658 294 640 c 2,17,-1
 294 79 l 2,18,19
 294 49 294 49 308.5 40 c 128,-1,20
 323 31 323 31 387 31 c 2,21,-1
 419 31 l 1,22,-1
 419 0 l 1,0,1
EndSplineSet
Substitution2: "LMRoman10-Regular-'pnum' Proportional Numbers lookup 6 subtable" one.prop
Substitution2: "LMRoman10-Regular-'onum' Oldstyle Figures lookup 4 subtable" one.oldstyle
AlternateSubs2: "LMRoman10-Regular-'aalt' Access All Alternates lookup 1 subtable" one.oldstyle one.prop
EndChar

StartChar: two
Encoding: 50 50 21
Width: 500
GlyphClass: 2
Flags: W
LayerCount: 2
Fore
SplineSet
449 174 m 1,0,-1
 421 0 l 1,1,-1
 50 0 l 1,2,3
 50 18 50 18 51.5 23.5 c 128,-1,4
 53 29 53 29 61 37 c 2,5,-1
 253 251 l 2,6,7
 358 369 358 369 358 472 c 0,8,9
 358 539 358 539 323 587 c 128,-1,10
 288 635 288 635 224 635 c 0,11,12
 180 635 180 635 143 608 c 128,-1,13
 106 581 106 581 89 533 c 1,14,15
 92 534 92 534 102 534 c 0,16,17
 127 534 127 534 141 518.5 c 128,-1,18
 155 503 155 503 155 482 c 0,19,20
 155 455 155 455 137.5 442 c 128,-1,21
 120 429 120 429 103 429 c 0,22,23
 96 429 96 429 87 430.5 c 128,-1,24
 78 432 78 432 64 446 c 128,-1,25
 50 460 50 460 50 485 c 0,26,27
 50 555 50 555 103 610.5 c 128,-1,28
 156 666 156 666 237 666 c 0,29,30
 329 666 329 666 389 611.5 c 128,-1,31
 449 557 449 557 449 472 c 0,32,33
 449 442 449 442 440 415 c 128,-1,34
 431 388 431 388 419 367 c 128,-1,35
 407 346 407 346 375 312.5 c 128,-1,36
 343 279 343 279 317 255 c 128,-1,37
 291 231 291 231 233 180 c 2,38,-1
 127 77 l 1,39,-1
 307 77 l 2,40,41
 395 77 395 77 402 85 c 0,42,43
 412 99 412 99 424 174 c 1,44,-1
 449 174 l 1,0,-1
EndSplineSet
Substitution2: "LMRoman10-Regular-'pnum' Proportional Numbers lookup 6 subtable" two.prop
Substitution2: "LMRoman10-Regular-'onum' Oldstyle Figures lookup 4 subtable" two.oldstyle
AlternateSubs2: "LMRoman10-Regular-'aalt' Access All Alternates lookup 1 subtable" two.oldstyle two.prop
EndChar

StartChar: three
Encoding: 51 51 22
Width: 500
GlyphClass: 2
Flags: W
LayerCount: 2
Fore
SplineSet
457 171 m 0,0,1
 457 93 457 93 395.5 35.5 c 128,-1,2
 334 -22 334 -22 244 -22 c 0,3,4
 161 -22 161 -22 101.5 23 c 128,-1,5
 42 68 42 68 42 135 c 0,6,7
 42 165 42 165 59 179 c 128,-1,8
 76 193 76 193 98 193 c 0,9,10
 121 193 121 193 137.5 178 c 128,-1,11
 154 163 154 163 154 137 c 0,12,13
 154 109 154 109 134.5 93.5 c 128,-1,14
 115 78 115 78 88 82 c 1,15,16
 112 42 112 42 156 24 c 128,-1,17
 200 6 200 6 241 6 c 0,18,19
 284 6 284 6 319 43 c 128,-1,20
 354 80 354 80 354 171 c 0,21,22
 354 248 354 248 324 292.5 c 128,-1,23
 294 337 294 337 235 337 c 2,24,-1
 191 337 l 2,25,26
 176 337 176 337 171.5 338.5 c 128,-1,27
 167 340 167 340 167 348 c 0,28,29
 167 358 167 358 182 360 c 0,30,31
 197 360 197 360 221 363 c 0,32,33
 279 365 279 365 310 415 c 0,34,35
 338 462 338 462 338 529 c 0,36,37
 338 590 338 590 309 615.5 c 128,-1,38
 280 641 280 641 242 641 c 0,39,40
 207 641 207 641 168.5 626.5 c 128,-1,41
 130 612 130 612 109 579 c 1,42,43
 171 579 171 579 171 529 c 0,44,45
 171 507 171 507 157 492.5 c 128,-1,46
 143 478 143 478 120 478 c 0,47,48
 98 478 98 478 83.5 492 c 128,-1,49
 69 506 69 506 69 530 c 0,50,51
 69 587 69 587 120 626.5 c 128,-1,52
 171 666 171 666 246 666 c 0,53,54
 320 666 320 666 375 627 c 128,-1,55
 430 588 430 588 430 528 c 0,56,57
 430 469 430 469 391 420.5 c 128,-1,58
 352 372 352 372 290 352 c 1,59,60
 366 337 366 337 411.5 285.5 c 128,-1,61
 457 234 457 234 457 171 c 0,0,1
EndSplineSet
Substitution2: "LMRoman10-Regular-'pnum' Proportional Numbers lookup 6 subtable" three.prop
Substitution2: "LMRoman10-Regular-'onum' Oldstyle Figures lookup 4 subtable" three.oldstyle
AlternateSubs2: "LMRoman10-Regular-'aalt' Access All Alternates lookup 1 subtable" three.oldstyle three.prop
EndChar

StartChar: four
Encoding: 52 52 23
Width: 500
GlyphClass: 2
Flags: W
LayerCount: 2
Fore
SplineSet
471 165 m 1,0,-1
 371 165 l 1,1,-1
 371 78 l 2,2,3
 371 49 371 49 383 40 c 128,-1,4
 395 31 395 31 447 31 c 2,5,-1
 468 31 l 1,6,-1
 468 0 l 1,7,8
 427 3 427 3 332 3 c 0,9,10
 238 3 238 3 197 0 c 1,11,-1
 197 31 l 1,12,-1
 218 31 l 2,13,14
 270 31 270 31 282 40 c 128,-1,15
 294 49 294 49 294 78 c 2,16,-1
 294 165 l 1,17,-1
 28 165 l 1,18,-1
 28 196 l 1,19,-1
 335 665 l 2,20,21
 343 677 343 677 355 677 c 0,22,23
 366 677 366 677 368.5 672.5 c 128,-1,24
 371 668 371 668 371 651 c 2,25,-1
 371 196 l 1,26,-1
 471 196 l 1,27,-1
 471 165 l 1,0,-1
300 196 m 1,28,-1
 300 569 l 1,29,-1
 56 196 l 1,30,-1
 300 196 l 1,28,-1
EndSplineSet
Substitution2: "LMRoman10-Regular-'pnum' Proportional Numbers lookup 6 subtable" four.prop
Substitution2: "LMRoman10-Regular-'onum' Oldstyle Figures lookup 4 subtable" four.oldstyle
AlternateSubs2: "LMRoman10-Regular-'aalt' Access All Alternates lookup 1 subtable" four.oldstyle four.prop
EndChar

StartChar: five
Encoding: 53 53 24
Width: 500
GlyphClass: 2
Flags: W
LayerCount: 2
Fore
SplineSet
449 201 m 0,0,1
 449 107 449 107 384 42.5 c 128,-1,2
 319 -22 319 -22 231 -22 c 0,3,4
 151 -22 151 -22 100.5 35 c 128,-1,5
 50 92 50 92 50 161 c 0,6,7
 50 191 50 191 66 202.5 c 128,-1,8
 82 214 82 214 99 214 c 0,9,10
 122 214 122 214 135.5 199.5 c 128,-1,11
 149 185 149 185 149 165 c 128,-1,12
 149 145 149 145 135.5 130.5 c 128,-1,13
 122 116 122 116 99 116 c 0,14,15
 88 116 88 116 82 118 c 1,16,17
 95 72 95 72 135.5 39 c 128,-1,18
 176 6 176 6 229 6 c 0,19,20
 296 6 296 6 336 71 c 0,21,22
 360 113 360 113 360 208 c 0,23,24
 360 292 360 292 342 334 c 0,25,26
 314 398 314 398 257 398 c 0,27,28
 176 398 176 398 128 328 c 0,29,30
 122 319 122 319 115 319 c 0,31,32
 105 319 105 319 103 324.5 c 128,-1,33
 101 330 101 330 101 345 c 2,34,-1
 101 641 l 2,35,36
 101 665 101 665 111 665 c 0,37,38
 115 665 115 665 123 662 c 0,39,40
 186 634 186 634 256 634 c 0,41,42
 328 634 328 634 392 663 c 1,43,-1
 400 666 l 2,44,45
 410 666 410 666 410 655 c 0,46,47
 410 651 410 651 402 639.5 c 128,-1,48
 394 628 394 628 377 613 c 128,-1,49
 360 598 360 598 338 584 c 128,-1,50
 316 570 316 570 284 560.5 c 128,-1,51
 252 551 252 551 217 551 c 0,52,53
 175 551 175 551 132 564 c 1,54,-1
 132 369 l 1,55,56
 184 420 184 420 259 420 c 0,57,58
 339 420 339 420 394 355.5 c 128,-1,59
 449 291 449 291 449 201 c 0,0,1
EndSplineSet
Substitution2: "LMRoman10-Regular-'pnum' Proportional Numbers lookup 6 subtable" five.prop
Substitution2: "LMRoman10-Regular-'onum' Oldstyle Figures lookup 4 subtable" five.oldstyle
AlternateSubs2: "LMRoman10-Regular-'aalt' Access All Alternates lookup 1 subtable" five.oldstyle five.prop
EndChar

StartChar: six
Encoding: 54 54 25
Width: 500
GlyphClass: 2
Flags: W
LayerCount: 2
Fore
SplineSet
457 204 m 0,0,1
 457 107 457 107 396.5 42.5 c 128,-1,2
 336 -22 336 -22 251 -22 c 0,3,4
 213 -22 213 -22 178.5 -6 c 128,-1,5
 144 10 144 10 112 46 c 128,-1,6
 80 82 80 82 61 151.5 c 128,-1,7
 42 221 42 221 42 316 c 0,8,9
 42 473 42 473 122 569.5 c 128,-1,10
 202 666 202 666 305 666 c 0,11,12
 365 666 365 666 398.5 635.5 c 128,-1,13
 432 605 432 605 432 558 c 0,14,15
 432 532 432 532 417 521 c 128,-1,16
 402 510 402 510 386 510 c 0,17,18
 368 510 368 510 354 522 c 128,-1,19
 340 534 340 534 340 556 c 0,20,21
 340 601 340 601 395 601 c 1,22,23
 369 641 369 641 307 641 c 0,24,25
 288 641 288 641 268.5 635.5 c 128,-1,26
 249 630 249 630 223.5 611.5 c 128,-1,27
 198 593 198 593 178.5 563.5 c 128,-1,28
 159 534 159 534 145.5 479 c 128,-1,29
 132 424 132 424 132 352 c 2,30,-1
 132 328 l 1,31,32
 173 427 173 427 257 427 c 128,-1,33
 341 427 341 427 399 363 c 128,-1,34
 457 299 457 299 457 204 c 0,0,1
367 205 m 0,35,36
 367 305 367 305 349 342 c 0,37,38
 318 404 318 404 256 404 c 0,39,40
 214 404 214 404 185 375 c 128,-1,41
 156 346 156 346 145 307.5 c 128,-1,42
 134 269 134 269 134 226 c 0,43,44
 134 128 134 128 152 81 c 0,45,46
 155 73 155 73 161.5 62.5 c 128,-1,47
 168 52 168 52 179.5 38 c 128,-1,48
 191 24 191 24 210 15 c 128,-1,49
 229 6 229 6 251 6 c 0,50,51
 318 6 318 6 350 71 c 0,52,53
 367 107 367 107 367 205 c 0,35,36
EndSplineSet
Substitution2: "LMRoman10-Regular-'pnum' Proportional Numbers lookup 6 subtable" six.prop
Substitution2: "LMRoman10-Regular-'onum' Oldstyle Figures lookup 4 subtable" six.oldstyle
AlternateSubs2: "LMRoman10-Regular-'aalt' Access All Alternates lookup 1 subtable" six.oldstyle six.prop
EndChar

StartChar: seven
Encoding: 55 55 26
Width: 500
GlyphClass: 2
Flags: W
LayerCount: 2
Fore
SplineSet
485 644 m 1,0,1
 485 621 485 621 476 609 c 2,2,-1
 341 419 l 2,3,4
 298 359 298 359 279 248 c 0,5,6
 268 174 268 174 268 84 c 2,7,-1
 268 33 l 2,8,9
 268 -22 268 -22 222 -22 c 128,-1,10
 176 -22 176 -22 176 33 c 0,11,12
 176 117 176 117 206 215.5 c 128,-1,13
 236 314 236 314 299 409 c 2,14,-1
 411 567 l 1,15,-1
 204 567 l 2,16,17
 113 567 113 567 106 561 c 0,18,19
 96 552 96 552 81 470 c 1,20,-1
 56 470 l 1,21,-1
 89 676 l 1,22,-1
 114 676 l 1,23,24
 117 664 117 664 122 658.5 c 128,-1,25
 127 653 127 653 155.5 648.5 c 128,-1,26
 184 644 184 644 242 644 c 2,27,-1
 485 644 l 1,0,1
EndSplineSet
Substitution2: "LMRoman10-Regular-'pnum' Proportional Numbers lookup 6 subtable" seven.prop
Substitution2: "LMRoman10-Regular-'onum' Oldstyle Figures lookup 4 subtable" seven.oldstyle
AlternateSubs2: "LMRoman10-Regular-'aalt' Access All Alternates lookup 1 subtable" seven.oldstyle seven.prop
EndChar

StartChar: eight
Encoding: 56 56 27
Width: 500
GlyphClass: 2
Flags: W
LayerCount: 2
Fore
SplineSet
457 168 m 0,0,1
 457 88 457 88 395.5 33 c 128,-1,2
 334 -22 334 -22 249 -22 c 0,3,4
 166 -22 166 -22 104 26.5 c 128,-1,5
 42 75 42 75 42 151 c 0,6,7
 42 263 42 263 186 335 c 1,8,9
 124 377 124 377 113 389 c 0,10,11
 69 438 69 438 69 499 c 0,12,13
 69 569 69 569 122 617.5 c 128,-1,14
 175 666 175 666 250 666 c 0,15,16
 322 666 322 666 376 624.5 c 128,-1,17
 430 583 430 583 430 517 c 0,18,19
 430 424 430 424 309 362 c 1,20,21
 389 312 389 312 408 291 c 0,22,23
 457 237 457 237 457 168 c 0,0,1
386 517 m 0,24,25
 386 570 386 570 345.5 605.5 c 128,-1,26
 305 641 305 641 249 641 c 0,27,28
 194 641 194 641 153.5 612 c 128,-1,29
 113 583 113 583 113 538 c 0,30,31
 113 490 113 490 163 457 c 2,32,-1
 287 377 l 1,33,34
 386 435 386 435 386 517 c 0,24,25
407 132 m 0,35,36
 407 153 407 153 400 171 c 128,-1,37
 393 189 393 189 379 203.5 c 128,-1,38
 365 218 365 218 356.5 224.5 c 128,-1,39
 348 231 348 231 332 242 c 2,40,-1
 209 320 l 1,41,42
 92 255 92 255 92 151 c 0,43,44
 92 89 92 89 138.5 47.5 c 128,-1,45
 185 6 185 6 250 6 c 0,46,47
 313 6 313 6 360 42 c 128,-1,48
 407 78 407 78 407 132 c 0,35,36
EndSplineSet
Substitution2: "LMRoman10-Regular-'pnum' Proportional Numbers lookup 6 subtable" eight.prop
Substitution2: "LMRoman10-Regular-'onum' Oldstyle Figures lookup 4 subtable" eight.oldstyle
AlternateSubs2: "LMRoman10-Regular-'aalt' Access All Alternates lookup 1 subtable" eight.oldstyle eight.prop
EndChar

StartChar: nine
Encoding: 57 57 28
Width: 500
GlyphClass: 2
Flags: W
LayerCount: 2
Fore
SplineSet
457 329 m 0,0,1
 457 174 457 174 382 76 c 128,-1,2
 307 -22 307 -22 206 -22 c 0,3,4
 142 -22 142 -22 104.5 7 c 128,-1,5
 67 36 67 36 67 86 c 0,6,7
 67 112 67 112 81.5 123 c 128,-1,8
 96 134 96 134 113 134 c 0,9,10
 131 134 131 134 145 122 c 128,-1,11
 159 110 159 110 159 88 c 0,12,13
 159 70 159 70 147.5 56 c 128,-1,14
 136 42 136 42 107 42 c 1,15,16
 136 6 136 6 205 6 c 0,17,18
 230 6 230 6 255 17.5 c 128,-1,19
 280 29 280 29 307 57 c 128,-1,20
 334 85 334 85 350.5 144 c 128,-1,21
 367 203 367 203 367 286 c 2,22,-1
 367 318 l 1,23,24
 327 218 327 218 242 218 c 0,25,26
 158 218 158 218 100 282.5 c 128,-1,27
 42 347 42 347 42 441 c 0,28,29
 42 494 42 494 57.5 530.5 c 128,-1,30
 73 567 73 567 106 603 c 0,31,32
 166 666 166 666 253 666 c 0,33,34
 290 666 290 666 323 650.5 c 128,-1,35
 356 635 356 635 387.5 599.5 c 128,-1,36
 419 564 419 564 438 494.5 c 128,-1,37
 457 425 457 425 457 329 c 0,0,1
365 421 m 0,38,39
 365 519 365 519 349 562 c 0,40,41
 319 641 319 641 253 641 c 128,-1,42
 187 641 187 641 153 578 c 0,43,44
 132 541 132 541 132 440 c 0,45,46
 132 341 132 341 150 304 c 0,47,48
 181 241 181 241 243 241 c 0,49,50
 304 241 304 241 334.5 295.5 c 128,-1,51
 365 350 365 350 365 421 c 0,38,39
EndSplineSet
Substitution2: "LMRoman10-Regular-'pnum' Proportional Numbers lookup 6 subtable" nine.prop
Substitution2: "LMRoman10-Regular-'onum' Oldstyle Figures lookup 4 subtable" nine.oldstyle
AlternateSubs2: "LMRoman10-Regular-'aalt' Access All Alternates lookup 1 subtable" nine.oldstyle nine.prop
EndChar

StartChar: colon
Encoding: 58 58 29
Width: 307
GlyphClass: 2
Flags: W
LayerCount: 2
Fore
SplineSet
222 63 m 0,0,1
 222 40 222 40 202 20 c 128,-1,2
 182 0 182 0 157 0 c 0,3,4
 137 0 137 0 125 12 c 128,-1,5
 113 24 113 24 113 43 c 0,6,7
 113 67 113 67 133.5 86.5 c 128,-1,8
 154 106 154 106 178 106 c 0,9,10
 198 106 198 106 210 93 c 128,-1,11
 222 80 222 80 222 63 c 0,0,1
303 388 m 0,12,13
 303 364 303 364 283 344.5 c 128,-1,14
 263 325 263 325 238 325 c 0,15,16
 218 325 218 325 206 337.5 c 128,-1,17
 194 350 194 350 194 368 c 0,18,19
 194 392 194 392 214 411.5 c 128,-1,20
 234 431 234 431 259 431 c 0,21,22
 279 431 279 431 291 418.5 c 128,-1,23
 303 406 303 406 303 388 c 0,12,13
EndSplineSet
EndChar

StartChar: semicolon
Encoding: 59 59 30
Width: 307
GlyphClass: 2
Flags: W
LayerCount: 2
Fore
SplineSet
218 53 m 0,0,1
 218 11 218 11 199.5 -35.5 c 128,-1,2
 181 -82 181 -82 157 -115.5 c 128,-1,3
 133 -149 133 -149 111.5 -171 c 128,-1,4
 90 -193 90 -193 83 -193 c 0,5,6
 73 -193 73 -193 73 -182 c 0,7,8
 73 -176 73 -176 80 -172 c 0,9,10
 166 -89 166 -89 190 9 c 1,11,12
 172 0 172 0 157 0 c 0,13,14
 113 0 113 0 113 42 c 0,15,16
 113 66 113 66 131.5 86 c 128,-1,17
 150 106 150 106 178 106 c 0,18,19
 218 106 218 106 218 53 c 0,0,1
303 388 m 0,20,21
 303 364 303 364 283 344.5 c 128,-1,22
 263 325 263 325 238 325 c 0,23,24
 218 325 218 325 206 337.5 c 128,-1,25
 194 350 194 350 194 368 c 0,26,27
 194 392 194 392 214 411.5 c 128,-1,28
 234 431 234 431 259 431 c 0,29,30
 279 431 279 431 291 418.5 c 128,-1,31
 303 406 303 406 303 388 c 0,20,21
EndSplineSet
EndChar

StartChar: less
Encoding: 60 60 31
Width: 778
GlyphClass: 2
Flags: W
LayerCount: 2
Fore
SplineSet
689 -20 m 0,0,1
 687 -28 687 -28 679.5 -34 c 128,-1,2
 672 -40 672 -40 664 -40 c 0,3,4
 659 -40 659 -40 648 -33 c 2,5,-1
 159 228 l 2,6,7
 143 236 143 236 146 250 c 0,8,9
 149 263 149 263 170 272 c 2,10,-1
 789 533 l 2,11,12
 804 540 804 540 809 540 c 0,13,14
 817 540 817 540 821.5 534 c 128,-1,15
 826 528 826 528 824 520 c 0,16,17
 821 508 821 508 800 498 c 2,18,-1
 213 250 l 1,19,-1
 676 2 l 2,20,21
 692 -8 692 -8 689 -20 c 0,0,1
EndSplineSet
EndChar

StartChar: equal
Encoding: 61 61 32
Width: 767
GlyphClass: 2
Flags: W
LayerCount: 2
Fore
SplineSet
728 153 m 128,-1,1
 728 133 728 133 695 133 c 2,2,-1
 149 133 l 2,3,4
 115 133 115 133 115 153 c 128,-1,5
 115 173 115 173 149 173 c 2,6,-1
 695 173 l 2,7,0
 728 173 728 173 728 153 c 128,-1,1
777 347 m 128,-1,9
 777 327 777 327 743 327 c 2,10,-1
 197 327 l 2,11,12
 164 327 164 327 164 347 c 128,-1,13
 164 367 164 367 197 367 c 2,14,-1
 743 367 l 2,15,8
 777 367 777 367 777 347 c 128,-1,9
EndSplineSet
EndChar

StartChar: greater
Encoding: 62 62 33
Width: 778
GlyphClass: 2
Flags: W
LayerCount: 2
Fore
SplineSet
757 250 m 128,-1,1
 754 237 754 237 732 228 c 2,2,-1
 113 -33 l 2,3,4
 98 -40 98 -40 93 -40 c 0,5,6
 85 -40 85 -40 80.5 -34 c 128,-1,7
 76 -28 76 -28 78 -20 c 0,8,9
 81 -8 81 -8 103 2 c 2,10,-1
 690 250 l 1,11,-1
 227 498 l 2,12,13
 210 507 210 507 213 520 c 0,14,15
 215 528 215 528 222.5 534 c 128,-1,16
 230 540 230 540 238 540 c 0,17,18
 243 540 243 540 254 533 c 2,19,-1
 743 272 l 2,20,0
 760 263 760 263 757 250 c 128,-1,1
EndSplineSet
EndChar

StartChar: question
Encoding: 63 63 34
Width: 511
GlyphClass: 2
Flags: W
LayerCount: 2
Fore
SplineSet
551 592 m 0,0,1
 551 558 551 558 540.5 528.5 c 128,-1,2
 530 499 530 499 510 475.5 c 128,-1,3
 490 452 490 452 476.5 439 c 128,-1,4
 463 426 463 426 441 409 c 2,5,-1
 363 346 l 2,6,7
 310 305 310 305 295.5 287.5 c 128,-1,8
 281 270 281 270 281 243 c 0,9,10
 281 209 281 209 306 209 c 0,11,12
 330 209 330 209 353 228 c 128,-1,13
 376 247 376 247 386 277 c 0,14,15
 389 287 389 287 391.5 289.5 c 128,-1,16
 394 292 394 292 403 292 c 0,17,18
 418 292 418 292 418 282 c 0,19,20
 418 258 418 258 384.5 222.5 c 128,-1,21
 351 187 351 187 306 187 c 0,22,23
 277 187 277 187 261.5 208 c 128,-1,24
 246 229 246 229 246 257 c 0,25,26
 246 286 246 286 260 312 c 128,-1,27
 274 338 274 338 284 348 c 128,-1,28
 294 358 294 358 315 375 c 2,29,-1
 436 470 l 2,30,31
 458 489 458 489 471 501.5 c 128,-1,32
 484 514 484 514 500 543.5 c 128,-1,33
 516 573 516 573 516 606 c 0,34,35
 516 648 516 648 491.5 671 c 128,-1,36
 467 694 467 694 431 694 c 0,37,38
 372 694 372 694 319.5 642 c 128,-1,39
 267 590 267 590 239 512 c 1,40,41
 277 512 277 512 277 480 c 0,42,43
 277 460 277 460 262.5 445.5 c 128,-1,44
 248 431 248 431 228 431 c 0,45,46
 194 431 194 431 194 463 c 0,47,48
 194 477 194 477 203.5 505.5 c 128,-1,49
 213 534 213 534 233.5 570.5 c 128,-1,50
 254 607 254 607 281 639.5 c 128,-1,51
 308 672 308 672 348 694 c 128,-1,52
 388 716 388 716 431 716 c 0,53,54
 485 716 485 716 518 681 c 128,-1,55
 551 646 551 646 551 592 c 0,0,1
324 63 m 0,56,57
 324 39 324 39 304 19.5 c 128,-1,58
 284 0 284 0 259 0 c 0,59,60
 240 0 240 0 227.5 12 c 128,-1,61
 215 24 215 24 215 43 c 0,62,63
 215 68 215 68 235 87 c 128,-1,64
 255 106 255 106 279 106 c 0,65,66
 300 106 300 106 312 93 c 128,-1,67
 324 80 324 80 324 63 c 0,56,57
EndSplineSet
EndChar

StartChar: at
Encoding: 64 64 35
Width: 767
GlyphClass: 2
Flags: W
LayerCount: 2
Fore
SplineSet
706 68 m 0,0,1
 706 58 706 58 649 38.5 c 128,-1,2
 592 19 592 19 558 11 c 0,3,4
 471 -11 471 -11 388 -11 c 0,5,6
 275 -11 275 -11 213 64.5 c 128,-1,7
 151 140 151 140 151 248 c 0,8,9
 151 333 151 333 186.5 417 c 128,-1,10
 222 501 222 501 278.5 564 c 128,-1,11
 335 627 335 627 409 666 c 128,-1,12
 483 705 483 705 557 705 c 0,13,14
 656 705 656 705 722.5 635 c 128,-1,15
 789 565 789 565 789 445 c 0,16,17
 789 370 789 370 746 241 c 0,18,19
 705 128 705 128 628 128 c 0,20,21
 614 128 614 128 599.5 132 c 128,-1,22
 585 136 585 136 569.5 151.5 c 128,-1,23
 554 167 554 167 553 193 c 1,24,25
 485 128 485 128 417 128 c 0,26,27
 358 128 358 128 318.5 171 c 128,-1,28
 279 214 279 214 279 286 c 0,29,30
 279 392 279 392 355.5 479 c 128,-1,31
 432 566 432 566 522 566 c 0,32,33
 601 566 601 566 635 481 c 1,34,-1
 661 481 l 2,35,36
 671 481 671 481 674.5 480.5 c 128,-1,37
 678 480 678 480 681 478 c 128,-1,38
 684 476 684 476 684 471 c 0,39,40
 683 461 683 461 682 458 c 2,41,-1
 617 195 l 2,42,43
 614 177 614 177 614 175 c 0,44,45
 614 150 614 150 632 150 c 0,46,47
 663 150 663 150 689 189 c 128,-1,48
 715 228 715 228 729.5 281.5 c 128,-1,49
 744 335 744 335 751.5 380.5 c 128,-1,50
 759 426 759 426 759 448 c 0,51,52
 759 550 759 550 703.5 616.5 c 128,-1,53
 648 683 648 683 556 683 c 0,54,55
 468 683 468 683 381 621.5 c 128,-1,56
 294 560 294 560 238 457.5 c 128,-1,57
 182 355 182 355 182 246 c 0,58,59
 182 145 182 145 236 78 c 128,-1,60
 290 11 290 11 389 11 c 0,61,62
 516 11 516 11 647 71 c 0,63,64
 663 78 663 78 681 78 c 0,65,66
 692 78 692 78 696.5 77.5 c 128,-1,67
 701 77 701 77 703.5 75 c 128,-1,68
 706 73 706 73 706 68 c 0,0,1
570 268 m 2,69,-1
 610 430 l 1,70,-1
 613 444 l 2,71,72
 613 452 613 452 609 466 c 128,-1,73
 605 480 605 480 596 498.5 c 128,-1,74
 587 517 587 517 567.5 530.5 c 128,-1,75
 548 544 548 544 522 544 c 0,76,77
 458 544 458 544 399 456 c 128,-1,78
 340 368 340 368 340 270 c 0,79,80
 340 226 340 226 359 188 c 128,-1,81
 378 150 378 150 420 150 c 0,82,83
 466 150 466 150 514 193 c 128,-1,84
 562 236 562 236 570 268 c 2,69,-1
EndSplineSet
EndChar

StartChar: A
Encoding: 65 65 36
Width: 743
GlyphClass: 2
Flags: W
LayerCount: 2
Fore
SplineSet
692 18 m 0,0,1
 692 0 692 0 674 0 c 0,2,3
 657 0 657 0 622 1.5 c 128,-1,4
 587 3 587 3 569 3 c 0,5,6
 550 3 550 3 511 1.5 c 128,-1,7
 472 0 472 0 454 0 c 0,8,9
 439 0 439 0 439 12 c 0,10,11
 439 31 439 31 462 31 c 0,12,13
 529 31 529 31 529 63 c 2,14,-1
 518 229 l 1,15,-1
 290 229 l 1,16,-1
 218 103 l 2,17,18
 204 77 204 77 204 65 c 0,19,20
 204 38 204 38 246 31 c 0,21,22
 262 29 262 29 262 19 c 0,23,24
 262 0 262 0 244 0 c 0,25,26
 229 0 229 0 198 1.5 c 128,-1,27
 167 3 167 3 151 3 c 0,28,29
 138 3 138 3 110.5 1.5 c 128,-1,30
 83 0 83 0 71 0 c 128,-1,31
 59 0 59 0 59 12 c 0,32,33
 60 30 60 30 71 31 c 0,34,35
 88 32 88 32 99.5 34.5 c 128,-1,36
 111 37 111 37 128 44 c 128,-1,37
 145 51 145 51 161 68.5 c 128,-1,38
 177 86 177 86 192 113 c 2,39,-1
 524 698 l 2,40,41
 534 716 534 716 550 716 c 0,42,43
 562 716 562 716 564.5 712 c 128,-1,44
 567 708 567 708 568 691 c 2,45,-1
 611 65 l 2,46,47
 613 44 613 44 622 37.5 c 128,-1,48
 631 31 631 31 668 31 c 0,49,50
 678 31 678 31 682 30.5 c 128,-1,51
 686 30 686 30 689 27 c 128,-1,52
 692 24 692 24 692 18 c 0,0,1
516 260 m 1,53,-1
 493 587 l 1,54,-1
 307 260 l 1,55,-1
 516 260 l 1,53,-1
EndSplineSet
Position2: "'cpsp' Capital Spacing lookup 0 subtable" dx=7 dy=0 dh=14 dv=0
EndChar

StartChar: B
Encoding: 66 66 37
Width: 704
GlyphClass: 2
Flags: W
LayerCount: 2
Fore
SplineSet
677 219 m 0,0,1
 677 138 677 138 600 69 c 128,-1,2
 523 0 523 0 420 0 c 2,3,-1
 90 0 l 2,4,5
 80 0 80 0 76 0.5 c 128,-1,6
 72 1 72 1 68.5 3.5 c 128,-1,7
 65 6 65 6 65 12 c 0,8,9
 65 25 65 25 71 28 c 128,-1,10
 77 31 77 31 92 31 c 0,11,12
 141 31 141 31 154.5 38.5 c 128,-1,13
 168 46 168 46 174 73 c 2,14,-1
 309 616 l 2,15,16
 313 630 313 630 313 635 c 0,17,18
 313 646 313 646 299 649 c 128,-1,19
 285 652 285 652 255 652 c 0,20,21
 244 652 244 652 239.5 652.5 c 128,-1,22
 235 653 235 653 231.5 655.5 c 128,-1,23
 228 658 228 658 228 664 c 0,24,25
 228 677 228 677 234 680 c 128,-1,26
 240 683 240 683 255 683 c 2,27,-1
 566 683 l 2,28,29
 644 683 644 683 689 643.5 c 128,-1,30
 734 604 734 604 734 547 c 0,31,32
 734 487 734 487 680 432 c 128,-1,33
 626 377 626 377 538 357 c 1,34,35
 597 350 597 350 637 314 c 128,-1,36
 677 278 677 278 677 219 c 0,0,1
646 553 m 0,37,38
 646 568 646 568 643 582 c 128,-1,39
 640 596 640 596 631 613.5 c 128,-1,40
 622 631 622 631 601.5 641.5 c 128,-1,41
 581 652 581 652 552 652 c 2,42,-1
 434 652 l 2,43,44
 408 652 408 652 399.5 647 c 128,-1,45
 391 642 391 642 385 616 c 2,46,-1
 323 366 l 1,47,-1
 455 366 l 2,48,49
 536 366 536 366 591 425.5 c 128,-1,50
 646 485 646 485 646 553 c 0,37,38
588 232 m 0,51,52
 588 247 588 247 585 261.5 c 128,-1,53
 582 276 582 276 573.5 297 c 128,-1,54
 565 318 565 318 543 331 c 128,-1,55
 521 344 521 344 489 344 c 2,56,-1
 317 344 l 1,57,-1
 247 63 l 2,58,59
 247 62 247 62 245 53.5 c 128,-1,60
 243 45 243 45 243 41 c 128,-1,61
 243 37 243 37 244 35 c 128,-1,62
 245 33 245 33 252 32 c 128,-1,63
 259 31 259 31 274 31 c 2,64,-1
 398 31 l 2,65,66
 477 31 477 31 532.5 93.5 c 128,-1,67
 588 156 588 156 588 232 c 0,51,52
EndSplineSet
Position2: "'cpsp' Capital Spacing lookup 0 subtable" dx=7 dy=0 dh=14 dv=0
EndChar

StartChar: C
Encoding: 67 67 38
Width: 716
GlyphClass: 2
Flags: W
LayerCount: 2
Fore
SplineSet
810 681 m 2,0,-1
 749 438 l 2,1,2
 746 426 746 426 743 423 c 128,-1,3
 740 420 740 420 731 420 c 0,4,5
 716 420 716 420 716 430 c 0,6,7
 716 431 716 431 717 441 c 128,-1,8
 718 451 718 451 719.5 465.5 c 128,-1,9
 721 480 721 480 721 491 c 0,10,11
 721 566 721 566 686.5 620 c 128,-1,12
 652 674 652 674 579 674 c 0,13,14
 519 674 519 674 455 638.5 c 128,-1,15
 391 603 391 603 342 536 c 0,16,17
 289 463 289 463 263 366 c 128,-1,18
 237 269 237 269 237 207 c 0,19,20
 237 108 237 108 287.5 58.5 c 128,-1,21
 338 9 338 9 409 9 c 0,22,23
 482 9 482 9 557.5 67.5 c 128,-1,24
 633 126 633 126 668 242 c 0,25,26
 671 250 671 250 684 250 c 0,27,28
 699 250 699 250 699 240 c 0,29,30
 699 219 699 219 678 178 c 128,-1,31
 657 137 657 137 621 91.5 c 128,-1,32
 585 46 585 46 524 12 c 128,-1,33
 463 -22 463 -22 395 -22 c 0,34,35
 289 -22 289 -22 219.5 51 c 128,-1,36
 150 124 150 124 150 245 c 0,37,38
 150 359 150 359 212 467 c 128,-1,39
 274 575 274 575 372 640 c 128,-1,40
 470 705 470 705 571 705 c 0,41,42
 669 705 669 705 722 620 c 1,43,-1
 785 694 l 2,44,45
 789 699 789 699 793 701.5 c 128,-1,46
 797 704 797 704 799 704 c 2,47,-1
 801 705 l 2,48,49
 805 705 805 705 808 702.5 c 128,-1,50
 811 700 811 700 812 698 c 2,51,-1
 812 695 l 2,52,53
 812 689 812 689 810 681 c 2,0,-1
EndSplineSet
Position2: "'cpsp' Capital Spacing lookup 0 subtable" dx=7 dy=0 dh=14 dv=0
EndChar

StartChar: D
Encoding: 68 68 39
Width: 755
GlyphClass: 2
Flags: W
LayerCount: 2
Fore
SplineSet
775 438 m 0,0,1
 775 328 775 328 720 226 c 128,-1,2
 665 124 665 124 576.5 62 c 128,-1,3
 488 0 488 0 395 0 c 2,4,-1
 88 0 l 2,5,6
 78 0 78 0 74 0.5 c 128,-1,7
 70 1 70 1 66.5 3.5 c 128,-1,8
 63 6 63 6 63 12 c 0,9,10
 63 25 63 25 69 28 c 128,-1,11
 75 31 75 31 90 31 c 0,12,13
 139 31 139 31 152.5 38.5 c 128,-1,14
 166 46 166 46 172 73 c 2,15,-1
 307 616 l 2,16,17
 311 630 311 630 311 635 c 0,18,19
 311 646 311 646 297 649 c 128,-1,20
 283 652 283 652 253 652 c 0,21,22
 242 652 242 652 237.5 652.5 c 128,-1,23
 233 653 233 653 229.5 655.5 c 128,-1,24
 226 658 226 658 226 664 c 0,25,26
 226 677 226 677 232 680 c 128,-1,27
 238 683 238 683 253 683 c 2,28,-1
 565 683 l 2,29,30
 661 683 661 683 718 615 c 128,-1,31
 775 547 775 547 775 438 c 0,0,1
692 476 m 0,32,33
 692 567 692 567 646 609.5 c 128,-1,34
 600 652 600 652 532 652 c 2,35,-1
 435 652 l 2,36,37
 409 652 409 652 400.5 646.5 c 128,-1,38
 392 641 392 641 386 616 c 2,39,-1
 248 63 l 2,40,41
 248 62 248 62 246 53.5 c 128,-1,42
 244 45 244 45 244 41 c 128,-1,43
 244 37 244 37 245 35 c 128,-1,44
 246 33 246 33 253 32 c 128,-1,45
 260 31 260 31 275 31 c 2,46,-1
 378 31 l 2,47,48
 493 31 493 31 578 130 c 0,49,50
 634 196 634 196 663 304 c 128,-1,51
 692 412 692 412 692 476 c 0,32,33
EndSplineSet
Position2: "'cpsp' Capital Spacing lookup 0 subtable" dx=7 dy=0 dh=14 dv=0
EndChar

StartChar: E
Encoding: 69 69 40
Width: 678
GlyphClass: 2
Flags: W
LayerCount: 2
Fore
SplineSet
687 247 m 0,0,1
 684 237 684 237 683 235 c 2,2,-1
 594 16 l 2,3,4
 589 5 589 5 585 2.5 c 128,-1,5
 581 0 581 0 566 0 c 2,6,-1
 87 0 l 2,7,8
 77 0 77 0 73 0.5 c 128,-1,9
 69 1 69 1 65.5 3.5 c 128,-1,10
 62 6 62 6 62 12 c 0,11,12
 62 25 62 25 68 28 c 128,-1,13
 74 31 74 31 89 31 c 0,14,15
 138 31 138 31 151.5 38.5 c 128,-1,16
 165 46 165 46 171 73 c 2,17,-1
 305 609 l 1,18,-1
 309 632 l 2,19,20
 309 638 309 638 307 641 c 128,-1,21
 305 644 305 644 291.5 646.5 c 128,-1,22
 278 649 278 649 251 649 c 0,23,24
 239 649 239 649 234.5 649.5 c 128,-1,25
 230 650 230 650 227 653 c 128,-1,26
 224 656 224 656 224 662 c 0,27,28
 224 674 224 674 230 677 c 128,-1,29
 236 680 236 680 251 680 c 2,30,-1
 718 680 l 2,31,32
 728 680 728 680 731 679.5 c 128,-1,33
 734 679 734 679 739 676.5 c 128,-1,34
 744 674 744 674 742.5 669 c 128,-1,35
 741 664 741 664 742 654 c 2,36,-1
 719 477 l 2,37,38
 718 467 718 467 717 463 c 128,-1,39
 716 459 716 459 712.5 457 c 128,-1,40
 709 455 709 455 702 455 c 0,41,42
 687 455 687 455 687 467 c 0,43,44
 687 474 687 474 689 484 c 0,45,46
 694 524 694 524 694 548 c 0,47,48
 694 604 694 604 666.5 626.5 c 128,-1,49
 639 649 639 649 561 649 c 2,50,-1
 436 649 l 2,51,52
 410 649 410 649 402 644 c 128,-1,53
 394 639 394 639 388 615 c 2,54,-1
 327 369 l 1,55,-1
 408 369 l 2,56,57
 467 369 467 369 489.5 388 c 128,-1,58
 512 407 512 407 527 462 c 0,59,60
 533 484 533 484 538 485 c 0,61,62
 541 486 541 486 546 486 c 0,63,64
 562 486 562 486 562 474 c 0,65,66
 560 464 560 464 559 461 c 2,67,-1
 504 241 l 2,68,69
 501 228 501 228 498 224.5 c 128,-1,70
 495 221 495 221 486 221 c 0,71,72
 470 221 470 221 470 233 c 2,73,-1
 472 244 l 2,74,75
 481 277 481 277 481 295 c 0,76,77
 481 318 481 318 467 328 c 128,-1,78
 453 338 453 338 406 338 c 2,79,-1
 319 338 l 1,80,-1
 250 63 l 2,81,82
 250 62 250 62 248 53.5 c 128,-1,83
 246 45 246 45 246 41 c 128,-1,84
 246 37 246 37 247 35 c 128,-1,85
 248 33 248 33 255 32 c 128,-1,86
 262 31 262 31 277 31 c 2,87,-1
 399 31 l 2,88,89
 446 31 446 31 481 40 c 128,-1,90
 516 49 516 49 539.5 62 c 128,-1,91
 563 75 563 75 583.5 103.5 c 128,-1,92
 604 132 604 132 617.5 159 c 128,-1,93
 631 186 631 186 651 234 c 0,94,95
 658 251 658 251 661 254.5 c 128,-1,96
 664 258 664 258 672 258 c 0,97,98
 687 258 687 258 687 247 c 0,0,1
EndSplineSet
Position2: "'cpsp' Capital Spacing lookup 0 subtable" dx=7 dy=0 dh=14 dv=0
EndChar

StartChar: F
Encoding: 70 70 41
Width: 653
GlyphClass: 2
Flags: W
LayerCount: 2
Fore
SplineSet
707 477 m 2,0,1
 706 467 706 467 705 463 c 128,-1,2
 704 459 704 459 700.5 457 c 128,-1,3
 697 455 697 455 690 455 c 0,4,5
 675 455 675 455 675 467 c 2,6,-1
 676 483 l 2,7,8
 682 529 682 529 682 549 c 0,9,10
 682 604 682 604 656 626.5 c 128,-1,11
 630 649 630 649 553 649 c 2,12,-1
 436 649 l 2,13,14
 410 649 410 649 402 644 c 128,-1,15
 394 639 394 639 388 615 c 2,16,-1
 324 356 l 1,17,-1
 402 356 l 2,18,19
 461 356 461 356 483 375.5 c 128,-1,20
 505 395 505 395 519 452 c 0,21,22
 523 466 523 466 526 469.5 c 128,-1,23
 529 473 529 473 538 473 c 0,24,25
 553 473 553 473 553 462 c 0,26,27
 553 456 553 456 551 448 c 2,28,-1
 496 228 l 2,29,30
 492 214 492 214 489 211 c 128,-1,31
 486 208 486 208 477 208 c 0,32,33
 462 208 462 208 462 220 c 0,34,35
 462 224 462 224 465 234 c 0,36,37
 473 266 473 266 473 283 c 0,38,39
 473 305 473 305 459 315 c 128,-1,40
 445 325 445 325 399 325 c 2,41,-1
 316 325 l 1,42,-1
 253 73 l 2,43,44
 249 58 249 58 249 52 c 0,45,46
 249 44 249 44 251.5 40.5 c 128,-1,47
 254 37 254 37 270.5 34 c 128,-1,48
 287 31 287 31 322 31 c 2,49,-1
 332 31 l 2,50,51
 342 31 342 31 346 30.5 c 128,-1,52
 350 30 350 30 353.5 27.5 c 128,-1,53
 357 25 357 25 357 19 c 0,54,55
 357 0 357 0 336 0 c 0,56,57
 314 0 314 0 267.5 1.5 c 128,-1,58
 221 3 221 3 198 3 c 0,59,60
 178 3 178 3 137 1.5 c 128,-1,61
 96 0 96 0 76 0 c 0,62,63
 62 0 62 0 62 12 c 0,64,65
 62 25 62 25 68 28 c 128,-1,66
 74 31 74 31 89 31 c 0,67,68
 138 31 138 31 151.5 38.5 c 128,-1,69
 165 46 165 46 171 73 c 2,70,-1
 305 609 l 1,71,-1
 309 632 l 2,72,73
 309 638 309 638 307 641 c 128,-1,74
 305 644 305 644 291.5 646.5 c 128,-1,75
 278 649 278 649 251 649 c 0,76,77
 239 649 239 649 234.5 649.5 c 128,-1,78
 230 650 230 650 227 653 c 128,-1,79
 224 656 224 656 224 662 c 0,80,81
 224 674 224 674 230 677 c 128,-1,82
 236 680 236 680 251 680 c 2,83,-1
 706 680 l 2,84,85
 716 680 716 680 719 679.5 c 128,-1,86
 722 679 722 679 727 676.5 c 128,-1,87
 732 674 732 674 730.5 669 c 128,-1,88
 729 664 729 664 730 654 c 2,89,-1
 707 477 l 2,0,1
EndSplineSet
Position2: "'cpsp' Capital Spacing lookup 0 subtable" dx=7 dy=0 dh=14 dv=0
EndChar

StartChar: G
Encoding: 71 71 42
Width: 774
GlyphClass: 2
Flags: W
LayerCount: 2
Fore
SplineSet
768 260 m 0,0,1
 768 248 768 248 762 245 c 128,-1,2
 756 242 756 242 744 242 c 0,3,4
 723 242 723 242 712 238 c 128,-1,5
 701 234 701 234 698.5 228.5 c 128,-1,6
 696 223 696 223 692 209 c 2,7,-1
 644 18 l 2,8,9
 639 1 639 1 632 1 c 0,10,11
 624 1 624 1 610.5 21 c 128,-1,12
 597 41 597 41 590 61 c 1,13,14
 565 29 565 29 512 3.5 c 128,-1,15
 459 -22 459 -22 396 -22 c 0,16,17
 288 -22 288 -22 219 51.5 c 128,-1,18
 150 125 150 125 150 245 c 0,19,20
 150 359 150 359 212 467 c 128,-1,21
 274 575 274 575 372 640 c 128,-1,22
 470 705 470 705 571 705 c 0,23,24
 669 705 669 705 722 620 c 1,25,-1
 785 694 l 2,26,27
 789 699 789 699 793 701.5 c 128,-1,28
 797 704 797 704 799 704 c 2,29,-1
 801 705 l 2,30,31
 805 705 805 705 808 702.5 c 128,-1,32
 811 700 811 700 812 698 c 2,33,-1
 812 695 l 2,34,35
 812 689 812 689 810 681 c 2,36,-1
 749 438 l 2,37,38
 746 426 746 426 743 423 c 128,-1,39
 740 420 740 420 731 420 c 0,40,41
 716 420 716 420 716 430 c 0,42,43
 716 431 716 431 717 441 c 128,-1,44
 718 451 718 451 719.5 465.5 c 128,-1,45
 721 480 721 480 721 491 c 0,46,47
 721 566 721 566 686.5 620 c 128,-1,48
 652 674 652 674 579 674 c 0,49,50
 519 674 519 674 455 638.5 c 128,-1,51
 391 603 391 603 342 536 c 0,52,53
 288 462 288 462 262.5 365.5 c 128,-1,54
 237 269 237 269 237 208 c 0,55,56
 237 113 237 113 287.5 61 c 128,-1,57
 338 9 338 9 414 9 c 0,58,59
 494 9 494 9 550 60 c 0,60,61
 572 80 572 80 579.5 98.5 c 128,-1,62
 587 117 587 117 604 188 c 0,63,64
 612 216 612 216 612 222 c 0,65,66
 612 229 612 229 608.5 232.5 c 128,-1,67
 605 236 605 236 600.5 237 c 128,-1,68
 596 238 596 238 583 240 c 0,69,70
 557 242 557 242 540 242 c 2,71,-1
 532 242 l 2,72,73
 506 242 506 242 506 253 c 0,74,75
 506 273 506 273 527 273 c 128,-1,76
 548 273 548 273 592 271.5 c 128,-1,77
 636 270 636 270 658 270 c 0,78,79
 674 270 674 270 707 271.5 c 128,-1,80
 740 273 740 273 755 273 c 0,81,82
 768 273 768 273 768 260 c 0,0,1
EndSplineSet
Position2: "'cpsp' Capital Spacing lookup 0 subtable" dx=7 dy=0 dh=14 dv=0
EndChar

StartChar: H
Encoding: 72 72 43
Width: 743
GlyphClass: 2
Flags: W
LayerCount: 2
Fore
SplineSet
689 18 m 0,0,1
 689 0 689 0 670 0 c 128,-1,2
 651 0 651 0 610.5 1.5 c 128,-1,3
 570 3 570 3 550 3 c 128,-1,4
 530 3 530 3 490.5 1.5 c 128,-1,5
 451 0 451 0 432 0 c 0,6,7
 418 0 418 0 418 12 c 0,8,9
 418 25 418 25 424 28 c 128,-1,10
 430 31 430 31 445 31 c 0,11,12
 494 31 494 31 507.5 38.5 c 128,-1,13
 521 46 521 46 527 73 c 2,14,-1
 593 340 l 1,15,-1
 319 340 l 1,16,-1
 252 68 l 2,17,18
 248 54 248 54 248 48 c 128,-1,19
 248 42 248 42 250 39 c 128,-1,20
 252 36 252 36 265.5 33.5 c 128,-1,21
 279 31 279 31 306 31 c 0,22,23
 318 31 318 31 322.5 30.5 c 128,-1,24
 327 30 327 30 330 27 c 128,-1,25
 333 24 333 24 333 18 c 0,26,27
 333 0 333 0 314 0 c 128,-1,28
 295 0 295 0 254.5 1.5 c 128,-1,29
 214 3 214 3 194 3 c 128,-1,30
 174 3 174 3 134.5 1.5 c 128,-1,31
 95 0 95 0 76 0 c 0,32,33
 62 0 62 0 62 12 c 0,34,35
 62 25 62 25 68 28 c 128,-1,36
 74 31 74 31 89 31 c 0,37,38
 138 31 138 31 151.5 38.5 c 128,-1,39
 165 46 165 46 171 73 c 2,40,-1
 306 616 l 2,41,42
 310 630 310 630 310 635 c 0,43,44
 310 646 310 646 296 649 c 128,-1,45
 282 652 282 652 252 652 c 0,46,47
 241 652 241 652 236.5 652.5 c 128,-1,48
 232 653 232 653 228.5 655.5 c 128,-1,49
 225 658 225 658 225 664 c 0,50,51
 225 683 225 683 244 683 c 128,-1,52
 263 683 263 683 303.5 681.5 c 128,-1,53
 344 680 344 680 364 680 c 128,-1,54
 384 680 384 680 423.5 681.5 c 128,-1,55
 463 683 463 683 482 683 c 0,56,57
 496 683 496 683 496 670 c 0,58,59
 496 658 496 658 490 655 c 128,-1,60
 484 652 484 652 466 652 c 0,61,62
 420 652 420 652 406.5 644.5 c 128,-1,63
 393 637 393 637 387 612 c 2,64,-1
 327 371 l 1,65,-1
 601 371 l 1,66,-1
 662 616 l 2,67,68
 666 630 666 630 666 635 c 0,69,70
 666 646 666 646 652 649 c 128,-1,71
 638 652 638 652 608 652 c 0,72,73
 597 652 597 652 592.5 652.5 c 128,-1,74
 588 653 588 653 584.5 655.5 c 128,-1,75
 581 658 581 658 581 664 c 0,76,77
 581 683 581 683 600 683 c 128,-1,78
 619 683 619 683 659.5 681.5 c 128,-1,79
 700 680 700 680 720 680 c 128,-1,80
 740 680 740 680 779.5 681.5 c 128,-1,81
 819 683 819 683 838 683 c 0,82,83
 852 683 852 683 852 670 c 0,84,85
 852 658 852 658 846 655 c 128,-1,86
 840 652 840 652 822 652 c 0,87,88
 776 652 776 652 762.5 644.5 c 128,-1,89
 749 637 749 637 743 612 c 2,90,-1
 608 71 l 1,91,-1
 604 48 l 2,92,93
 604 42 604 42 606 39 c 128,-1,94
 608 36 608 36 621.5 33.5 c 128,-1,95
 635 31 635 31 662 31 c 0,96,97
 674 31 674 31 678.5 30.5 c 128,-1,98
 683 30 683 30 686 27 c 128,-1,99
 689 24 689 24 689 18 c 0,0,1
EndSplineSet
Position2: "'cpsp' Capital Spacing lookup 0 subtable" dx=7 dy=0 dh=14 dv=0
EndChar

StartChar: I
Encoding: 73 73 44
Width: 386
GlyphClass: 2
Flags: W
LayerCount: 2
Fore
SplineSet
338 19 m 0,0,1
 338 0 338 0 318 0 c 128,-1,2
 298 0 298 0 256.5 1.5 c 128,-1,3
 215 3 215 3 194 3 c 128,-1,4
 173 3 173 3 132 1.5 c 128,-1,5
 91 0 91 0 71 0 c 0,6,7
 57 0 57 0 57 13 c 0,8,9
 57 25 57 25 63 28 c 128,-1,10
 69 31 69 31 87 31 c 0,11,12
 136 31 136 31 150.5 38.5 c 128,-1,13
 165 46 165 46 171 72 c 2,14,-1
 307 616 l 2,15,16
 310 625 310 625 310 635 c 0,17,18
 310 646 310 646 295 649 c 128,-1,19
 280 652 280 652 247 652 c 0,20,21
 235 652 235 652 230.5 652.5 c 128,-1,22
 226 653 226 653 223 656 c 128,-1,23
 220 659 220 659 220 665 c 0,24,25
 220 683 220 683 239 683 c 0,26,27
 260 683 260 683 302 681.5 c 128,-1,28
 344 680 344 680 364 680 c 0,29,30
 385 680 385 680 426 681.5 c 128,-1,31
 467 683 467 683 487 683 c 0,32,33
 501 683 501 683 501 671 c 0,34,35
 501 658 501 658 494.5 655 c 128,-1,36
 488 652 488 652 470 652 c 0,37,38
 421 652 421 652 407 644.5 c 128,-1,39
 393 637 393 637 387 611 c 2,40,-1
 252 71 l 1,41,-1
 248 49 l 2,42,43
 248 42 248 42 250 39 c 128,-1,44
 252 36 252 36 266.5 33.5 c 128,-1,45
 281 31 281 31 310 31 c 0,46,47
 322 31 322 31 326.5 30.5 c 128,-1,48
 331 30 331 30 334.5 27.5 c 128,-1,49
 338 25 338 25 338 19 c 0,0,1
EndSplineSet
Position2: "'cpsp' Capital Spacing lookup 0 subtable" dx=7 dy=0 dh=14 dv=0
EndChar

StartChar: J
Encoding: 74 74 45
Width: 525
GlyphClass: 2
Flags: W
LayerCount: 2
Fore
SplineSet
622 671 m 0,0,1
 622 658 622 658 616 655 c 128,-1,2
 610 652 610 652 596 652 c 0,3,4
 564 652 564 652 553 645 c 128,-1,5
 542 638 542 638 537 616 c 2,6,-1
 420 144 l 2,7,8
 403 75 403 75 342.5 26.5 c 128,-1,9
 282 -22 282 -22 212 -22 c 0,10,11
 162 -22 162 -22 128 7.5 c 128,-1,12
 94 37 94 37 94 86 c 0,13,14
 94 108 94 108 100.5 123.5 c 128,-1,15
 107 139 107 139 115 146.5 c 128,-1,16
 123 154 123 154 133.5 158 c 128,-1,17
 144 162 144 162 148.5 162.5 c 128,-1,18
 153 163 153 163 156 163 c 0,19,20
 173 163 173 163 185 152.5 c 128,-1,21
 197 142 197 142 197 124 c 0,22,23
 197 103 197 103 180.5 84 c 128,-1,24
 164 65 164 65 137 65 c 0,25,26
 128 65 128 65 126 66 c 1,27,28
 132 36 132 36 155.5 18 c 128,-1,29
 179 0 179 0 210 0 c 0,30,31
 250 0 250 0 288 43.5 c 128,-1,32
 326 87 326 87 341 145 c 2,33,-1
 457 611 l 2,34,35
 461 625 461 625 461 631 c 0,36,37
 461 641 461 641 455.5 644 c 128,-1,38
 450 647 450 647 431 650 c 0,39,40
 413 652 413 652 385 652 c 2,41,-1
 373 652 l 2,42,43
 363 652 363 652 359 652.5 c 128,-1,44
 355 653 355 653 351.5 655.5 c 128,-1,45
 348 658 348 658 348 664 c 0,46,47
 348 683 348 683 369 683 c 0,48,49
 391 683 391 683 436.5 681.5 c 128,-1,50
 482 680 482 680 505 680 c 0,51,52
 522 680 522 680 557 681.5 c 128,-1,53
 592 683 592 683 608 683 c 0,54,55
 622 683 622 683 622 671 c 0,0,1
EndSplineSet
Position2: "'cpsp' Capital Spacing lookup 0 subtable" dx=7 dy=0 dh=14 dv=0
EndChar

StartChar: K
Encoding: 75 75 46
Width: 769
GlyphClass: 2
Flags: W
LayerCount: 2
Fore
SplineSet
709 19 m 0,0,1
 709 0 709 0 692 0 c 0,2,3
 678 0 678 0 647 1.5 c 128,-1,4
 616 3 616 3 601 3 c 0,5,6
 582 3 582 3 544.5 1.5 c 128,-1,7
 507 0 507 0 489 0 c 0,8,9
 475 0 475 0 475 13 c 0,10,11
 475 31 475 31 494 31 c 0,12,13
 545 31 545 31 545 64 c 0,14,15
 545 69 545 69 539 84 c 2,16,-1
 435 363 l 1,17,-1
 296 248 l 1,18,-1
 261 104 l 2,19,20
 248 57 248 57 248 48 c 0,21,22
 248 42 248 42 250 39 c 128,-1,23
 252 36 252 36 265.5 33.5 c 128,-1,24
 279 31 279 31 306 31 c 0,25,26
 318 31 318 31 322.5 30.5 c 128,-1,27
 327 30 327 30 330 27 c 128,-1,28
 333 24 333 24 333 18 c 0,29,30
 333 0 333 0 314 0 c 128,-1,31
 295 0 295 0 254.5 1.5 c 128,-1,32
 214 3 214 3 194 3 c 128,-1,33
 174 3 174 3 134.5 1.5 c 128,-1,34
 95 0 95 0 76 0 c 0,35,36
 62 0 62 0 62 12 c 0,37,38
 62 25 62 25 68 28 c 128,-1,39
 74 31 74 31 89 31 c 0,40,41
 138 31 138 31 151.5 38.5 c 128,-1,42
 165 46 165 46 171 73 c 2,43,-1
 306 616 l 2,44,45
 310 630 310 630 310 635 c 0,46,47
 310 646 310 646 296 649 c 128,-1,48
 282 652 282 652 252 652 c 0,49,50
 241 652 241 652 236.5 652.5 c 128,-1,51
 232 653 232 653 228.5 655.5 c 128,-1,52
 225 658 225 658 225 664 c 0,53,54
 225 683 225 683 244 683 c 128,-1,55
 263 683 263 683 303.5 681.5 c 128,-1,56
 344 680 344 680 364 680 c 128,-1,57
 384 680 384 680 423.5 681.5 c 128,-1,58
 463 683 463 683 482 683 c 0,59,60
 496 683 496 683 496 670 c 0,61,62
 496 658 496 658 490 655 c 128,-1,63
 484 652 484 652 466 652 c 0,64,65
 420 652 420 652 406.5 644.5 c 128,-1,66
 393 637 393 637 387 612 c 2,67,-1
 308 293 l 1,68,-1
 660 586 l 2,69,70
 693 613 693 613 693 632 c 0,71,72
 693 650 693 650 667 652 c 0,73,74
 653 652 653 652 653 664 c 0,75,76
 653 683 653 683 672 683 c 0,77,78
 689 683 689 683 725 681.5 c 128,-1,79
 761 680 761 680 779 680 c 0,80,81
 791 680 791 680 814.5 681.5 c 128,-1,82
 838 683 838 683 848 683 c 0,83,84
 859 683 859 683 859 671 c 0,85,86
 859 654 859 654 841 652 c 0,87,88
 776 646 776 646 684 570 c 2,89,-1
 500 417 l 1,90,-1
 631 70 l 2,91,92
 640 47 640 47 652 39.5 c 128,-1,93
 664 32 664 32 691 31 c 0,94,95
 709 31 709 31 709 19 c 0,0,1
EndSplineSet
Position2: "'cpsp' Capital Spacing lookup 0 subtable" dx=7 dy=0 dh=14 dv=0
EndChar

StartChar: L
Encoding: 76 76 47
Width: 627
GlyphClass: 2
Flags: W
LayerCount: 2
Fore
SplineSet
624 246 m 2,0,-1
 620 233 l 1,1,-1
 544 18 l 2,2,3
 539 5 539 5 535 2.5 c 128,-1,4
 531 0 531 0 515 0 c 2,5,-1
 87 0 l 2,6,7
 77 0 77 0 73 0.5 c 128,-1,8
 69 1 69 1 65.5 3.5 c 128,-1,9
 62 6 62 6 62 12 c 0,10,11
 62 25 62 25 68 28 c 128,-1,12
 74 31 74 31 89 31 c 0,13,14
 138 31 138 31 151.5 38.5 c 128,-1,15
 165 46 165 46 171 73 c 2,16,-1
 306 616 l 2,17,18
 310 630 310 630 310 635 c 0,19,20
 310 646 310 646 296 649 c 128,-1,21
 282 652 282 652 252 652 c 0,22,23
 241 652 241 652 236.5 652.5 c 128,-1,24
 232 653 232 653 228.5 655.5 c 128,-1,25
 225 658 225 658 225 664 c 0,26,27
 225 683 225 683 244 683 c 0,28,29
 264 683 264 683 305 681.5 c 128,-1,30
 346 680 346 680 367 680 c 0,31,32
 390 680 390 680 436.5 681.5 c 128,-1,33
 483 683 483 683 505 683 c 0,34,35
 520 683 520 683 520 671 c 0,36,37
 520 658 520 658 514 655 c 128,-1,38
 508 652 508 652 492 652 c 2,39,-1
 482 652 l 2,40,41
 424 652 424 652 408.5 643.5 c 128,-1,42
 393 635 393 635 386 607 c 2,43,-1
 250 63 l 2,44,45
 250 62 250 62 248 53.5 c 128,-1,46
 246 45 246 45 246 41 c 128,-1,47
 246 37 246 37 247 35 c 128,-1,48
 248 33 248 33 255 32 c 128,-1,49
 262 31 262 31 277 31 c 2,50,-1
 358 31 l 2,51,52
 403 31 403 31 439 45 c 128,-1,53
 475 59 475 59 497 76.5 c 128,-1,54
 519 94 519 94 539 126.5 c 128,-1,55
 559 159 559 159 567.5 179.5 c 128,-1,56
 576 200 576 200 589 236 c 0,57,58
 595 251 595 251 597.5 254.5 c 128,-1,59
 600 258 600 258 609 258 c 0,60,61
 624 258 624 258 624 246 c 2,0,-1
EndSplineSet
Position2: "'cpsp' Capital Spacing lookup 0 subtable" dx=7 dy=0 dh=14 dv=0
EndChar

StartChar: M
Encoding: 77 77 48
Width: 897
GlyphClass: 2
Flags: W
LayerCount: 2
Fore
SplineSet
839 18 m 0,0,1
 839 0 839 0 820 0 c 0,2,3
 802 0 802 0 762.5 1.5 c 128,-1,4
 723 3 723 3 704 3 c 128,-1,5
 685 3 685 3 646.5 1.5 c 128,-1,6
 608 0 608 0 590 0 c 0,7,8
 576 0 576 0 576 12 c 0,9,10
 576 25 576 25 582 28 c 128,-1,11
 588 31 588 31 603 31 c 0,12,13
 652 31 652 31 665.5 38.5 c 128,-1,14
 679 46 679 46 685 73 c 2,15,-1
 826 639 l 1,16,-1
 825 639 l 1,17,-1
 452 18 l 2,18,19
 442 0 442 0 428 0 c 0,20,21
 421 0 421 0 417.5 3 c 128,-1,22
 414 6 414 6 413 9.5 c 128,-1,23
 412 13 412 13 411 24 c 2,24,-1
 350 630 l 1,25,-1
 349 630 l 1,26,-1
 216 99 l 2,27,28
 212 83 212 83 212 74 c 0,29,30
 212 66 212 66 213.5 60.5 c 128,-1,31
 215 55 215 55 220 48 c 128,-1,32
 225 41 225 41 238 36.5 c 128,-1,33
 251 32 251 32 271 31 c 0,34,35
 290 31 290 31 290 18 c 0,36,37
 290 0 290 0 272 0 c 0,38,39
 257 0 257 0 223.5 1.5 c 128,-1,40
 190 3 190 3 174 3 c 128,-1,41
 158 3 158 3 126 1.5 c 128,-1,42
 94 0 94 0 79 0 c 0,43,44
 66 0 66 0 66 12 c 0,45,46
 66 31 66 31 85 31 c 0,47,48
 124 33 124 33 148 47.5 c 128,-1,49
 172 62 172 62 182 101 c 2,50,-1
 310 616 l 2,51,52
 314 630 314 630 314 635 c 0,53,54
 314 646 314 646 300 649 c 128,-1,55
 286 652 286 652 256 652 c 0,56,57
 245 652 245 652 240.5 652.5 c 128,-1,58
 236 653 236 653 232.5 655.5 c 128,-1,59
 229 658 229 658 229 664 c 0,60,61
 229 677 229 677 235 680 c 128,-1,62
 241 683 241 683 256 683 c 2,63,-1
 389 683 l 2,64,65
 408 683 408 683 412 680 c 128,-1,66
 416 677 416 677 417 661 c 2,67,-1
 473 100 l 1,68,-1
 813 665 l 2,69,70
 821 678 821 678 826.5 680.5 c 128,-1,71
 832 683 832 683 849 683 c 2,72,-1
 977 683 l 2,73,74
 987 683 987 683 991.5 682.5 c 128,-1,75
 996 682 996 682 999 679 c 128,-1,76
 1002 676 1002 676 1002 670 c 0,77,78
 1002 658 1002 658 996 655 c 128,-1,79
 990 652 990 652 972 652 c 0,80,81
 926 652 926 652 912.5 644.5 c 128,-1,82
 899 637 899 637 893 612 c 2,83,-1
 758 71 l 1,84,-1
 754 48 l 2,85,86
 754 42 754 42 756 39 c 128,-1,87
 758 36 758 36 771.5 33.5 c 128,-1,88
 785 31 785 31 812 31 c 0,89,90
 824 31 824 31 828.5 30.5 c 128,-1,91
 833 30 833 30 836 27 c 128,-1,92
 839 24 839 24 839 18 c 0,0,1
EndSplineSet
Position2: "'cpsp' Capital Spacing lookup 0 subtable" dx=7 dy=0 dh=14 dv=0
EndChar

StartChar: N
Encoding: 78 78 49
Width: 743
GlyphClass: 2
Flags: W
LayerCount: 2
Fore
SplineSet
852 670 m 0,0,1
 852 652 852 652 837 652 c 0,2,3
 752 649 752 649 736 584 c 2,4,-1
 596 20 l 2,5,6
 592 7 592 7 588.5 3.5 c 128,-1,7
 585 0 585 0 576 0 c 0,8,9
 566 0 566 0 563 2.5 c 128,-1,10
 560 5 560 5 556 17 c 2,11,-1
 341 614 l 1,12,-1
 212 99 l 2,13,14
 208 83 208 83 208 74 c 0,15,16
 208 66 208 66 209.5 60.5 c 128,-1,17
 211 55 211 55 216 48 c 128,-1,18
 221 41 221 41 234 36.5 c 128,-1,19
 247 32 247 32 267 31 c 0,20,21
 286 31 286 31 286 18 c 0,22,23
 286 0 286 0 268 0 c 0,24,25
 253 0 253 0 219.5 1.5 c 128,-1,26
 186 3 186 3 170 3 c 128,-1,27
 154 3 154 3 122 1.5 c 128,-1,28
 90 0 90 0 75 0 c 0,29,30
 62 0 62 0 62 12 c 0,31,32
 62 31 62 31 81 31 c 0,33,34
 161 34 161 34 178 101 c 2,35,-1
 310 631 l 1,36,-1
 313 644 l 2,37,38
 313 652 313 652 252 652 c 0,39,40
 241 652 241 652 236.5 652.5 c 128,-1,41
 232 653 232 653 228.5 655.5 c 128,-1,42
 225 658 225 658 225 664 c 0,43,44
 225 677 225 677 231 680 c 128,-1,45
 237 683 237 683 252 683 c 2,46,-1
 377 683 l 2,47,48
 393 683 393 683 396.5 680.5 c 128,-1,49
 400 678 400 678 405 666 c 2,50,-1
 592 146 l 1,51,-1
 702 585 l 2,52,53
 706 601 706 601 706 609 c 0,54,55
 706 650 706 650 646 652 c 0,56,57
 628 652 628 652 628 664 c 0,58,59
 628 683 628 683 646 683 c 0,60,61
 661 683 661 683 694 681.5 c 128,-1,62
 727 680 727 680 743 680 c 128,-1,63
 759 680 759 680 791.5 681.5 c 128,-1,64
 824 683 824 683 839 683 c 0,65,66
 852 683 852 683 852 670 c 0,0,1
EndSplineSet
Position2: "'cpsp' Capital Spacing lookup 0 subtable" dx=7 dy=0 dh=14 dv=0
EndChar

StartChar: O
Encoding: 79 79 50
Width: 767
GlyphClass: 2
Flags: W
LayerCount: 2
Fore
SplineSet
788 444 m 0,0,1
 788 327 788 327 727.5 218 c 128,-1,2
 667 109 667 109 572 43.5 c 128,-1,3
 477 -22 477 -22 378 -22 c 0,4,5
 276 -22 276 -22 212 50 c 128,-1,6
 148 122 148 122 148 236 c 0,7,8
 148 349 148 349 207.5 458.5 c 128,-1,9
 267 568 267 568 363.5 636.5 c 128,-1,10
 460 705 460 705 560 705 c 0,11,12
 658 705 658 705 723 634.5 c 128,-1,13
 788 564 788 564 788 444 c 0,0,1
703 486 m 0,14,15
 703 581 703 581 659.5 630.5 c 128,-1,16
 616 680 616 680 553 680 c 0,17,18
 489 680 489 680 426 633 c 128,-1,19
 363 586 363 586 322 513 c 0,20,21
 276 433 276 433 257 345.5 c 128,-1,22
 238 258 238 258 238 205 c 0,23,24
 238 115 238 115 277.5 59.5 c 128,-1,25
 317 4 317 4 385 4 c 0,26,27
 443 4 443 4 505 48.5 c 128,-1,28
 567 93 567 93 614 174 c 0,29,30
 653 241 653 241 678 330 c 128,-1,31
 703 419 703 419 703 486 c 0,14,15
EndSplineSet
Position2: "'cpsp' Capital Spacing lookup 0 subtable" dx=7 dy=0 dh=14 dv=0
EndChar

StartChar: P
Encoding: 80 80 51
Width: 678
GlyphClass: 2
Flags: W
LayerCount: 2
Fore
SplineSet
730 535 m 0,0,1
 730 449 730 449 648 382.5 c 128,-1,2
 566 316 566 316 469 316 c 2,3,-1
 314 316 l 1,4,-1
 253 68 l 2,5,6
 249 54 249 54 249 48 c 128,-1,7
 249 42 249 42 251 39 c 128,-1,8
 253 36 253 36 266.5 33.5 c 128,-1,9
 280 31 280 31 307 31 c 0,10,11
 319 31 319 31 323.5 30.5 c 128,-1,12
 328 30 328 30 331 27 c 128,-1,13
 334 24 334 24 334 18 c 0,14,15
 334 0 334 0 315 0 c 128,-1,16
 296 0 296 0 255.5 1.5 c 128,-1,17
 215 3 215 3 195 3 c 128,-1,18
 175 3 175 3 135.5 1.5 c 128,-1,19
 96 0 96 0 77 0 c 0,20,21
 63 0 63 0 63 12 c 0,22,23
 63 25 63 25 69 28 c 128,-1,24
 75 31 75 31 90 31 c 0,25,26
 139 31 139 31 152.5 38.5 c 128,-1,27
 166 46 166 46 172 73 c 2,28,-1
 307 616 l 2,29,30
 311 630 311 630 311 635 c 0,31,32
 311 646 311 646 297 649 c 128,-1,33
 283 652 283 652 253 652 c 0,34,35
 242 652 242 652 237.5 652.5 c 128,-1,36
 233 653 233 653 229.5 655.5 c 128,-1,37
 226 658 226 658 226 664 c 0,38,39
 226 677 226 677 232 680 c 128,-1,40
 238 683 238 683 253 683 c 2,41,-1
 553 683 l 2,42,43
 633 683 633 683 681.5 641 c 128,-1,44
 730 599 730 599 730 535 c 0,0,1
642 562 m 0,45,46
 642 608 642 608 609.5 630 c 128,-1,47
 577 652 577 652 521 652 c 2,48,-1
 435 652 l 2,49,50
 408 652 408 652 400 647 c 128,-1,51
 392 642 392 642 386 616 c 2,52,-1
 318 342 l 1,53,-1
 444 342 l 2,54,55
 537 342 537 342 589 400 c 0,56,57
 614 429 614 429 628 483 c 128,-1,58
 642 537 642 537 642 562 c 0,45,46
EndSplineSet
Position2: "'cpsp' Capital Spacing lookup 0 subtable" dx=7 dy=0 dh=14 dv=0
EndChar

StartChar: Q
Encoding: 81 81 52
Width: 767
GlyphClass: 2
Flags: W
LayerCount: 2
Fore
SplineSet
695 -1 m 0,0,1
 694 -5 694 -5 692.5 -12 c 128,-1,2
 691 -19 691 -19 684.5 -39 c 128,-1,3
 678 -59 678 -59 670 -77 c 128,-1,4
 662 -95 662 -95 648.5 -117.5 c 128,-1,5
 635 -140 635 -140 620 -156 c 128,-1,6
 605 -172 605 -172 583.5 -183 c 128,-1,7
 562 -194 562 -194 538 -194 c 0,8,9
 459 -194 459 -194 459 -102 c 0,10,11
 459 -72 459 -72 469 -7 c 1,12,13
 424 -22 424 -22 378 -22 c 0,14,15
 276 -22 276 -22 212 50 c 128,-1,16
 148 122 148 122 148 236 c 0,17,18
 148 349 148 349 207.5 458.5 c 128,-1,19
 267 568 267 568 363.5 636.5 c 128,-1,20
 460 705 460 705 560 705 c 0,21,22
 658 705 658 705 723 634.5 c 128,-1,23
 788 564 788 564 788 444 c 0,24,25
 788 309 788 309 706.5 184.5 c 128,-1,26
 625 60 625 60 502 6 c 1,27,28
 503 -57 503 -57 518 -78.5 c 128,-1,29
 533 -100 533 -100 562 -100 c 0,30,31
 593 -100 593 -100 624.5 -75.5 c 128,-1,32
 656 -51 656 -51 672 -2 c 0,33,34
 676 11 676 11 684 11 c 0,35,36
 695 11 695 11 695 -1 c 0,0,1
704 480 m 0,37,38
 704 570 704 570 663 625 c 128,-1,39
 622 680 622 680 553 680 c 0,40,41
 497 680 497 680 437.5 640.5 c 128,-1,42
 378 601 378 601 333 532 c 0,43,44
 283 455 283 455 258 359.5 c 128,-1,45
 233 264 233 264 233 202 c 0,46,47
 233 141 233 141 255.5 89.5 c 128,-1,48
 278 38 278 38 327 15 c 1,49,50
 322 28 322 28 322 43 c 0,51,52
 322 81 322 81 350.5 114.5 c 128,-1,53
 379 148 379 148 419 148 c 0,54,55
 492 148 492 148 499 42 c 1,56,57
 555 78 555 78 598 140 c 128,-1,58
 641 202 641 202 662.5 267.5 c 128,-1,59
 684 333 684 333 694 387 c 128,-1,60
 704 441 704 441 704 480 c 0,37,38
473 26 m 1,61,62
 474 34 474 34 474 54 c 128,-1,63
 474 74 474 74 472.5 86 c 128,-1,64
 471 98 471 98 458 112 c 128,-1,65
 445 126 445 126 420 126 c 0,66,67
 389 126 389 126 366.5 99 c 128,-1,68
 344 72 344 72 344 43 c 0,69,70
 344 3 344 3 385 3 c 0,71,72
 427 3 427 3 473 26 c 1,61,62
EndSplineSet
Position2: "'cpsp' Capital Spacing lookup 0 subtable" dx=7 dy=0 dh=14 dv=0
EndChar

StartChar: R
Encoding: 82 82 53
Width: 729
GlyphClass: 2
Flags: W
LayerCount: 2
Fore
SplineSet
723 92 m 0,0,1
 723 83 723 83 713 58.5 c 128,-1,2
 703 34 703 34 675 6 c 128,-1,3
 647 -22 647 -22 609 -22 c 0,4,5
 557 -22 557 -22 521 5 c 128,-1,6
 485 32 485 32 485 84 c 0,7,8
 485 100 485 100 500 164 c 0,9,10
 517 232 517 232 517 243 c 0,11,12
 517 292 517 292 489.5 311.5 c 128,-1,13
 462 331 462 331 423 331 c 2,14,-1
 315 331 l 1,15,-1
 250 68 l 2,16,17
 246 54 246 54 246 48 c 128,-1,18
 246 42 246 42 248 39 c 128,-1,19
 250 36 250 36 263.5 33.5 c 128,-1,20
 277 31 277 31 304 31 c 0,21,22
 316 31 316 31 320.5 30.5 c 128,-1,23
 325 30 325 30 328 27 c 128,-1,24
 331 24 331 24 331 18 c 0,25,26
 331 0 331 0 312 0 c 0,27,28
 292 0 292 0 252 1.5 c 128,-1,29
 212 3 212 3 193 3 c 128,-1,30
 174 3 174 3 135 1.5 c 128,-1,31
 96 0 96 0 77 0 c 0,32,33
 63 0 63 0 63 12 c 0,34,35
 63 25 63 25 69 28 c 128,-1,36
 75 31 75 31 90 31 c 0,37,38
 139 31 139 31 152.5 38.5 c 128,-1,39
 166 46 166 46 172 73 c 2,40,-1
 307 616 l 2,41,42
 311 630 311 630 311 635 c 0,43,44
 311 646 311 646 297 649 c 128,-1,45
 283 652 283 652 253 652 c 0,46,47
 242 652 242 652 237.5 652.5 c 128,-1,48
 233 653 233 653 229.5 655.5 c 128,-1,49
 226 658 226 658 226 664 c 0,50,51
 226 677 226 677 232 680 c 128,-1,52
 238 683 238 683 253 683 c 2,53,-1
 517 683 l 2,54,55
 608 683 608 683 663 640 c 128,-1,56
 718 597 718 597 718 535 c 0,57,58
 718 476 718 476 663.5 420.5 c 128,-1,59
 609 365 609 365 508 339 c 1,60,61
 547 325 547 325 570.5 294.5 c 128,-1,62
 594 264 594 264 594 223 c 0,63,64
 594 196 594 196 586 135 c 0,65,66
 580 83 580 83 580 59 c 0,67,68
 580 40 580 40 582 29 c 128,-1,69
 584 18 584 18 591.5 9 c 128,-1,70
 599 0 599 0 613 0 c 0,71,72
 637 0 637 0 657.5 23.5 c 128,-1,73
 678 47 678 47 691 88 c 0,74,75
 693 95 693 95 694 98 c 128,-1,76
 695 101 695 101 698.5 103 c 128,-1,77
 702 105 702 105 708 105 c 0,78,79
 723 105 723 105 723 92 c 0,0,1
628 558 m 0,80,81
 628 585 628 585 616.5 604 c 128,-1,82
 605 623 605 623 590.5 632 c 128,-1,83
 576 641 576 641 550 646 c 128,-1,84
 524 651 524 651 508.5 651.5 c 128,-1,85
 493 652 493 652 466 652 c 0,86,87
 415 652 415 652 408 650 c 0,88,89
 393 646 393 646 386 616 c 2,90,-1
 321 353 l 1,91,-1
 422 353 l 2,92,93
 516 353 516 353 570 405 c 0,94,95
 594 429 594 429 608.5 468 c 128,-1,96
 623 507 623 507 625.5 527 c 128,-1,97
 628 547 628 547 628 558 c 0,80,81
EndSplineSet
Position2: "'cpsp' Capital Spacing lookup 0 subtable" dx=7 dy=0 dh=14 dv=0
EndChar

StartChar: S
Encoding: 83 83 54
Width: 562
GlyphClass: 2
Flags: W
LayerCount: 2
Fore
SplineSet
538 238 m 0,0,1
 538 141 538 141 466 59.5 c 128,-1,2
 394 -22 394 -22 301 -22 c 0,3,4
 195 -22 195 -22 148 47 c 1,5,6
 121 11 121 11 101 -10 c 0,7,8
 91 -22 91 -22 85 -22 c 0,9,10
 74 -22 74 -22 74 -12 c 0,11,12
 74 -9 74 -9 77 1 c 2,13,-1
 129 210 l 2,14,15
 132 221 132 221 135 224 c 128,-1,16
 138 227 138 227 147 227 c 0,17,18
 162 227 162 227 162 216 c 2,19,-1
 161 210 l 2,20,21
 153 181 153 181 153 149 c 0,22,23
 153 77 153 77 196.5 43 c 128,-1,24
 240 9 240 9 303 9 c 0,25,26
 368 9 368 9 419 69.5 c 128,-1,27
 470 130 470 130 470 200 c 0,28,29
 470 244 470 244 448 272 c 0,30,31
 436 285 436 285 423.5 290.5 c 128,-1,32
 411 296 411 296 371 308 c 2,33,-1
 322 322 l 2,34,35
 286 332 286 332 279 335 c 0,36,37
 199 372 199 372 199 467 c 0,38,39
 199 555 199 555 270 630 c 128,-1,40
 341 705 341 705 431 705 c 128,-1,41
 521 705 521 705 561 637 c 1,42,-1
 606 693 l 2,43,44
 616 705 616 705 621 705 c 0,45,46
 625 705 625 705 628 702.5 c 128,-1,47
 631 700 631 700 632 698 c 2,48,-1
 632 695 l 2,49,50
 632 689 632 689 630 681 c 2,51,-1
 578 474 l 2,52,53
 575 462 575 462 572 459 c 128,-1,54
 569 456 569 456 560 456 c 0,55,56
 545 456 545 456 545 466 c 2,57,-1
 546 480 l 2,58,59
 551 508 551 508 551 535 c 0,60,61
 551 598 551 598 522.5 637.5 c 128,-1,62
 494 677 494 677 429 677 c 0,63,64
 366 677 366 677 316.5 623 c 128,-1,65
 267 569 267 569 267 506 c 0,66,67
 267 440 267 440 318 418 c 0,68,69
 329 414 329 414 373 402 c 0,70,71
 448 380 448 380 467.5 371 c 128,-1,72
 487 362 487 362 505 340 c 0,73,74
 538 299 538 299 538 238 c 0,0,1
EndSplineSet
Position2: "'cpsp' Capital Spacing lookup 0 subtable" dx=7 dy=0 dh=14 dv=0
EndChar

StartChar: T
Encoding: 84 84 55
Width: 716
GlyphClass: 2
Flags: W
LayerCount: 2
Fore
SplineSet
775 473 m 2,0,1
 773 459 773 459 770 455.5 c 128,-1,2
 767 452 767 452 757 452 c 0,3,4
 742 452 742 452 742 465 c 0,5,6
 742 469 742 469 744 480 c 0,7,8
 754 539 754 539 754 570 c 0,9,10
 754 617 754 617 729.5 631.5 c 128,-1,11
 705 646 705 646 627 646 c 0,12,13
 583 646 583 646 575 644 c 0,14,15
 559 642 559 642 552 611 c 2,16,-1
 418 73 l 2,17,18
 414 59 414 59 414 54 c 0,19,20
 414 43 414 43 420 39 c 128,-1,21
 426 35 426 35 447 33 c 0,22,23
 448 33 448 33 457 32.5 c 128,-1,24
 466 32 466 32 478 31.5 c 128,-1,25
 490 31 490 31 497 31 c 2,26,-1
 512 31 l 2,27,28
 537 31 537 31 537 20 c 0,29,30
 537 0 537 0 516 0 c 0,31,32
 491 0 491 0 438 1.5 c 128,-1,33
 385 3 385 3 359 3 c 0,34,35
 334 3 334 3 282 1.5 c 128,-1,36
 230 0 230 0 204 0 c 0,37,38
 187 0 187 0 187 12 c 0,39,40
 187 25 187 25 193.5 28 c 128,-1,41
 200 31 200 31 215 31 c 2,42,-1
 231 31 l 2,43,44
 294 31 294 31 312 39.5 c 128,-1,45
 330 48 330 48 337 76 c 2,46,-1
 471 613 l 2,47,48
 475 625 475 625 475 635 c 0,49,50
 475 639 475 639 474 641 c 128,-1,51
 473 643 473 643 468 644.5 c 128,-1,52
 463 646 463 646 452 646 c 2,53,-1
 418 646 l 2,54,55
 321 646 321 646 285 617.5 c 128,-1,56
 249 589 249 589 214 484 c 0,57,58
 204 458 204 458 201 455 c 128,-1,59
 198 452 198 452 190 452 c 0,60,61
 175 452 175 452 175 463 c 0,62,63
 175 467 175 467 180 480 c 2,64,-1
 239 659 l 2,65,66
 243 672 243 672 247.5 674.5 c 128,-1,67
 252 677 252 677 268 677 c 2,68,-1
 781 677 l 2,69,70
 791 677 791 677 795 676.5 c 128,-1,71
 799 676 799 676 802.5 673.5 c 128,-1,72
 806 671 806 671 806 665 c 0,73,74
 806 656 806 656 805 652 c 2,75,-1
 775 473 l 2,0,1
EndSplineSet
Position2: "'cpsp' Capital Spacing lookup 0 subtable" dx=7 dy=0 dh=14 dv=0
EndChar

StartChar: U
Encoding: 85 85 56
Width: 743
GlyphClass: 2
Flags: W
LayerCount: 2
Fore
SplineSet
852 670 m 0,0,1
 852 652 852 652 837 652 c 0,2,3
 752 649 752 649 736 584 c 2,4,-1
 645 218 l 2,5,6
 623 129 623 129 546.5 53.5 c 128,-1,7
 470 -22 470 -22 380 -22 c 0,8,9
 306 -22 306 -22 254 29 c 128,-1,10
 202 80 202 80 202 166 c 0,11,12
 202 198 202 198 210 230 c 2,13,-1
 306 616 l 2,14,15
 310 630 310 630 310 635 c 0,16,17
 310 646 310 646 296 649 c 128,-1,18
 282 652 282 652 252 652 c 0,19,20
 241 652 241 652 236.5 652.5 c 128,-1,21
 232 653 232 653 228.5 655.5 c 128,-1,22
 225 658 225 658 225 664 c 0,23,24
 225 683 225 683 244 683 c 128,-1,25
 263 683 263 683 303.5 681.5 c 128,-1,26
 344 680 344 680 364 680 c 128,-1,27
 384 680 384 680 423.5 681.5 c 128,-1,28
 463 683 463 683 482 683 c 0,29,30
 496 683 496 683 496 670 c 0,31,32
 496 658 496 658 490 655 c 128,-1,33
 484 652 484 652 466 652 c 0,34,35
 420 652 420 652 406.5 644.5 c 128,-1,36
 393 637 393 637 387 612 c 2,37,-1
 287 210 l 2,38,39
 277 166 277 166 277 134 c 0,40,41
 277 71 277 71 308.5 40 c 128,-1,42
 340 9 340 9 384 9 c 0,43,44
 456 9 456 9 524.5 71.5 c 128,-1,45
 593 134 593 134 616 229 c 2,46,-1
 705 585 l 2,47,48
 709 601 709 601 709 609 c 0,49,50
 709 650 709 650 649 652 c 0,51,52
 631 652 631 652 631 664 c 0,53,54
 631 683 631 683 649 683 c 0,55,56
 664 683 664 683 696.5 681.5 c 128,-1,57
 729 680 729 680 745 680 c 128,-1,58
 761 680 761 680 792.5 681.5 c 128,-1,59
 824 683 824 683 839 683 c 0,60,61
 852 683 852 683 852 670 c 0,0,1
EndSplineSet
Position2: "'cpsp' Capital Spacing lookup 0 subtable" dx=7 dy=0 dh=14 dv=0
EndChar

StartChar: V
Encoding: 86 86 57
Width: 743
GlyphClass: 2
Flags: W
LayerCount: 2
Fore
SplineSet
868 672 m 2,0,1
 868 665 868 665 866.5 661 c 128,-1,2
 865 657 865 657 861 655 c 128,-1,3
 857 653 857 653 855.5 653 c 128,-1,4
 854 653 854 653 849 652 c 0,5,6
 816 649 816 649 790 633 c 128,-1,7
 764 617 764 617 737 571 c 2,8,-1
 394 -3 l 2,9,10
 386 -16 386 -16 381 -19 c 128,-1,11
 376 -22 376 -22 366 -22 c 0,12,13
 355 -22 355 -22 352 -17.5 c 128,-1,14
 349 -13 349 -13 347 2 c 2,15,-1
 287 618 l 2,16,17
 286 633 286 633 283 638.5 c 128,-1,18
 280 644 280 644 269 648 c 128,-1,19
 258 652 258 652 233 652 c 0,20,21
 209 652 209 652 209 664 c 0,22,23
 209 683 209 683 227 683 c 0,24,25
 243 683 243 683 277.5 681.5 c 128,-1,26
 312 680 312 680 329 680 c 0,27,28
 348 680 348 680 387 681.5 c 128,-1,29
 426 683 426 683 444 683 c 0,30,31
 458 683 458 683 458 671 c 0,32,33
 458 658 458 658 452 655 c 128,-1,34
 446 652 446 652 433 652 c 0,35,36
 370 652 370 652 370 621 c 2,37,-1
 421 97 l 1,38,-1
 710 580 l 2,39,40
 725 606 725 606 725 620 c 0,41,42
 725 650 725 650 685 652 c 0,43,44
 669 654 669 654 669 664 c 0,45,46
 669 683 669 683 687 683 c 0,47,48
 701 683 701 683 732.5 681.5 c 128,-1,49
 764 680 764 680 779 680 c 0,50,51
 792 680 792 680 817.5 681.5 c 128,-1,52
 843 683 843 683 855 683 c 0,53,54
 860 683 860 683 863 680.5 c 128,-1,55
 866 678 866 678 867 675 c 2,56,-1
 868 672 l 2,0,1
EndSplineSet
Position2: "'cpsp' Capital Spacing lookup 0 subtable" dx=7 dy=0 dh=14 dv=0
EndChar

StartChar: W
Encoding: 87 87 58
Width: 999
GlyphClass: 2
Flags: W
LayerCount: 2
Fore
SplineSet
1124 672 m 2,0,1
 1124 653 1124 653 1110 652 c 0,2,3
 1073 649 1073 649 1051 632.5 c 128,-1,4
 1029 616 1029 616 1004 570 c 2,5,-1
 691 -4 l 2,6,7
 681 -22 681 -22 665 -22 c 0,8,9
 659 -22 659 -22 655.5 -21 c 128,-1,10
 652 -20 652 -20 650 -16 c 128,-1,11
 648 -12 648 -12 647.5 -9 c 128,-1,12
 647 -6 647 -6 647 3 c 2,13,-1
 625 501 l 1,14,-1
 350 -2 l 2,15,16
 343 -14 343 -14 339 -18 c 128,-1,17
 335 -22 335 -22 324 -22 c 128,-1,18
 313 -22 313 -22 310 -17.5 c 128,-1,19
 307 -13 307 -13 306 3 c 2,20,-1
 278 620 l 2,21,22
 277 634 277 634 275.5 639.5 c 128,-1,23
 274 645 274 645 264 648.5 c 128,-1,24
 254 652 254 652 232 652 c 0,25,26
 208 652 208 652 208 664 c 0,27,28
 208 683 208 683 226 683 c 0,29,30
 241 683 241 683 274.5 681.5 c 128,-1,31
 308 680 308 680 324 680 c 0,32,33
 342 680 342 680 380.5 681.5 c 128,-1,34
 419 683 419 683 437 683 c 0,35,36
 451 683 451 683 451 671 c 0,37,38
 451 658 451 658 445 655 c 128,-1,39
 439 652 439 652 426 652 c 0,40,41
 402 652 402 652 387.5 648 c 128,-1,42
 373 644 373 644 368 635.5 c 128,-1,43
 363 627 363 627 361.5 621.5 c 128,-1,44
 360 616 360 616 361 605 c 2,45,-1
 383 116 l 1,46,-1
 616 544 l 2,47,48
 622 554 622 554 622 564 c 0,49,50
 619 627 619 627 618 631 c 0,51,52
 616 643 616 643 608 647.5 c 128,-1,53
 600 652 600 652 570 652 c 0,54,55
 549 652 549 652 549 664 c 0,56,57
 549 683 549 683 567 683 c 0,58,59
 582 683 582 683 615.5 681.5 c 128,-1,60
 649 680 649 680 665 680 c 0,61,62
 684 680 684 680 722 681.5 c 128,-1,63
 760 683 760 683 778 683 c 0,64,65
 792 683 792 683 792 672 c 0,66,67
 792 663 792 663 788 658 c 128,-1,68
 784 653 784 653 781 652.5 c 128,-1,69
 778 652 778 652 772 652 c 0,70,71
 728 651 728 651 714.5 641 c 128,-1,72
 701 631 701 631 701 615 c 2,73,-1
 702 608 l 1,74,-1
 724 116 l 1,75,-1
 977 582 l 2,76,77
 988 602 988 602 988 614 c 0,78,79
 988 649 988 649 937 652 c 0,80,81
 921 652 921 652 921 664 c 0,82,83
 921 683 921 683 940 683 c 0,84,85
 956 683 956 683 989.5 681.5 c 128,-1,86
 1023 680 1023 680 1039 680 c 0,87,88
 1051 680 1051 680 1076 681.5 c 128,-1,89
 1101 683 1101 683 1112 683 c 0,90,91
 1117 683 1117 683 1120 680.5 c 128,-1,92
 1123 678 1123 678 1124 675 c 2,93,-1
 1124 672 l 2,0,1
EndSplineSet
Position2: "'cpsp' Capital Spacing lookup 0 subtable" dx=7 dy=0 dh=14 dv=0
EndChar

StartChar: X
Encoding: 88 88 59
Width: 743
GlyphClass: 2
Flags: W
LayerCount: 2
Fore
SplineSet
700 18 m 0,0,1
 700 0 700 0 682 0 c 0,2,3
 666 0 666 0 631 1.5 c 128,-1,4
 596 3 596 3 579 3 c 0,5,6
 560 3 560 3 521 1.5 c 128,-1,7
 482 0 482 0 463 0 c 0,8,9
 448 0 448 0 448 12 c 0,10,11
 448 29 448 29 464 31 c 0,12,13
 489 32 489 32 505 42 c 128,-1,14
 521 52 521 52 521 61 c 2,15,-1
 518 73 l 1,16,-1
 430 312 l 1,17,-1
 238 93 l 1,18,-1
 237 91 l 2,19,20
 235 87 235 87 233 85 c 0,21,22
 225 74 225 74 225 61 c 0,23,24
 225 34 225 34 260 31 c 0,25,26
 273 30 273 30 273 20 c 0,27,28
 273 0 273 0 254 0 c 0,29,30
 238 0 238 0 203 1.5 c 128,-1,31
 168 3 168 3 151 3 c 0,32,33
 136 3 136 3 106.5 1.5 c 128,-1,34
 77 0 77 0 63 0 c 0,35,36
 51 0 51 0 51 12 c 0,37,38
 52 30 52 30 63 31 c 0,39,40
 88 33 88 33 104.5 35.5 c 128,-1,41
 121 38 121 38 152.5 55.5 c 128,-1,42
 184 73 184 73 211 104 c 2,43,-1
 419 341 l 1,44,-1
 316 620 l 2,45,46
 311 633 311 633 307 638.5 c 128,-1,47
 303 644 303 644 289.5 648 c 128,-1,48
 276 652 276 652 250 652 c 0,49,50
 226 652 226 652 226 664 c 0,51,52
 226 683 226 683 245 683 c 0,53,54
 261 683 261 683 295.5 681.5 c 128,-1,55
 330 680 330 680 347 680 c 0,56,57
 367 680 367 680 406 681.5 c 128,-1,58
 445 683 445 683 464 683 c 0,59,60
 478 683 478 683 478 670 c 0,61,62
 478 652 478 652 462 652 c 0,63,64
 445 651 445 651 431 645 c 128,-1,65
 417 639 417 639 411 633 c 128,-1,66
 405 627 405 627 405 623 c 2,67,-1
 409 611 l 1,68,-1
 482 412 l 1,69,-1
 630 582 l 2,70,71
 651 607 651 607 651 622 c 0,72,73
 651 647 651 647 615 652 c 0,74,75
 603 652 603 652 603 664 c 0,76,77
 603 683 603 683 621 683 c 0,78,79
 637 683 637 683 672.5 681.5 c 128,-1,80
 708 680 708 680 725 680 c 0,81,82
 740 680 740 680 769 681.5 c 128,-1,83
 798 683 798 683 812 683 c 0,84,85
 825 683 825 683 825 671 c 128,-1,86
 825 659 825 659 820 656 c 128,-1,87
 815 653 815 653 804 652 c 0,88,89
 769 650 769 650 739 635.5 c 128,-1,90
 709 621 709 621 697 610 c 128,-1,91
 685 599 685 599 667 580 c 2,92,-1
 655 570 l 1,93,-1
 492 383 l 1,94,-1
 611 61 l 2,95,96
 615 49 615 49 619 44 c 128,-1,97
 623 39 623 39 636.5 35 c 128,-1,98
 650 31 650 31 676 31 c 0,99,100
 686 31 686 31 690 30.5 c 128,-1,101
 694 30 694 30 697 27 c 128,-1,102
 700 24 700 24 700 18 c 0,0,1
EndSplineSet
Position2: "'cpsp' Capital Spacing lookup 0 subtable" dx=7 dy=0 dh=14 dv=0
EndChar

StartChar: Y
Encoding: 89 89 60
Width: 743
GlyphClass: 2
Flags: W
LayerCount: 2
Fore
SplineSet
874 672 m 2,0,1
 874 659 874 659 869.5 656 c 128,-1,2
 865 653 865 653 855 652 c 0,3,4
 818 649 818 649 787 630.5 c 128,-1,5
 756 612 756 612 722 570 c 2,6,-1
 486 283 l 2,7,8
 480 276 480 276 474 256 c 2,9,-1
 443 133 l 2,10,11
 424 54 424 54 424 48 c 0,12,13
 424 37 424 37 438 34 c 128,-1,14
 452 31 452 31 482 31 c 0,15,16
 493 31 493 31 497.5 30.5 c 128,-1,17
 502 30 502 30 505.5 27.5 c 128,-1,18
 509 25 509 25 509 19 c 0,19,20
 509 0 509 0 490 0 c 128,-1,21
 471 0 471 0 431 1.5 c 128,-1,22
 391 3 391 3 371 3 c 0,23,24
 352 3 352 3 313 1.5 c 128,-1,25
 274 0 274 0 255 0 c 0,26,27
 241 0 241 0 241 12 c 0,28,29
 241 25 241 25 247 28 c 128,-1,30
 253 31 253 31 266 31 c 0,31,32
 321 32 321 32 332.5 40 c 128,-1,33
 344 48 344 48 354 90 c 0,34,35
 400 265 400 265 400 273 c 0,36,37
 400 278 400 278 396 288 c 2,38,-1
 290 622 l 2,39,40
 285 640 285 640 272.5 646 c 128,-1,41
 260 652 260 652 226 652 c 0,42,43
 202 652 202 652 202 664 c 0,44,45
 202 683 202 683 221 683 c 0,46,47
 237 683 237 683 272.5 681.5 c 128,-1,48
 308 680 308 680 325 680 c 0,49,50
 345 680 345 680 384 681.5 c 128,-1,51
 423 683 423 683 442 683 c 0,52,53
 456 683 456 683 456 671 c 0,54,55
 456 658 456 658 450.5 655 c 128,-1,56
 445 652 445 652 434 652 c 0,57,58
 378 652 378 652 378 628 c 0,59,60
 378 625 378 625 382 615 c 2,61,-1
 477 315 l 1,62,-1
 696 582 l 1,63,-1
 699 586 l 2,64,65
 702 590 702 590 705.5 595 c 128,-1,66
 709 600 709 600 712.5 606 c 128,-1,67
 716 612 716 612 718.5 618 c 128,-1,68
 721 624 721 624 721 629 c 0,69,70
 721 650 721 650 690 652 c 0,71,72
 675 652 675 652 675 664 c 0,73,74
 675 683 675 683 693 683 c 0,75,76
 708 683 708 683 739 681.5 c 128,-1,77
 770 680 770 680 786 680 c 0,78,79
 799 680 799 680 824.5 681.5 c 128,-1,80
 850 683 850 683 862 683 c 0,81,82
 867 683 867 683 870 680.5 c 128,-1,83
 873 678 873 678 874 675 c 2,84,-1
 874 672 l 2,0,1
EndSplineSet
Position2: "'cpsp' Capital Spacing lookup 0 subtable" dx=7 dy=0 dh=14 dv=0
EndChar

StartChar: Z
Encoding: 90 90 61
Width: 613
GlyphClass: 2
Flags: W
LayerCount: 2
Fore
SplineSet
605 255 m 0,0,1
 601 241 601 241 600 239 c 2,2,-1
 532 18 l 2,3,4
 528 5 528 5 524 2.5 c 128,-1,5
 520 0 520 0 503 0 c 2,6,-1
 103 0 l 2,7,8
 80 0 80 0 80 9 c 0,9,10
 80 21 80 21 91 34 c 2,11,-1
 608 652 l 1,12,-1
 468 652 l 2,13,14
 411 652 411 652 370.5 638.5 c 128,-1,15
 330 625 330 625 305.5 597 c 128,-1,16
 281 569 281 569 267.5 543 c 128,-1,17
 254 517 254 517 241 476 c 0,18,19
 239 469 239 469 238 467 c 128,-1,20
 237 465 237 465 235 462 c 128,-1,21
 233 459 233 459 230.5 458.5 c 128,-1,22
 228 458 228 458 223 458 c 0,23,24
 208 458 208 458 208 469 c 0,25,26
 210 480 210 480 211 482 c 2,27,-1
 265 663 l 2,28,29
 270 677 270 677 274 680 c 128,-1,30
 278 683 278 683 294 683 c 2,31,-1
 681 683 l 2,32,33
 689 683 689 683 692 683 c 128,-1,34
 695 683 695 683 698.5 682 c 128,-1,35
 702 681 702 681 703 679 c 128,-1,36
 704 677 704 677 704 674 c 0,37,38
 704 662 704 662 692 648 c 2,39,-1
 177 34 l 1,40,-1
 324 34 l 2,41,42
 375 34 375 34 413 45.5 c 128,-1,43
 451 57 451 57 474.5 73 c 128,-1,44
 498 89 498 89 517 120 c 128,-1,45
 536 151 536 151 545.5 175 c 128,-1,46
 555 199 555 199 569 242 c 0,47,48
 575 260 575 260 578 263.5 c 128,-1,49
 581 267 581 267 589 267 c 0,50,51
 605 267 605 267 605 255 c 0,0,1
EndSplineSet
Position2: "'cpsp' Capital Spacing lookup 0 subtable" dx=7 dy=0 dh=14 dv=0
EndChar

StartChar: bracketleft
Encoding: 91 91 62
Width: 307
GlyphClass: 2
Flags: W
LayerCount: 2
Fore
SplineSet
206 -222 m 0,0,1
 202 -240 202 -240 199 -245 c 0,2,3
 194 -250 194 -250 176 -250 c 2,4,-1
 99 -250 l 2,5,6
 89 -250 89 -250 84.5 -249.5 c 128,-1,7
 80 -249 80 -249 76.5 -246.5 c 128,-1,8
 73 -244 73 -244 73 -238 c 0,9,10
 75 -228 75 -228 76 -225 c 2,11,-1
 315 731 l 2,12,13
 319 745 319 745 322.5 747.5 c 128,-1,14
 326 750 326 750 343 750 c 2,15,-1
 420 750 l 2,16,17
 430 750 430 750 434.5 749.5 c 128,-1,18
 439 749 439 749 442.5 746.5 c 128,-1,19
 446 744 446 744 446 738 c 0,20,21
 442 720 442 720 439 715 c 0,22,23
 434 710 434 710 416 710 c 2,24,-1
 351 710 l 1,25,-1
 121 -210 l 1,26,-1
 180 -210 l 2,27,28
 190 -210 190 -210 194.5 -210.5 c 128,-1,29
 199 -211 199 -211 202.5 -213.5 c 128,-1,30
 206 -216 206 -216 206 -222 c 0,0,1
EndSplineSet
EndChar

StartChar: backslash
Encoding: 92 92 63
Width: 500
GlyphClass: 2
Flags: W
LayerCount: 2
Fore
SplineSet
386 -230 m 2,0,1
 384 -238 384 -238 376.5 -244 c 128,-1,2
 369 -250 369 -250 361 -250 c 0,3,4
 346 -250 346 -250 344 -228 c 2,5,-1
 239 712 l 1,6,-1
 239 730 l 2,7,8
 240 738 240 738 248 744 c 128,-1,9
 256 750 256 750 264 750 c 0,10,11
 278 750 278 750 280 728 c 2,12,-1
 385 -212 l 1,13,-1
 386 -230 l 2,0,1
EndSplineSet
EndChar

StartChar: bracketright
Encoding: 93 93 64
Width: 307
GlyphClass: 2
Flags: W
LayerCount: 2
Fore
SplineSet
117 -231 m 2,0,1
 113 -245 113 -245 109.5 -247.5 c 128,-1,2
 106 -250 106 -250 89 -250 c 2,3,-1
 12 -250 l 2,4,5
 2 -250 2 -250 -2.5 -249.5 c 128,-1,6
 -7 -249 -7 -249 -10.5 -246.5 c 128,-1,7
 -14 -244 -14 -244 -14 -238 c 0,8,9
 -10 -220 -10 -220 -7 -215 c 0,10,11
 -2 -210 -2 -210 16 -210 c 2,12,-1
 81 -210 l 1,13,-1
 311 710 l 1,14,-1
 252 710 l 2,15,16
 242 710 242 710 237.5 710.5 c 128,-1,17
 233 711 233 711 229.5 713.5 c 128,-1,18
 226 716 226 716 226 722 c 0,19,20
 230 740 230 740 233 745 c 0,21,22
 238 750 238 750 256 750 c 2,23,-1
 333 750 l 2,24,25
 343 750 343 750 347.5 749.5 c 128,-1,26
 352 749 352 749 355.5 746.5 c 128,-1,27
 359 744 359 744 359 738 c 0,28,29
 357 728 357 728 356 725 c 2,30,-1
 117 -231 l 2,0,1
EndSplineSet
EndChar

StartChar: asciicircum
Encoding: 94 94 65
Width: 556
GlyphClass: 2
Flags: W
LayerCount: 2
Fore
SplineSet
707 584 m 1,0,-1
 690 562 l 1,1,-1
 448 685 l 1,2,-1
 147 562 l 1,3,-1
 141 584 l 1,4,-1
 464 744 l 1,5,-1
 707 584 l 1,0,-1
EndSplineSet
EndChar

StartChar: underscore
Encoding: 95 95 66
Width: 743
GlyphClass: 2
Flags: W
LayerCount: 2
Fore
SplineSet
727 -125 m 0,0,1
 723 -140 723 -140 708 -140 c 2,2,-1
 -35 -140 l 2,3,4
 -41 -140 -41 -140 -44.5 -135.5 c 128,-1,5
 -48 -131 -48 -131 -46 -125 c 0,6,7
 -42 -110 -42 -110 -27 -110 c 2,8,-1
 716 -110 l 2,9,10
 722 -110 722 -110 725.5 -114.5 c 128,-1,11
 729 -119 729 -119 727 -125 c 0,0,1
EndSplineSet
EndChar

StartChar: grave
Encoding: 96 96 67
Width: 511
GlyphClass: 2
Flags: W
LayerCount: 2
Fore
SplineSet
444 522 m 0,0,1
 441 516 441 516 433 510.5 c 128,-1,2
 425 505 425 505 420 505 c 128,-1,3
 415 505 415 505 410 513 c 2,4,-1
 310 636 l 2,5,6
 297 649 297 649 306 668 c 0,7,8
 312 681 312 681 325 688.5 c 128,-1,9
 338 696 338 696 348 696 c 0,10,11
 362 696 362 696 371 679 c 2,12,-1
 442 537 l 2,13,14
 447 527 447 527 444 522 c 0,0,1
EndSplineSet
EndChar

StartChar: a
Encoding: 97 97 68
Width: 511
GlyphClass: 2
Flags: W
LayerCount: 2
Fore
SplineSet
535 143 m 0,0,1
 523 83 523 83 505 45 c 0,2,3
 478 -11 478 -11 432 -11 c 0,4,5
 403 -11 403 -11 380 6.5 c 128,-1,6
 357 24 357 24 349 59 c 1,7,8
 292 -11 292 -11 229 -11 c 0,9,10
 174 -11 174 -11 141 33.5 c 128,-1,11
 108 78 108 78 108 144 c 0,12,13
 108 253 108 253 181 347.5 c 128,-1,14
 254 442 254 442 337 442 c 0,15,16
 394 442 394 442 420 383 c 1,17,18
 428 422 428 422 460 422 c 0,19,20
 487 422 487 422 487 396 c 0,21,22
 487 389 487 389 483 375 c 2,23,-1
 415 103 l 2,24,25
 408 75 408 75 408 52 c 0,26,27
 408 11 408 11 434 11 c 0,28,29
 471 11 471 11 501 130 c 0,30,31
 505 146 505 146 508 149.5 c 128,-1,32
 511 153 511 153 520 153 c 0,33,34
 535 153 535 153 535 143 c 0,0,1
356 124 m 2,35,-1
 403 313 l 1,36,-1
 406 326 l 1,37,38
 406 361 406 361 387 390.5 c 128,-1,39
 368 420 368 420 337 420 c 0,40,41
 307 420 307 420 275.5 388 c 128,-1,42
 244 356 244 356 225 309 c 0,43,44
 210 274 210 274 193 204.5 c 128,-1,45
 176 135 176 135 176 100 c 0,46,47
 176 67 176 67 188 39 c 128,-1,48
 200 11 200 11 231 11 c 0,49,50
 268 11 268 11 308.5 52.5 c 128,-1,51
 349 94 349 94 356 124 c 2,35,-1
EndSplineSet
EndChar

StartChar: b
Encoding: 98 98 69
Width: 460
GlyphClass: 2
Flags: W
LayerCount: 2
Fore
SplineSet
459 286 m 0,0,1
 459 176 459 176 386.5 82.5 c 128,-1,2
 314 -11 314 -11 230 -11 c 0,3,4
 177 -11 177 -11 146 32.5 c 128,-1,5
 115 76 115 76 115 141 c 0,6,7
 115 190 115 190 126 223 c 2,8,-1
 225 618 l 2,9,10
 228 632 228 632 228 635 c 0,11,12
 228 641 228 641 226 644 c 128,-1,13
 224 647 224 647 212.5 649.5 c 128,-1,14
 201 652 201 652 178 652 c 0,15,16
 154 652 154 652 154 663 c 0,17,18
 154 672 154 672 157.5 676.5 c 128,-1,19
 161 681 161 681 165 682 c 128,-1,20
 169 683 169 683 177 684 c 2,21,-1
 276 692 l 2,22,23
 282 694 282 694 292 694 c 0,24,25
 306 694 306 694 306 682 c 0,26,27
 304 672 304 672 303 669 c 2,28,-1
 233 389 l 1,29,30
 289 442 289 442 339 442 c 0,31,32
 388 442 388 442 423.5 401.5 c 128,-1,33
 459 361 459 361 459 286 c 0,0,1
336 106 m 0,34,35
 357 152 357 152 374.5 225 c 128,-1,36
 392 298 392 298 392 331 c 128,-1,37
 392 364 392 364 379.5 392 c 128,-1,38
 367 420 367 420 337 420 c 0,39,40
 286 420 286 420 232 346 c 0,41,42
 218 327 218 327 210 300 c 0,43,44
 172 151 172 151 172 107 c 0,45,46
 172 56 172 56 189.5 33.5 c 128,-1,47
 207 11 207 11 230 11 c 0,48,49
 263 11 263 11 292 43 c 128,-1,50
 321 75 321 75 336 106 c 0,34,35
EndSplineSet
EndChar

StartChar: c
Encoding: 99 99 70
Width: 460
GlyphClass: 2
Flags: W
LayerCount: 2
Fore
SplineSet
468 104 m 0,0,1
 468 94 468 94 443.5 68 c 128,-1,2
 419 42 419 42 367 15.5 c 128,-1,3
 315 -11 315 -11 257 -11 c 0,4,5
 191 -11 191 -11 150.5 34.5 c 128,-1,6
 110 80 110 80 110 154 c 0,7,8
 110 263 110 263 189.5 352.5 c 128,-1,9
 269 442 269 442 363 442 c 0,10,11
 410 442 410 442 440 417.5 c 128,-1,12
 470 393 470 393 470 356 c 0,13,14
 470 329 470 329 455 312.5 c 128,-1,15
 440 296 440 296 419 296 c 0,16,17
 403 296 403 296 394 305.5 c 128,-1,18
 385 315 385 315 385 328 c 0,19,20
 385 330 385 330 385.5 333 c 128,-1,21
 386 336 386 336 388.5 343.5 c 128,-1,22
 391 351 391 351 395.5 357.5 c 128,-1,23
 400 364 400 364 410.5 369.5 c 128,-1,24
 421 375 421 375 435 377 c 1,25,26
 419 420 419 420 364 420 c 0,27,28
 329 420 329 420 294 394 c 128,-1,29
 259 368 259 368 233 320 c 0,30,31
 214 284 214 284 197 219 c 128,-1,32
 180 154 180 154 180 114 c 0,33,34
 180 68 180 68 200 39.5 c 128,-1,35
 220 11 220 11 259 11 c 0,36,37
 276 11 276 11 297.5 14.5 c 128,-1,38
 319 18 319 18 362.5 42.5 c 128,-1,39
 406 67 406 67 439 109 c 0,40,41
 448 120 448 120 452 120 c 0,42,43
 458 120 458 120 463 114 c 128,-1,44
 468 108 468 108 468 104 c 0,0,1
EndSplineSet
EndChar

StartChar: d
Encoding: 100 100 71
Width: 511
GlyphClass: 2
Flags: W
LayerCount: 2
Fore
SplineSet
535 143 m 0,0,1
 523 83 523 83 505 45 c 0,2,3
 478 -11 478 -11 432 -11 c 0,4,5
 403 -11 403 -11 380 6.5 c 128,-1,6
 357 24 357 24 349 59 c 1,7,8
 292 -11 292 -11 229 -11 c 0,9,10
 174 -11 174 -11 141 33.5 c 128,-1,11
 108 78 108 78 108 144 c 0,12,13
 108 253 108 253 181 347.5 c 128,-1,14
 254 442 254 442 337 442 c 0,15,16
 393 442 393 442 421 384 c 1,17,-1
 479 618 l 2,18,19
 482 632 482 632 482 635 c 0,20,21
 482 641 482 641 480 644 c 128,-1,22
 478 647 478 647 466.5 649.5 c 128,-1,23
 455 652 455 652 432 652 c 0,24,25
 408 652 408 652 408 663 c 0,26,27
 408 672 408 672 411.5 676.5 c 128,-1,28
 415 681 415 681 419 682 c 128,-1,29
 423 683 423 683 431 684 c 2,30,-1
 530 692 l 2,31,32
 536 694 536 694 546 694 c 0,33,34
 560 694 560 694 560 682 c 0,35,36
 558 672 558 672 557 669 c 2,37,-1
 414 98 l 2,38,39
 408 74 408 74 408 52 c 0,40,41
 408 11 408 11 434 11 c 0,42,43
 471 11 471 11 501 130 c 0,44,45
 505 146 505 146 508 149.5 c 128,-1,46
 511 153 511 153 520 153 c 0,47,48
 535 153 535 153 535 143 c 0,0,1
355 122 m 2,49,-1
 403 314 l 2,50,51
 406 323 406 323 406 327 c 0,52,53
 406 359 406 359 386 391 c 0,54,55
 367 420 367 420 337 420 c 128,-1,56
 307 420 307 420 275.5 388 c 128,-1,57
 244 356 244 356 225 309 c 0,58,59
 210 274 210 274 193 204.5 c 128,-1,60
 176 135 176 135 176 100 c 0,61,62
 176 67 176 67 188 39 c 128,-1,63
 200 11 200 11 231 11 c 0,64,65
 268 11 268 11 308 52 c 128,-1,66
 348 93 348 93 355 122 c 2,49,-1
EndSplineSet
EndChar

StartChar: e
Encoding: 101 101 72
Width: 460
GlyphClass: 2
Flags: W
LayerCount: 2
Fore
SplineSet
468 104 m 0,0,1
 468 94 468 94 443.5 68 c 128,-1,2
 419 42 419 42 367 15.5 c 128,-1,3
 315 -11 315 -11 257 -11 c 0,4,5
 189 -11 189 -11 151.5 40.5 c 128,-1,6
 114 92 114 92 114 164 c 0,7,8
 114 287 114 287 194 364.5 c 128,-1,9
 274 442 274 442 362 442 c 0,10,11
 408 442 408 442 435.5 417.5 c 128,-1,12
 463 393 463 393 463 357 c 0,13,14
 463 352 463 352 462.5 346.5 c 128,-1,15
 462 341 462 341 458 327 c 128,-1,16
 454 313 454 313 446.5 301 c 128,-1,17
 439 289 439 289 422.5 275.5 c 128,-1,18
 406 262 406 262 384 253 c 0,19,20
 328 231 328 231 239 231 c 2,21,-1
 200 231 l 1,22,23
 183 165 183 165 183 121 c 0,24,25
 183 96 183 96 188 74 c 128,-1,26
 193 52 193 52 211 31.5 c 128,-1,27
 229 11 229 11 259 11 c 0,28,29
 276 11 276 11 297.5 14.5 c 128,-1,30
 319 18 319 18 362.5 42.5 c 128,-1,31
 406 67 406 67 439 109 c 0,32,33
 448 120 448 120 452 120 c 0,34,35
 458 120 458 120 463 114 c 128,-1,36
 468 108 468 108 468 104 c 0,0,1
425 359 m 0,37,38
 425 385 425 385 408 402.5 c 128,-1,39
 391 420 391 420 362 420 c 0,40,41
 355 420 355 420 346 418.5 c 128,-1,42
 337 417 337 417 315.5 408 c 128,-1,43
 294 399 294 399 276 383 c 128,-1,44
 258 367 258 367 238 333 c 128,-1,45
 218 299 218 299 206 253 c 1,46,-1
 227 253 l 2,47,48
 242 253 242 253 254 253.5 c 128,-1,49
 266 254 266 254 292.5 256.5 c 128,-1,50
 319 259 319 259 339 266 c 128,-1,51
 359 273 359 273 380.5 284 c 128,-1,52
 402 295 402 295 413.5 314.5 c 128,-1,53
 425 334 425 334 425 359 c 0,37,38
EndSplineSet
EndChar

StartChar: f
Encoding: 102 102 73
Width: 307
GlyphClass: 2
Flags: W
LayerCount: 2
Fore
SplineSet
452 639 m 0,0,1
 452 614 452 614 437 599 c 128,-1,2
 422 584 422 584 402 584 c 0,3,4
 389 584 389 584 378.5 592.5 c 128,-1,5
 368 601 368 601 368 616 c 0,6,7
 368 633 368 633 379.5 647 c 128,-1,8
 391 661 391 661 412 665 c 1,9,10
 397 683 397 683 370 683 c 0,11,12
 353 683 353 683 341 666 c 128,-1,13
 329 649 329 649 325 634.5 c 128,-1,14
 321 620 321 620 315 593 c 2,15,-1
 283 431 l 1,16,-1
 361 431 l 2,17,18
 371 431 371 431 375.5 430.5 c 128,-1,19
 380 430 380 430 383 427 c 128,-1,20
 386 424 386 424 386 418 c 0,21,22
 386 406 386 406 380 403 c 128,-1,23
 374 400 374 400 359 400 c 2,24,-1
 277 400 l 1,25,-1
 207 41 l 2,26,27
 201 12 201 12 193.5 -15.5 c 128,-1,28
 186 -43 186 -43 168 -93 c 128,-1,29
 150 -143 150 -143 120.5 -174 c 128,-1,30
 91 -205 91 -205 55 -205 c 0,31,32
 24 -205 24 -205 -0.5 -187.5 c 128,-1,33
 -25 -170 -25 -170 -25 -139 c 0,34,35
 -25 -114 -25 -114 -10 -99 c 128,-1,36
 5 -84 5 -84 25 -84 c 0,37,38
 38 -84 38 -84 48.5 -92.5 c 128,-1,39
 59 -101 59 -101 59 -116 c 0,40,41
 59 -133 59 -133 47.5 -147 c 128,-1,42
 36 -161 36 -161 15 -165 c 1,43,44
 28 -183 28 -183 55 -183 c 0,45,46
 92 -183 92 -183 112 -97 c 0,47,48
 124 -54 124 -54 140 27 c 2,49,-1
 213 400 l 1,50,-1
 151 400 l 2,51,52
 126 400 126 400 126 411 c 0,53,54
 126 425 126 425 132 428 c 128,-1,55
 138 431 138 431 153 431 c 2,56,-1
 219 431 l 1,57,-1
 240 541 l 2,58,59
 274 705 274 705 370 705 c 0,60,61
 403 705 403 705 427.5 687.5 c 128,-1,62
 452 670 452 670 452 639 c 0,0,1
EndSplineSet
EndChar

StartChar: g
Encoding: 103 103 74
Width: 460
GlyphClass: 2
Flags: W
LayerCount: 2
Fore
SplineSet
374 -63 m 2,0,1
 359 -123 359 -123 304.5 -164 c 128,-1,2
 250 -205 250 -205 174 -205 c 0,3,4
 53 -205 53 -205 53 -147 c 0,5,6
 53 -121 53 -121 69 -107.5 c 128,-1,7
 85 -94 85 -94 102 -94 c 0,8,9
 120 -94 120 -94 128.5 -104 c 128,-1,10
 137 -114 137 -114 137 -126 c 0,11,12
 137 -139 137 -139 128 -152.5 c 128,-1,13
 119 -166 119 -166 105 -172 c 1,14,15
 132 -183 132 -183 176 -183 c 0,16,17
 231 -183 231 -183 271 -136 c 0,18,19
 291 -112 291 -112 299 -92 c 128,-1,20
 307 -72 307 -72 317 -31 c 2,21,-1
 338 53 l 1,22,23
 285 0 285 0 232 0 c 0,24,25
 177 0 177 0 143.5 44 c 128,-1,26
 110 88 110 88 110 153 c 0,27,28
 110 259 110 259 181.5 350.5 c 128,-1,29
 253 442 253 442 337 442 c 0,30,31
 393 442 393 442 421 385 c 1,32,33
 424 404 424 404 436 413 c 128,-1,34
 448 422 448 422 460 422 c 0,35,36
 487 422 487 422 487 396 c 0,37,38
 487 390 487 390 483 375 c 2,39,-1
 374 -63 l 2,0,1
358 132 m 2,40,-1
 403 314 l 1,41,-1
 406 328 l 2,42,43
 406 334 406 334 403.5 346.5 c 128,-1,44
 401 359 401 359 394.5 376.5 c 128,-1,45
 388 394 388 394 373 407 c 128,-1,46
 358 420 358 420 337 420 c 0,47,48
 309 420 309 420 278.5 391.5 c 128,-1,49
 248 363 248 363 229 321 c 0,50,51
 213 284 213 284 195.5 214 c 128,-1,52
 178 144 178 144 178 109 c 0,53,54
 178 100 178 100 179.5 90 c 128,-1,55
 181 80 181 80 185.5 62.5 c 128,-1,56
 190 45 190 45 202.5 33.5 c 128,-1,57
 215 22 215 22 234 22 c 0,58,59
 271 22 271 22 311 62.5 c 128,-1,60
 351 103 351 103 358 132 c 2,40,-1
EndSplineSet
EndChar

StartChar: h
Encoding: 104 104 75
Width: 511
GlyphClass: 2
Flags: W
LayerCount: 2
Fore
SplineSet
535 143 m 0,0,1
 535 140 535 140 531 125 c 128,-1,2
 527 110 527 110 517 86.5 c 128,-1,3
 507 63 507 63 493 41.5 c 128,-1,4
 479 20 479 20 456.5 4.5 c 128,-1,5
 434 -11 434 -11 408 -11 c 0,6,7
 373 -11 373 -11 352.5 12 c 128,-1,8
 332 35 332 35 332 69 c 0,9,10
 332 91 332 91 348 133 c 0,11,12
 406 299 406 299 406 354 c 0,13,14
 406 420 406 420 360 420 c 0,15,16
 286 420 286 420 227 325 c 0,17,18
 208 291 208 291 199 255 c 0,19,20
 197 244 197 244 191.5 222.5 c 128,-1,21
 186 201 186 201 183 190 c 2,22,-1
 140 17 l 2,23,24
 137 7 137 7 127 -2 c 128,-1,25
 117 -11 117 -11 103 -11 c 0,26,27
 90 -11 90 -11 82.5 -3 c 128,-1,28
 75 5 75 5 75 15 c 0,29,30
 76 26 76 26 77 28 c 2,31,-1
 225 618 l 2,32,33
 228 632 228 632 228 635 c 0,34,35
 228 641 228 641 226 644 c 128,-1,36
 224 647 224 647 212.5 649.5 c 128,-1,37
 201 652 201 652 178 652 c 0,38,39
 154 652 154 652 154 663 c 0,40,41
 154 672 154 672 157.5 676.5 c 128,-1,42
 161 681 161 681 165 682 c 128,-1,43
 169 683 169 683 177 684 c 2,44,-1
 276 692 l 2,45,46
 282 694 282 694 292 694 c 0,47,48
 306 694 306 694 306 682 c 0,49,50
 304 672 304 672 303 669 c 2,51,-1
 230 377 l 1,52,53
 252 398 252 398 264.5 408.5 c 128,-1,54
 277 419 277 419 304.5 430.5 c 128,-1,55
 332 442 332 442 363 442 c 0,56,57
 407 442 407 442 437 418 c 128,-1,58
 467 394 467 394 467 338 c 0,59,60
 467 277 467 277 406 115 c 0,61,62
 388 61 388 61 388 40 c 0,63,64
 388 11 388 11 410 11 c 0,65,66
 466 11 466 11 503 136 c 0,67,68
 506 148 506 148 508.5 150.5 c 128,-1,69
 511 153 511 153 520 153 c 0,70,71
 535 153 535 153 535 143 c 0,0,1
EndSplineSet
EndChar

StartChar: i
Encoding: 105 105 76
Width: 307
GlyphClass: 2
Flags: W
LayerCount: 2
Fore
SplineSet
331 143 m 0,0,1
 331 140 331 140 327 125.5 c 128,-1,2
 323 111 323 111 313 87.5 c 128,-1,3
 303 64 303 64 289.5 42 c 128,-1,4
 276 20 276 20 253 4.5 c 128,-1,5
 230 -11 230 -11 204 -11 c 0,6,7
 167 -11 167 -11 147.5 13 c 128,-1,8
 128 37 128 37 128 69 c 0,9,10
 128 89 128 89 146 138 c 2,11,-1
 183 237 l 1,12,-1
 213 320 l 2,13,14
 231 369 231 369 231 392 c 0,15,16
 231 420 231 420 209 420 c 0,17,18
 150 420 150 420 116 294 c 0,19,20
 113 283 113 283 110 280.5 c 128,-1,21
 107 278 107 278 98 278 c 0,22,23
 83 278 83 278 83 288 c 0,24,25
 83 291 83 291 87 306 c 128,-1,26
 91 321 91 321 101 344.5 c 128,-1,27
 111 368 111 368 125 389.5 c 128,-1,28
 139 411 139 411 162 426.5 c 128,-1,29
 185 442 185 442 211 442 c 0,30,31
 242 442 242 442 264 421.5 c 128,-1,32
 286 401 286 401 286 362 c 0,33,34
 286 341 286 341 274 306 c 2,35,-1
 210 135 l 2,36,37
 184 61 184 61 184 39 c 0,38,39
 184 11 184 11 206 11 c 0,40,41
 265 11 265 11 299 136 c 0,42,43
 302 148 302 148 304.5 150.5 c 128,-1,44
 307 153 307 153 316 153 c 0,45,46
 331 153 331 153 331 143 c 0,0,1
358 611 m 0,47,48
 358 587 358 587 338 567.5 c 128,-1,49
 318 548 318 548 294 548 c 0,50,51
 273 548 273 548 261 560.5 c 128,-1,52
 249 573 249 573 249 591 c 0,53,54
 249 615 249 615 269 634.5 c 128,-1,55
 289 654 289 654 313 654 c 0,56,57
 334 654 334 654 346 641 c 128,-1,58
 358 628 358 628 358 611 c 0,47,48
EndSplineSet
EndChar

StartChar: j
Encoding: 106 106 77
Width: 307
GlyphClass: 2
Flags: W
LayerCount: 2
Fore
SplineSet
223 -55 m 2,0,1
 208 -115 208 -115 160 -160 c 128,-1,2
 112 -205 112 -205 52 -205 c 0,3,4
 19 -205 19 -205 -8 -191 c 128,-1,5
 -35 -177 -35 -177 -35 -146 c 0,6,7
 -35 -122 -35 -122 -19 -108 c 128,-1,8
 -3 -94 -3 -94 14 -94 c 0,9,10
 32 -94 32 -94 40.5 -104 c 128,-1,11
 49 -114 49 -114 49 -126 c 0,12,13
 48 -162 48 -162 13 -173 c 1,14,15
 31 -183 31 -183 53 -183 c 0,16,17
 86 -183 86 -183 112 -150.5 c 128,-1,18
 138 -118 138 -118 147 -93 c 128,-1,19
 156 -68 156 -68 158 -56 c 2,20,-1
 254 329 l 2,21,22
 261 357 261 357 261 380 c 0,23,24
 261 420 261 420 234 420 c 0,25,26
 167 420 167 420 117 295 c 0,27,28
 114 286 114 286 112 283 c 128,-1,29
 110 280 110 280 107.5 279 c 128,-1,30
 105 278 105 278 98 278 c 0,31,32
 83 278 83 278 83 288 c 0,33,34
 83 291 83 291 89 306.5 c 128,-1,35
 95 322 95 322 108 345 c 128,-1,36
 121 368 121 368 138.5 389.5 c 128,-1,37
 156 411 156 411 181.5 426.5 c 128,-1,38
 207 442 207 442 235 442 c 0,39,40
 275 442 275 442 298 415.5 c 128,-1,41
 321 389 321 389 321 352 c 0,42,43
 321 334 321 334 316 319 c 2,44,-1
 223 -55 l 2,0,1
358 611 m 0,45,46
 358 587 358 587 338 567.5 c 128,-1,47
 318 548 318 548 294 548 c 0,48,49
 273 548 273 548 261 560.5 c 128,-1,50
 249 573 249 573 249 591 c 0,51,52
 249 615 249 615 269 634.5 c 128,-1,53
 289 654 289 654 313 654 c 0,54,55
 334 654 334 654 346 641 c 128,-1,56
 358 628 358 628 358 611 c 0,45,46
EndSplineSet
EndChar

StartChar: k
Encoding: 107 107 78
Width: 460
GlyphClass: 2
Flags: W
LayerCount: 2
Fore
SplineSet
484 143 m 0,0,1
 484 140 484 140 480 124 c 128,-1,2
 476 108 476 108 467 83 c 128,-1,3
 458 58 458 58 448 41 c 0,4,5
 418 -11 418 -11 371 -11 c 0,6,7
 338 -11 338 -11 312.5 13 c 128,-1,8
 287 37 287 37 287 86 c 0,9,10
 287 103 287 103 291 120 c 0,11,12
 294 134 294 134 294 145 c 0,13,14
 294 172 294 172 275.5 191 c 128,-1,15
 257 210 257 210 236.5 218 c 128,-1,16
 216 226 216 226 193 229 c 1,17,-1
 142 26 l 2,18,19
 134 -11 134 -11 103 -11 c 0,20,21
 90 -11 90 -11 82.5 -3 c 128,-1,22
 75 5 75 5 75 15 c 0,23,24
 76 26 76 26 77 28 c 2,25,-1
 225 618 l 2,26,27
 228 632 228 632 228 635 c 0,28,29
 228 641 228 641 226 644 c 128,-1,30
 224 647 224 647 212.5 649.5 c 128,-1,31
 201 652 201 652 178 652 c 0,32,33
 154 652 154 652 154 663 c 0,34,35
 154 672 154 672 157.5 676.5 c 128,-1,36
 161 681 161 681 165 682 c 128,-1,37
 169 683 169 683 177 684 c 2,38,-1
 276 692 l 2,39,40
 282 694 282 694 292 694 c 0,41,42
 306 694 306 694 306 682 c 0,43,44
 304 672 304 672 303 669 c 2,45,-1
 201 261 l 1,46,47
 227 273 227 273 246 291 c 128,-1,48
 265 309 265 309 309 360 c 0,49,50
 379 442 379 442 439 442 c 0,51,52
 470 442 470 442 486 423.5 c 128,-1,53
 502 405 502 405 502 382 c 0,54,55
 502 356 502 356 486.5 341 c 128,-1,56
 471 326 471 326 452 326 c 0,57,58
 434 326 434 326 425.5 336 c 128,-1,59
 417 346 417 346 417 358 c 0,60,61
 417 365 417 365 419.5 373.5 c 128,-1,62
 422 382 422 382 433.5 393.5 c 128,-1,63
 445 405 445 405 464 408 c 1,64,65
 456 420 456 420 437 420 c 0,66,67
 413 420 413 420 387.5 403.5 c 128,-1,68
 362 387 362 387 346.5 371 c 128,-1,69
 331 355 331 355 296 315 c 0,70,71
 254 267 254 267 225 249 c 1,72,73
 358 230 358 230 358 145 c 0,74,75
 358 131 358 131 353 110 c 0,76,77
 345 70 345 70 345 54 c 0,78,79
 345 11 345 11 374 11 c 0,80,81
 390 11 390 11 402.5 21.5 c 128,-1,82
 415 32 415 32 424 52.5 c 128,-1,83
 433 73 433 73 438.5 89 c 128,-1,84
 444 105 444 105 450 130 c 0,85,86
 454 146 454 146 457 149.5 c 128,-1,87
 460 153 460 153 469 153 c 0,88,89
 484 153 484 153 484 143 c 0,0,1
EndSplineSet
EndChar

StartChar: l
Encoding: 108 108 79
Width: 256
GlyphClass: 2
Flags: W
LayerCount: 2
Fore
SplineSet
280 143 m 0,0,1
 280 141 280 141 276 124 c 128,-1,2
 272 107 272 107 264.5 82 c 128,-1,3
 257 57 257 57 249 41 c 0,4,5
 222 -11 222 -11 178 -11 c 0,6,7
 142 -11 142 -11 118 14.5 c 128,-1,8
 94 40 94 40 94 79 c 0,9,10
 94 94 94 94 100 118 c 2,11,-1
 225 618 l 2,12,13
 228 632 228 632 228 635 c 0,14,15
 228 641 228 641 226 644 c 128,-1,16
 224 647 224 647 212.5 649.5 c 128,-1,17
 201 652 201 652 178 652 c 0,18,19
 154 652 154 652 154 663 c 0,20,21
 154 672 154 672 157.5 676.5 c 128,-1,22
 161 681 161 681 165 682 c 128,-1,23
 169 683 169 683 177 684 c 2,24,-1
 276 692 l 2,25,26
 282 694 282 694 292 694 c 0,27,28
 306 694 306 694 306 682 c 0,29,30
 304 672 304 672 303 669 c 2,31,-1
 160 98 l 2,32,33
 154 74 154 74 154 52 c 0,34,35
 154 11 154 11 180 11 c 0,36,37
 217 11 217 11 244 123 c 1,38,-1
 251 148 l 2,39,40
 254 153 254 153 265 153 c 0,41,42
 280 153 280 153 280 143 c 0,0,1
EndSplineSet
EndChar

StartChar: m
Encoding: 109 109 80
Width: 818
GlyphClass: 2
Flags: W
LayerCount: 2
Fore
SplineSet
842 143 m 0,0,1
 842 140 842 140 838 125 c 128,-1,2
 834 110 834 110 824 86.5 c 128,-1,3
 814 63 814 63 800 41.5 c 128,-1,4
 786 20 786 20 763.5 4.5 c 128,-1,5
 741 -11 741 -11 715 -11 c 0,6,7
 680 -11 680 -11 659.5 12 c 128,-1,8
 639 35 639 35 639 69 c 0,9,10
 639 91 639 91 655 133 c 0,11,12
 713 299 713 299 713 354 c 0,13,14
 713 420 713 420 667 420 c 0,15,16
 589 420 589 420 526 312 c 0,17,18
 515 293 515 293 501 240 c 0,19,20
 499 229 499 229 493 207.5 c 128,-1,21
 487 186 487 186 485 175 c 2,22,-1
 445 15 l 2,23,24
 435 -11 435 -11 409 -11 c 0,25,26
 395 -11 395 -11 388 -3 c 128,-1,27
 381 5 381 5 381 15 c 0,28,29
 381 20 381 20 384 29 c 2,30,-1
 449 289 l 2,31,32
 458 330 458 330 458 354 c 0,33,34
 458 420 458 420 412 420 c 0,35,36
 334 420 334 420 271 312 c 0,37,38
 260 293 260 293 246 240 c 0,39,40
 244 229 244 229 238 207.5 c 128,-1,41
 232 186 232 186 230 175 c 2,42,-1
 190 15 l 2,43,44
 180 -11 180 -11 154 -11 c 0,45,46
 140 -11 140 -11 133 -3 c 128,-1,47
 126 5 126 5 126 15 c 0,48,49
 126 20 126 20 129 29 c 2,50,-1
 204 329 l 2,51,52
 211 357 211 357 211 380 c 0,53,54
 211 420 211 420 185 420 c 0,55,56
 163 420 163 420 147.5 390 c 128,-1,57
 132 360 132 360 117 301 c 0,58,59
 113 285 113 285 110.5 281.5 c 128,-1,60
 108 278 108 278 98 278 c 0,61,62
 83 278 83 278 83 288 c 0,63,64
 96 349 96 349 115 389 c 0,65,66
 143 442 143 442 187 442 c 0,67,68
 220 442 220 442 243 420.5 c 128,-1,69
 266 399 266 399 271 363 c 1,70,71
 329 442 329 442 414 442 c 0,72,73
 454 442 454 442 484 421.5 c 128,-1,74
 514 401 514 401 519 354 c 1,75,76
 579 442 579 442 669 442 c 0,77,78
 712 442 712 442 743 418.5 c 128,-1,79
 774 395 774 395 774 338 c 0,80,81
 774 277 774 277 713 115 c 0,82,83
 695 61 695 61 695 40 c 0,84,85
 695 11 695 11 717 11 c 0,86,87
 773 11 773 11 810 136 c 0,88,89
 813 148 813 148 815.5 150.5 c 128,-1,90
 818 153 818 153 827 153 c 0,91,92
 842 153 842 153 842 143 c 0,0,1
EndSplineSet
EndChar

StartChar: n
Encoding: 110 110 81
Width: 562
GlyphClass: 2
Flags: W
LayerCount: 2
Fore
SplineSet
586 143 m 0,0,1
 586 140 586 140 582 125 c 128,-1,2
 578 110 578 110 568 86.5 c 128,-1,3
 558 63 558 63 544 41.5 c 128,-1,4
 530 20 530 20 507.5 4.5 c 128,-1,5
 485 -11 485 -11 459 -11 c 0,6,7
 424 -11 424 -11 403.5 12 c 128,-1,8
 383 35 383 35 383 69 c 0,9,10
 383 91 383 91 399 133 c 0,11,12
 457 299 457 299 457 354 c 0,13,14
 457 420 457 420 411 420 c 0,15,16
 334 420 334 420 276 321 c 0,17,18
 259 293 259 293 246 240 c 0,19,20
 244 229 244 229 238 207.5 c 128,-1,21
 232 186 232 186 230 175 c 2,22,-1
 190 15 l 2,23,24
 180 -11 180 -11 154 -11 c 0,25,26
 140 -11 140 -11 133 -3 c 128,-1,27
 126 5 126 5 126 15 c 0,28,29
 126 20 126 20 129 29 c 2,30,-1
 204 329 l 2,31,32
 211 357 211 357 211 380 c 0,33,34
 211 420 211 420 185 420 c 0,35,36
 163 420 163 420 147.5 390 c 128,-1,37
 132 360 132 360 117 301 c 0,38,39
 113 285 113 285 110.5 281.5 c 128,-1,40
 108 278 108 278 98 278 c 0,41,42
 83 278 83 278 83 288 c 0,43,44
 96 349 96 349 115 389 c 0,45,46
 143 442 143 442 187 442 c 0,47,48
 220 442 220 442 243 420.5 c 128,-1,49
 266 399 266 399 271 363 c 1,50,51
 281 378 281 378 295.5 393 c 128,-1,52
 310 408 310 408 343.5 425 c 128,-1,53
 377 442 377 442 414 442 c 0,54,55
 458 442 458 442 488 418 c 128,-1,56
 518 394 518 394 518 338 c 0,57,58
 518 277 518 277 457 115 c 0,59,60
 439 61 439 61 439 40 c 0,61,62
 439 11 439 11 461 11 c 0,63,64
 517 11 517 11 554 136 c 0,65,66
 557 148 557 148 559.5 150.5 c 128,-1,67
 562 153 562 153 571 153 c 0,68,69
 586 153 586 153 586 143 c 0,0,1
EndSplineSet
EndChar

StartChar: o
Encoding: 111 111 82
Width: 511
GlyphClass: 2
Flags: W
LayerCount: 2
Fore
SplineSet
509 278 m 0,0,1
 509 169 509 169 429.5 79 c 128,-1,2
 350 -11 350 -11 256 -11 c 0,3,4
 192 -11 192 -11 151 33.5 c 128,-1,5
 110 78 110 78 110 154 c 0,6,7
 110 263 110 263 189.5 352.5 c 128,-1,8
 269 442 269 442 363 442 c 0,9,10
 428 442 428 442 468.5 396 c 128,-1,11
 509 350 509 350 509 278 c 0,0,1
439 317 m 0,12,13
 439 362 439 362 418.5 391 c 128,-1,14
 398 420 398 420 362 420 c 0,15,16
 331 420 331 420 298 396.5 c 128,-1,17
 265 373 265 373 238 329 c 0,18,19
 215 290 215 290 197.5 222 c 128,-1,20
 180 154 180 154 180 114 c 0,21,22
 180 63 180 63 202 37 c 128,-1,23
 224 11 224 11 256 11 c 0,24,25
 292 11 292 11 327 39.5 c 128,-1,26
 362 68 362 68 385 111 c 0,27,28
 407 153 407 153 423 217 c 128,-1,29
 439 281 439 281 439 317 c 0,12,13
EndSplineSet
EndChar

StartChar: p
Encoding: 112 112 83
Width: 511
GlyphClass: 2
Flags: W
LayerCount: 2
Fore
SplineSet
510 286 m 0,0,1
 510 175 510 175 437.5 82 c 128,-1,2
 365 -11 365 -11 282 -11 c 0,3,4
 248 -11 248 -11 227 8 c 128,-1,5
 206 27 206 27 198 47 c 1,6,-1
 162 -99 l 2,7,8
 151 -143 151 -143 151 -147 c 0,9,10
 151 -153 151 -153 153 -156 c 128,-1,11
 155 -159 155 -159 166.5 -161 c 128,-1,12
 178 -163 178 -163 202 -163 c 128,-1,13
 226 -163 226 -163 226 -175 c 0,14,15
 226 -194 226 -194 207 -194 c 0,16,17
 192 -194 192 -194 159 -192.5 c 128,-1,18
 126 -191 126 -191 110 -191 c 0,19,20
 96 -191 96 -191 67.5 -192.5 c 128,-1,21
 39 -194 39 -194 26 -194 c 0,22,23
 14 -194 14 -194 14 -182 c 0,24,25
 14 -163 14 -163 35 -163 c 0,26,27
 65 -162 65 -162 74.5 -156.5 c 128,-1,28
 84 -151 84 -151 90 -128 c 2,29,-1
 204 330 l 2,30,31
 211 358 211 358 211 380 c 0,32,33
 211 420 211 420 185 420 c 0,34,35
 163 420 163 420 147.5 390 c 128,-1,36
 132 360 132 360 117 301 c 0,37,38
 113 285 113 285 110.5 281.5 c 128,-1,39
 108 278 108 278 98 278 c 0,40,41
 83 278 83 278 83 288 c 0,42,43
 96 349 96 349 115 389 c 0,44,45
 143 442 143 442 187 442 c 0,46,47
 212 442 212 442 236.5 426.5 c 128,-1,48
 261 411 261 411 269 372 c 1,49,50
 329 442 329 442 390 442 c 0,51,52
 439 442 439 442 474.5 401.5 c 128,-1,53
 510 361 510 361 510 286 c 0,0,1
387 106 m 0,54,55
 408 152 408 152 425.5 225 c 128,-1,56
 443 298 443 298 443 331 c 128,-1,57
 443 364 443 364 430.5 392 c 128,-1,58
 418 420 418 420 388 420 c 0,59,60
 350 420 350 420 310 379 c 128,-1,61
 270 338 270 338 263 307 c 2,62,-1
 216 118 l 2,63,64
 213 106 213 106 213 104 c 0,65,66
 213 94 213 94 217 75.5 c 128,-1,67
 221 57 221 57 238 34 c 128,-1,68
 255 11 255 11 281 11 c 0,69,70
 314 11 314 11 343 43 c 128,-1,71
 372 75 372 75 387 106 c 0,54,55
EndSplineSet
EndChar

StartChar: q
Encoding: 113 113 84
Width: 460
GlyphClass: 2
Flags: W
LayerCount: 2
Fore
SplineSet
429 -175 m 0,0,1
 429 -194 429 -194 410 -194 c 0,2,3
 394 -194 394 -194 360 -192.5 c 128,-1,4
 326 -191 326 -191 309 -191 c 128,-1,5
 292 -191 292 -191 258.5 -192.5 c 128,-1,6
 225 -194 225 -194 209 -194 c 0,7,8
 196 -194 196 -194 196 -182 c 0,9,10
 196 -169 196 -169 202 -166 c 128,-1,11
 208 -163 208 -163 220 -163 c 0,12,13
 267 -162 267 -162 277 -155 c 128,-1,14
 287 -148 287 -148 296 -115 c 2,15,-1
 335 42 l 1,16,17
 280 -11 280 -11 229 -11 c 0,18,19
 174 -11 174 -11 141 33.5 c 128,-1,20
 108 78 108 78 108 144 c 0,21,22
 108 253 108 253 181 347.5 c 128,-1,23
 254 442 254 442 337 442 c 0,24,25
 397 442 397 442 423 378 c 1,26,27
 435 399 435 399 456.5 420 c 128,-1,28
 478 441 478 441 486 441 c 0,29,30
 497 441 497 441 497 430 c 0,31,32
 495 420 495 420 494 417 c 2,33,-1
 357 -129 l 1,34,-1
 354 -147 l 2,35,36
 354 -153 354 -153 356 -156 c 128,-1,37
 358 -159 358 -159 369.5 -161 c 128,-1,38
 381 -163 381 -163 405 -163 c 128,-1,39
 429 -163 429 -163 429 -175 c 0,0,1
355 122 m 2,40,-1
 403 314 l 2,41,42
 406 323 406 323 406 327 c 0,43,44
 406 359 406 359 386 391 c 0,45,46
 367 420 367 420 337 420 c 128,-1,47
 307 420 307 420 275.5 388 c 128,-1,48
 244 356 244 356 225 309 c 0,49,50
 210 274 210 274 193 204.5 c 128,-1,51
 176 135 176 135 176 100 c 0,52,53
 176 67 176 67 188 39 c 128,-1,54
 200 11 200 11 231 11 c 0,55,56
 268 11 268 11 308 52 c 128,-1,57
 348 93 348 93 355 122 c 2,40,-1
EndSplineSet
EndChar

StartChar: r
Encoding: 114 114 85
Width: 422
GlyphClass: 2
Flags: W
LayerCount: 2
Fore
SplineSet
489 379 m 0,0,1
 489 353 489 353 473 339.5 c 128,-1,2
 457 326 457 326 440 326 c 0,3,4
 422 326 422 326 413.5 336 c 128,-1,5
 405 346 405 346 405 358 c 0,6,7
 405 363 405 363 407 370.5 c 128,-1,8
 409 378 409 378 418 389.5 c 128,-1,9
 427 401 427 401 443 406 c 1,10,11
 423 420 423 420 390 420 c 0,12,13
 366 420 366 420 343.5 406 c 128,-1,14
 321 392 321 392 306.5 374.5 c 128,-1,15
 292 357 292 357 280 335 c 128,-1,16
 268 313 268 313 264 303 c 128,-1,17
 260 293 260 293 258 288 c 2,18,-1
 193 26 l 2,19,20
 184 -11 184 -11 154 -11 c 0,21,22
 140 -11 140 -11 133 -3 c 128,-1,23
 126 5 126 5 126 15 c 0,24,25
 126 20 126 20 129 29 c 2,26,-1
 204 329 l 2,27,28
 211 357 211 357 211 380 c 0,29,30
 211 420 211 420 185 420 c 0,31,32
 163 420 163 420 147.5 390 c 128,-1,33
 132 360 132 360 117 301 c 0,34,35
 113 285 113 285 110.5 281.5 c 128,-1,36
 108 278 108 278 98 278 c 0,37,38
 83 278 83 278 83 288 c 0,39,40
 96 349 96 349 115 389 c 0,41,42
 143 442 143 442 187 442 c 0,43,44
 215 442 215 442 238.5 424.5 c 128,-1,45
 262 407 262 407 270 370 c 1,46,47
 322 442 322 442 391 442 c 0,48,49
 426 442 426 442 457.5 427.5 c 128,-1,50
 489 413 489 413 489 379 c 0,0,1
EndSplineSet
EndChar

StartChar: s
Encoding: 115 115 86
Width: 409
GlyphClass: 2
Flags: W
LayerCount: 2
Fore
SplineSet
393 157 m 0,0,1
 393 141 393 141 388 121.5 c 128,-1,2
 383 102 383 102 369.5 78 c 128,-1,3
 356 54 356 54 336 34.5 c 128,-1,4
 316 15 316 15 282 2 c 128,-1,5
 248 -11 248 -11 205 -11 c 0,6,7
 150 -11 150 -11 113 15.5 c 128,-1,8
 76 42 76 42 76 86 c 0,9,10
 76 117 76 117 91.5 132.5 c 128,-1,11
 107 148 107 148 127 148 c 0,12,13
 143 148 143 148 152 139 c 128,-1,14
 161 130 161 130 161 116 c 0,15,16
 161 111 161 111 159.5 103.5 c 128,-1,17
 158 96 158 96 145.5 82.5 c 128,-1,18
 133 69 133 69 110 67 c 1,19,20
 128 11 128 11 206 11 c 0,21,22
 235 11 235 11 259 19.5 c 128,-1,23
 283 28 283 28 296.5 41 c 128,-1,24
 310 54 310 54 319.5 70 c 128,-1,25
 329 86 329 86 332.5 99 c 128,-1,26
 336 112 336 112 336 123 c 0,27,28
 336 142 336 142 329 155.5 c 128,-1,29
 322 169 322 169 307 177 c 128,-1,30
 292 185 292 185 280.5 188.5 c 128,-1,31
 269 192 269 192 247 197 c 0,32,33
 234 200 234 200 226 202 c 128,-1,34
 218 204 218 204 202.5 211.5 c 128,-1,35
 187 219 187 219 178 228.5 c 128,-1,36
 169 238 169 238 161.5 255 c 128,-1,37
 154 272 154 272 154 294 c 0,38,39
 154 344 154 344 194 393 c 128,-1,40
 234 442 234 442 312 442 c 0,41,42
 360 442 360 442 389.5 417.5 c 128,-1,43
 419 393 419 393 419 357 c 0,44,45
 419 328 419 328 405.5 315 c 128,-1,46
 392 302 392 302 376 302 c 128,-1,47
 360 302 360 302 353 310.5 c 128,-1,48
 346 319 346 319 346 330 c 128,-1,49
 346 341 346 341 355.5 354.5 c 128,-1,50
 365 368 365 368 386 371 c 1,51,52
 372 420 372 420 311 420 c 0,53,54
 259 420 259 420 234.5 388 c 128,-1,55
 210 356 210 356 210 328 c 0,56,57
 210 308 210 308 221.5 295.5 c 128,-1,58
 233 283 233 283 244 279 c 128,-1,59
 255 275 255 275 274 271 c 0,60,61
 291 267 291 267 302.5 264 c 128,-1,62
 314 261 314 261 333 252 c 128,-1,63
 352 243 352 243 363.5 232 c 128,-1,64
 375 221 375 221 384 201.5 c 128,-1,65
 393 182 393 182 393 157 c 0,0,1
EndSplineSet
EndChar

StartChar: t
Encoding: 116 116 87
Width: 332
GlyphClass: 2
Flags: W
LayerCount: 2
Fore
SplineSet
356 143 m 0,0,1
 356 140 356 140 350 125 c 128,-1,2
 344 110 344 110 331 86.5 c 128,-1,3
 318 63 318 63 301 41.5 c 128,-1,4
 284 20 284 20 258 4.5 c 128,-1,5
 232 -11 232 -11 204 -11 c 0,6,7
 166 -11 166 -11 142.5 15 c 128,-1,8
 119 41 119 41 119 79 c 0,9,10
 119 93 119 93 124 113 c 2,11,-1
 196 400 l 1,12,-1
 116 400 l 2,13,14
 106 400 106 400 102 400.5 c 128,-1,15
 98 401 98 401 94.5 403.5 c 128,-1,16
 91 406 91 406 91 412 c 0,17,18
 91 425 91 425 97.5 428 c 128,-1,19
 104 431 104 431 119 431 c 2,20,-1
 204 431 l 1,21,-1
 243 590 l 2,22,23
 253 626 253 626 282 626 c 0,24,25
 309 626 309 626 309 600 c 0,26,27
 309 593 309 593 305 579 c 2,28,-1
 268 431 l 1,29,-1
 348 431 l 2,30,31
 358 431 358 431 362 430.5 c 128,-1,32
 366 430 366 430 369.5 427.5 c 128,-1,33
 373 425 373 425 373 419 c 0,34,35
 373 406 373 406 366.5 403 c 128,-1,36
 360 400 360 400 345 400 c 2,37,-1
 260 400 l 1,38,-1
 186 103 l 2,39,40
 179 75 179 75 179 52 c 0,41,42
 179 11 179 11 206 11 c 0,43,44
 244 11 244 11 273.5 49 c 128,-1,45
 303 87 303 87 321 134 c 0,46,47
 327 148 327 148 329.5 150.5 c 128,-1,48
 332 153 332 153 341 153 c 0,49,50
 356 153 356 153 356 143 c 0,0,1
EndSplineSet
EndChar

StartChar: u
Encoding: 117 117 88
Width: 537
GlyphClass: 2
Flags: W
LayerCount: 2
Fore
SplineSet
561 143 m 0,0,1
 549 83 549 83 531 45 c 0,2,3
 504 -11 504 -11 458 -11 c 0,4,5
 398 -11 398 -11 378 49 c 1,6,7
 330 -11 330 -11 267 -11 c 0,8,9
 221 -11 221 -11 188 17 c 128,-1,10
 155 45 155 45 155 105 c 0,11,12
 155 161 155 161 207 301 c 0,13,14
 231 368 231 368 231 391 c 0,15,16
 231 420 231 420 209 420 c 0,17,18
 149 420 149 420 116 294 c 0,19,20
 113 283 113 283 110 280.5 c 128,-1,21
 107 278 107 278 98 278 c 0,22,23
 83 278 83 278 83 288 c 0,24,25
 83 291 83 291 87 306 c 128,-1,26
 91 321 91 321 101.5 344.5 c 128,-1,27
 112 368 112 368 125.5 389.5 c 128,-1,28
 139 411 139 411 162 426.5 c 128,-1,29
 185 442 185 442 211 442 c 0,30,31
 244 442 244 442 265.5 420 c 128,-1,32
 287 398 287 398 287 361 c 0,33,34
 287 341 287 341 274 307 c 0,35,36
 216 149 216 149 216 88 c 0,37,38
 216 11 216 11 270 11 c 0,39,40
 323 11 323 11 362 69 c 0,41,42
 370 81 370 81 376 102 c 2,43,-1
 449 394 l 2,44,45
 458 431 458 431 488 431 c 0,46,47
 502 431 502 431 509 423 c 128,-1,48
 516 415 516 415 516 405 c 0,49,50
 516 400 516 400 513 391 c 2,51,-1
 441 103 l 2,52,53
 434 75 434 75 434 52 c 0,54,55
 434 11 434 11 460 11 c 0,56,57
 497 11 497 11 527 130 c 0,58,59
 531 146 531 146 534 149.5 c 128,-1,60
 537 153 537 153 546 153 c 0,61,62
 561 153 561 153 561 143 c 0,0,1
EndSplineSet
EndChar

StartChar: v
Encoding: 118 118 89
Width: 460
GlyphClass: 2
Flags: W
LayerCount: 2
Fore
SplineSet
493 376 m 0,0,1
 493 364 493 364 487 326 c 128,-1,2
 481 288 481 288 465.5 229 c 128,-1,3
 450 170 450 170 427.5 117.5 c 128,-1,4
 405 65 405 65 365.5 27 c 128,-1,5
 326 -11 326 -11 279 -11 c 0,6,7
 228 -11 228 -11 192 17.5 c 128,-1,8
 156 46 156 46 156 109 c 0,9,10
 156 161 156 161 207 301 c 0,11,12
 231 368 231 368 231 391 c 0,13,14
 231 420 231 420 209 420 c 0,15,16
 149 420 149 420 116 294 c 0,17,18
 113 283 113 283 110 280.5 c 128,-1,19
 107 278 107 278 98 278 c 0,20,21
 83 278 83 278 83 288 c 0,22,23
 83 291 83 291 87 306 c 128,-1,24
 91 321 91 321 101.5 344.5 c 128,-1,25
 112 368 112 368 125.5 389.5 c 128,-1,26
 139 411 139 411 162 426.5 c 128,-1,27
 185 442 185 442 211 442 c 0,28,29
 244 442 244 442 265.5 420 c 128,-1,30
 287 398 287 398 287 361 c 0,31,32
 287 346 287 346 276 311 c 0,33,34
 217 154 217 154 217 94 c 0,35,36
 217 62 217 62 231.5 36.5 c 128,-1,37
 246 11 246 11 282 11 c 0,38,39
 322 11 322 11 355.5 50 c 128,-1,40
 389 89 389 89 407 141 c 128,-1,41
 425 193 425 193 434.5 234 c 128,-1,42
 444 275 444 275 444 290 c 0,43,44
 444 340 444 340 417 369 c 0,45,46
 404 384 404 384 404 396 c 0,47,48
 404 413 404 413 419.5 427.5 c 128,-1,49
 435 442 435 442 452 442 c 0,50,51
 473 442 473 442 483 423.5 c 128,-1,52
 493 405 493 405 493 376 c 0,0,1
EndSplineSet
EndChar

StartChar: w
Encoding: 119 119 90
Width: 664
GlyphClass: 2
Flags: W
LayerCount: 2
Fore
SplineSet
697 376 m 0,0,1
 697 336 697 336 674 244 c 128,-1,2
 651 152 651 152 628 101 c 0,3,4
 581 -11 581 -11 496 -11 c 0,5,6
 453 -11 453 -11 423.5 6.5 c 128,-1,7
 394 24 394 24 382 53 c 1,8,9
 344 -11 344 -11 285 -11 c 128,-1,10
 226 -11 226 -11 191 20 c 0,11,12
 157 51 157 51 157 112 c 0,13,14
 157 165 157 165 207 301 c 0,15,16
 231 368 231 368 231 391 c 0,17,18
 231 420 231 420 209 420 c 0,19,20
 149 420 149 420 116 294 c 0,21,22
 113 283 113 283 110 280.5 c 128,-1,23
 107 278 107 278 98 278 c 0,24,25
 83 278 83 278 83 288 c 0,26,27
 83 291 83 291 87 306 c 128,-1,28
 91 321 91 321 101.5 344.5 c 128,-1,29
 112 368 112 368 125.5 389.5 c 128,-1,30
 139 411 139 411 162 426.5 c 128,-1,31
 185 442 185 442 211 442 c 0,32,33
 244 442 244 442 265.5 420 c 128,-1,34
 287 398 287 398 287 361 c 0,35,36
 287 341 287 341 275 308 c 0,37,38
 218 157 218 157 218 98 c 0,39,40
 218 88 218 88 219.5 78 c 128,-1,41
 221 68 221 68 226.5 50.5 c 128,-1,42
 232 33 232 33 248 22 c 128,-1,43
 264 11 264 11 288 11 c 0,44,45
 322 11 322 11 347 49.5 c 128,-1,46
 372 88 372 88 372 105 c 0,47,48
 372 136 372 136 380 168 c 2,49,-1
 437 396 l 2,50,51
 446 431 446 431 475 431 c 0,52,53
 489 431 489 431 496 423 c 128,-1,54
 503 415 503 415 503 405 c 0,55,56
 503 398 503 398 487 339 c 2,57,-1
 445 171 l 2,58,59
 433 123 433 123 433 94 c 0,60,61
 433 58 433 58 448.5 34.5 c 128,-1,62
 464 11 464 11 499 11 c 0,63,64
 560 11 560 11 599 104 c 0,65,66
 614 140 614 140 631 201 c 128,-1,67
 648 262 648 262 648 290 c 0,68,69
 648 340 648 340 621 369 c 0,70,71
 608 384 608 384 608 396 c 0,72,73
 608 413 608 413 623.5 427.5 c 128,-1,74
 639 442 639 442 656 442 c 0,75,76
 677 442 677 442 687 423.5 c 128,-1,77
 697 405 697 405 697 376 c 0,0,1
EndSplineSet
EndChar

StartChar: x
Encoding: 120 120 91
Width: 464
GlyphClass: 2
Flags: W
LayerCount: 2
Fore
SplineSet
488 143 m 0,0,1
 488 134 488 134 478 110.5 c 128,-1,2
 468 87 468 87 450 59 c 128,-1,3
 432 31 432 31 401 10 c 128,-1,4
 370 -11 370 -11 334 -11 c 0,5,6
 307 -11 307 -11 279.5 4 c 128,-1,7
 252 19 252 19 239 57 c 1,8,9
 200 -11 200 -11 141 -11 c 0,10,11
 105 -11 105 -11 79 6 c 128,-1,12
 53 23 53 23 53 51 c 0,13,14
 53 75 53 75 68 90 c 128,-1,15
 83 105 83 105 103 105 c 0,16,17
 137 105 137 105 137 73 c 0,18,19
 137 59 137 59 127.5 44.5 c 128,-1,20
 118 30 118 30 98 25 c 1,21,22
 115 11 115 11 142 11 c 0,23,24
 163 11 163 11 179.5 23 c 128,-1,25
 196 35 196 35 207.5 60 c 128,-1,26
 219 85 219 85 225 104.5 c 128,-1,27
 231 124 231 124 239 156 c 2,28,-1
 262 247 l 2,29,30
 283 333 283 333 283 357 c 0,31,32
 283 387 283 387 270 403.5 c 128,-1,33
 257 420 257 420 235 420 c 0,34,35
 202 420 202 420 168.5 388 c 128,-1,36
 135 356 135 356 116 295 c 0,37,38
 112 283 112 283 110 280.5 c 128,-1,39
 108 278 108 278 98 278 c 0,40,41
 83 278 83 278 83 288 c 128,-1,42
 83 298 83 298 93.5 322 c 128,-1,43
 104 346 104 346 122 373.5 c 128,-1,44
 140 401 140 401 171 421.5 c 128,-1,45
 202 442 202 442 237 442 c 0,46,47
 308 442 308 442 333 374 c 1,48,49
 345 397 345 397 370 419.5 c 128,-1,50
 395 442 395 442 431 442 c 0,51,52
 461 442 461 442 489.5 427.5 c 128,-1,53
 518 413 518 413 518 379 c 0,54,55
 518 353 518 353 502 339.5 c 128,-1,56
 486 326 486 326 469 326 c 0,57,58
 451 326 451 326 442.5 336 c 128,-1,59
 434 346 434 346 434 358 c 0,60,61
 434 362 434 362 435 368.5 c 128,-1,62
 436 375 436 375 446 388.5 c 128,-1,63
 456 402 456 402 474 406 c 1,64,65
 458 420 458 420 430 420 c 0,66,67
 371 420 371 420 342 313 c 2,68,-1
 308 176 l 2,69,70
 289 95 289 95 289 75 c 0,71,72
 289 40 289 40 303 25.5 c 128,-1,73
 317 11 317 11 336 11 c 0,74,75
 370 11 370 11 403 43 c 128,-1,76
 436 75 436 75 455 136 c 0,77,78
 459 148 459 148 461.5 150.5 c 128,-1,79
 464 153 464 153 473 153 c 0,80,81
 488 153 488 153 488 143 c 0,0,1
EndSplineSet
EndChar

StartChar: y
Encoding: 121 121 92
Width: 486
GlyphClass: 2
Flags: W
LayerCount: 2
Fore
SplineSet
415 -3 m 2,0,1
 395 -82 395 -82 332 -143.5 c 128,-1,2
 269 -205 269 -205 195 -205 c 0,3,4
 153 -205 153 -205 126 -181.5 c 128,-1,5
 99 -158 99 -158 99 -119 c 0,6,7
 99 -94 99 -94 110 -78.5 c 128,-1,8
 121 -63 121 -63 131 -60 c 128,-1,9
 141 -57 141 -57 150 -57 c 0,10,11
 164 -57 164 -57 174 -65.5 c 128,-1,12
 184 -74 184 -74 184 -89 c 128,-1,13
 184 -104 184 -104 173 -119 c 128,-1,14
 162 -134 162 -134 141 -137 c 1,15,-1
 133 -140 l 2,16,17
 133 -144 133 -144 138 -153.5 c 128,-1,18
 143 -163 143 -163 158 -173 c 128,-1,19
 173 -183 173 -183 195 -183 c 0,20,21
 241 -183 241 -183 286 -134.5 c 128,-1,22
 331 -86 331 -86 357 26 c 1,23,24
 320 -11 320 -11 267 -11 c 0,25,26
 221 -11 221 -11 188 17 c 128,-1,27
 155 45 155 45 155 105 c 0,28,29
 155 161 155 161 207 301 c 0,30,31
 231 368 231 368 231 391 c 0,32,33
 231 420 231 420 209 420 c 0,34,35
 149 420 149 420 116 294 c 0,36,37
 113 283 113 283 110 280.5 c 128,-1,38
 107 278 107 278 98 278 c 0,39,40
 83 278 83 278 83 288 c 0,41,42
 83 291 83 291 87 306 c 128,-1,43
 91 321 91 321 101.5 344.5 c 128,-1,44
 112 368 112 368 125.5 389.5 c 128,-1,45
 139 411 139 411 162 426.5 c 128,-1,46
 185 442 185 442 211 442 c 0,47,48
 244 442 244 442 265.5 420 c 128,-1,49
 287 398 287 398 287 361 c 0,50,51
 287 341 287 341 274 307 c 0,52,53
 216 149 216 149 216 88 c 0,54,55
 216 11 216 11 270 11 c 0,56,57
 310 11 310 11 339.5 41.5 c 128,-1,58
 369 72 369 72 376 100 c 2,59,-1
 449 394 l 2,60,61
 458 431 458 431 488 431 c 0,62,63
 502 431 502 431 509 423 c 128,-1,64
 516 415 516 415 516 405 c 0,65,66
 516 403 516 403 514.5 398.5 c 128,-1,67
 513 394 513 394 513 391 c 2,68,-1
 415 -3 l 2,0,1
EndSplineSet
EndChar

StartChar: z
Encoding: 122 122 93
Width: 409
GlyphClass: 2
Flags: W
LayerCount: 2
Fore
SplineSet
433 143 m 0,0,1
 433 127 433 127 416.5 92.5 c 128,-1,2
 400 58 400 58 363 23.5 c 128,-1,3
 326 -11 326 -11 282 -11 c 0,4,5
 268 -11 268 -11 255.5 -4.5 c 128,-1,6
 243 2 243 2 237 8.5 c 128,-1,7
 231 15 231 15 220 28 c 0,8,9
 205 49 205 49 196 56.5 c 128,-1,10
 187 64 187 64 172 64 c 0,11,12
 159 64 159 64 147 58 c 128,-1,13
 135 52 135 52 122.5 37.5 c 128,-1,14
 110 23 110 23 107 18.5 c 128,-1,15
 104 14 104 14 93 -2 c 0,16,17
 88 -11 88 -11 77 -11 c 0,18,19
 62 -11 62 -11 62 -1 c 0,20,21
 62 8 62 8 95 54.5 c 128,-1,22
 128 101 128 101 166 138 c 2,23,-1
 330 301 l 2,24,25
 340 311 340 311 370 345 c 1,26,27
 344 345 344 345 311 360 c 0,28,29
 271 378 271 378 251 378 c 0,30,31
 225 378 225 378 204.5 363.5 c 128,-1,32
 184 349 184 349 177 331 c 0,33,34
 173 322 173 322 170.5 319.5 c 128,-1,35
 168 317 168 317 159 317 c 0,36,37
 144 317 144 317 144 328 c 0,38,39
 144 353 144 353 178.5 397.5 c 128,-1,40
 213 442 213 442 261 442 c 0,41,42
 293 442 293 442 322 403 c 0,43,44
 348 367 348 367 369 367 c 0,45,46
 383 367 383 367 395.5 378.5 c 128,-1,47
 408 390 408 390 431 429 c 0,48,49
 436 438 436 438 438.5 440 c 128,-1,50
 441 442 441 442 450 442 c 0,51,52
 464 442 464 442 464 432 c 0,53,54
 464 427 464 427 450 404.5 c 128,-1,55
 436 382 436 382 410 349 c 128,-1,56
 384 316 384 316 357 289 c 2,57,-1
 212 146 l 2,58,59
 191 125 191 125 156 85 c 1,60,61
 161 86 161 86 174 86 c 0,62,63
 197 86 197 86 236 69 c 0,64,65
 272 53 272 53 292 53 c 0,66,67
 325 53 325 53 356.5 76.5 c 128,-1,68
 388 100 388 100 401 137 c 0,69,70
 404 147 404 147 406.5 150 c 128,-1,71
 409 153 409 153 418 153 c 0,72,73
 433 153 433 153 433 143 c 0,0,1
EndSplineSet
EndChar

StartChar: braceleft
Encoding: 123 123 94
Width: 500
GlyphClass: 2
Flags: W
LayerCount: 2
Fore
SplineSet
612 739 m 0,0,1
 609 730 609 730 600 728 c 0,2,3
 529 724 529 724 478 682 c 0,4,5
 456 665 456 665 447.5 644 c 128,-1,6
 439 623 439 623 424 563 c 2,7,-1
 379 383 l 2,8,9
 375 366 375 366 369.5 354 c 128,-1,10
 364 342 364 342 349 320 c 128,-1,11
 334 298 334 298 303 280 c 128,-1,12
 272 262 272 262 228 250 c 1,13,14
 321 221 321 221 318 147 c 0,15,16
 316 127 316 127 297 56 c 2,17,-1
 260 -94 l 2,18,19
 250 -132 250 -132 251 -142 c 0,20,21
 251 -174 251 -174 276 -199.5 c 128,-1,22
 301 -225 301 -225 354 -228 c 0,23,24
 361 -229 361 -229 362.5 -229 c 128,-1,25
 364 -229 364 -229 367 -231.5 c 128,-1,26
 370 -234 370 -234 367 -239 c 0,27,28
 365 -250 365 -250 345 -250 c 0,29,30
 261 -250 261 -250 215 -212 c 0,31,32
 186 -187 186 -187 184 -155.5 c 128,-1,33
 182 -124 182 -124 195 -83 c 2,34,-1
 245 115 l 2,35,36
 254 145 254 145 248.5 166 c 128,-1,37
 243 187 243 187 234 201 c 128,-1,38
 225 215 225 215 207.5 223 c 128,-1,39
 190 231 190 231 176.5 234.5 c 128,-1,40
 163 238 163 238 148 239 c 0,41,42
 141 240 141 240 139.5 240 c 128,-1,43
 138 240 138 240 135 242.5 c 128,-1,44
 132 245 132 245 135 250 c 0,45,46
 137 261 137 261 151 261 c 0,47,48
 214 265 214 265 267 306 c 0,49,50
 291 326 291 326 300 348 c 128,-1,51
 309 370 309 370 327 444 c 2,52,-1
 373 627 l 2,53,54
 388 680 388 680 453 715 c 128,-1,55
 518 750 518 750 595 750 c 0,56,57
 601 750 601 750 603.5 750 c 128,-1,58
 606 750 606 750 609.5 749 c 128,-1,59
 613 748 613 748 612.5 745.5 c 128,-1,60
 612 743 612 743 612 739 c 0,0,1
EndSplineSet
EndChar

StartChar: bar
Encoding: 124 124 95
Width: 278
GlyphClass: 2
Flags: W
LayerCount: 2
Fore
SplineSet
105 -217 m 2,0,1
 96 -250 96 -250 77 -250 c 0,2,3
 56 -250 56 -250 65 -217 c 2,4,-1
 298 717 l 2,5,6
 307 750 307 750 327 750 c 128,-1,7
 347 750 347 750 338 717 c 2,8,-1
 105 -217 l 2,0,1
EndSplineSet
EndChar

StartChar: braceright
Encoding: 125 125 96
Width: 500
GlyphClass: 2
Flags: W
LayerCount: 2
Fore
SplineSet
490 250 m 0,0,1
 487 239 487 239 473 239 c 0,2,3
 408 235 408 235 358 194 c 0,4,5
 334 174 334 174 325 152.5 c 128,-1,6
 316 131 316 131 297 56 c 2,7,-1
 251 -127 l 2,8,9
 236 -180 236 -180 171.5 -215 c 128,-1,10
 107 -250 107 -250 30 -250 c 0,11,12
 23 -250 23 -250 20 -249.5 c 128,-1,13
 17 -249 17 -249 14 -246.5 c 128,-1,14
 11 -244 11 -244 12 -239 c 0,15,16
 15 -230 15 -230 24 -228 c 0,17,18
 57 -226 57 -226 83.5 -217.5 c 128,-1,19
 110 -209 110 -209 120 -202 c 128,-1,20
 130 -195 130 -195 147 -182 c 0,21,22
 168 -165 168 -165 176.5 -144 c 128,-1,23
 185 -123 185 -123 200 -63 c 2,24,-1
 245 117 l 2,25,26
 249 134 249 134 254.5 146 c 128,-1,27
 260 158 260 158 275 180 c 128,-1,28
 290 202 290 202 321.5 220 c 128,-1,29
 353 238 353 238 397 250 c 1,30,31
 303 278 303 278 306 353 c 0,32,33
 306 355 306 355 327 444 c 2,34,-1
 365 594 l 2,35,36
 374 633 374 633 374 642 c 0,37,38
 374 674 374 674 349 699.5 c 128,-1,39
 324 725 324 725 270 728 c 0,40,41
 263 729 263 729 261.5 729 c 128,-1,42
 260 729 260 729 257 731.5 c 128,-1,43
 254 734 254 734 257 739 c 0,44,45
 260 750 260 750 280 750 c 0,46,47
 362 750 362 750 409 712 c 0,48,49
 438 687 438 687 440 655.5 c 128,-1,50
 442 624 442 624 429 583 c 2,51,-1
 379 385 l 2,52,53
 370 355 370 355 375.5 334 c 128,-1,54
 381 313 381 313 390 299 c 128,-1,55
 399 285 399 285 416.5 277 c 128,-1,56
 434 269 434 269 447.5 265.5 c 128,-1,57
 461 262 461 262 476 261 c 0,58,59
 481 260 481 260 482.5 260 c 128,-1,60
 484 260 484 260 487.5 259 c 128,-1,61
 491 258 491 258 490 256 c 128,-1,62
 489 254 489 254 490 250 c 0,0,1
EndSplineSet
EndChar

StartChar: asciitilde
Encoding: 126 126 97
Width: 556
GlyphClass: 2
Flags: W
LayerCount: 2
Fore
SplineSet
627 290 m 1,0,-1
 562 246 l 2,1,2
 540 230 540 230 497 211 c 0,3,4
 452 193 452 193 419 193 c 0,5,6
 376 193 376 193 328 227 c 0,7,8
 273 264 273 264 233 264 c 0,9,10
 164 264 164 264 62 193 c 1,11,-1
 52 210 l 1,12,-1
 117 254 l 2,13,14
 141 270 141 270 183 289 c 0,15,16
 228 307 228 307 261 307 c 0,17,18
 302 307 302 307 352 273 c 0,19,20
 372 260 372 260 382 254 c 128,-1,21
 392 248 392 248 410 242 c 128,-1,22
 428 236 428 236 447 236 c 0,23,24
 514 236 514 236 618 307 c 1,25,-1
 627 290 l 1,0,-1
EndSplineSet
EndChar

StartChar: exclamdown
Encoding: 161 161 99
Width: 307
GlyphClass: 3
Flags: W
LayerCount: 2
Fore
SplineSet
320 457 m 0,0,1
 320 432 320 432 300 413 c 128,-1,2
 280 394 280 394 256 394 c 0,3,4
 235 394 235 394 223 407 c 128,-1,5
 211 420 211 420 211 437 c 0,6,7
 211 461 211 461 231 480.5 c 128,-1,8
 251 500 251 500 276 500 c 0,9,10
 295 500 295 500 307.5 488 c 128,-1,11
 320 476 320 476 320 457 c 0,0,1
168 -156 m 2,12,13
 164 -182 164 -182 147 -197 c 128,-1,14
 130 -212 130 -212 120 -214 c 128,-1,15
 110 -216 110 -216 103 -216 c 0,16,17
 82 -216 82 -216 70 -203.5 c 128,-1,18
 58 -191 58 -191 58 -175 c 0,19,20
 58 -168 58 -168 63 -154 c 2,21,-1
 212 296 l 2,22,23
 217 308 217 308 219.5 310.5 c 128,-1,24
 222 313 222 313 230 313 c 0,25,26
 245 313 245 313 245 301 c 0,27,28
 245 298 245 298 243 289 c 2,29,-1
 168 -156 l 2,12,13
EndSplineSet
Ligature2: "'dlig' Discretionary Ligatures lookup 13 subtable" exclam quoteleft
Ligature2: "'dlig' Discretionary Ligatures lookup 13 subtable" exclam grave
EndChar

StartChar: cent
Encoding: 162 162 100
Width: 460
GlyphClass: 2
Flags: W
LayerCount: 2
Fore
SplineSet
468 104 m 0,0,1
 468 99 468 99 459 86.5 c 128,-1,2
 450 74 450 74 432 58 c 128,-1,3
 414 42 414 42 390.5 27 c 128,-1,4
 367 12 367 12 333.5 1 c 128,-1,5
 300 -10 300 -10 265 -11 c 1,6,-1
 261 -30 l 2,7,8
 255 -45 255 -45 242 -45 c 0,9,10
 235 -45 235 -45 232 -40.5 c 128,-1,11
 229 -36 229 -36 231 -30 c 2,12,-1
 236 -10 l 1,13,14
 179 -2 179 -2 144.5 42 c 128,-1,15
 110 86 110 86 110 154 c 0,16,17
 110 258 110 258 184 345.5 c 128,-1,18
 258 433 258 433 348 441 c 1,19,-1
 353 461 l 2,20,21
 357 476 357 476 372 476 c 0,22,23
 378 476 378 476 381.5 471.5 c 128,-1,24
 385 467 385 467 383 461 c 2,25,-1
 378 441 l 1,26,27
 420 437 420 437 445 413.5 c 128,-1,28
 470 390 470 390 470 356 c 0,29,30
 470 329 470 329 455 312.5 c 128,-1,31
 440 296 440 296 419 296 c 0,32,33
 403 296 403 296 394 305.5 c 128,-1,34
 385 315 385 315 385 328 c 0,35,36
 385 330 385 330 385.5 333 c 128,-1,37
 386 336 386 336 388.5 343.5 c 128,-1,38
 391 351 391 351 395.5 357.5 c 128,-1,39
 400 364 400 364 410.5 369.5 c 128,-1,40
 421 375 421 375 435 377 c 1,41,42
 422 414 422 414 373 420 c 1,43,-1
 271 12 l 1,44,45
 306 14 306 14 352 35.5 c 128,-1,46
 398 57 398 57 439 109 c 0,47,48
 448 120 448 120 452 120 c 0,49,50
 458 120 458 120 463 114 c 128,-1,51
 468 108 468 108 468 104 c 0,0,1
241 13 m 1,52,-1
 342 417 l 1,53,54
 278 402 278 402 233 320 c 0,55,56
 214 284 214 284 197 219 c 128,-1,57
 180 154 180 154 180 114 c 0,58,59
 180 26 180 26 241 13 c 1,52,-1
EndSplineSet
Substitution2: "'onum' Oldstyle Figures lookup 4 subtable" cent.oldstyle
Substitution2: "'aalt' Access All Alternates lookup 0 subtable" cent.oldstyle
EndChar

StartChar: sterling
Encoding: 163 163 101
Width: 769
GlyphClass: 2
Flags: W
LayerCount: 2
Fore
SplineSet
633 138 m 0,0,1
 633 103 633 103 580 46 c 128,-1,2
 527 -11 527 -11 452 -11 c 0,3,4
 416 -11 416 -11 388.5 3 c 128,-1,5
 361 17 361 17 297 62 c 1,6,7
 270 29 270 29 230.5 9 c 128,-1,8
 191 -11 191 -11 155 -11 c 0,9,10
 127 -11 127 -11 107.5 1.5 c 128,-1,11
 88 14 88 14 88 38 c 0,12,13
 88 74 88 74 127 106.5 c 128,-1,14
 166 139 166 139 219 139 c 0,15,16
 250 139 250 139 278 127 c 1,17,18
 282 138 282 138 306 228 c 2,19,-1
 332 332 l 1,20,-1
 280 332 l 2,21,22
 256 332 256 332 256 342 c 128,-1,23
 256 352 256 352 259.5 356.5 c 128,-1,24
 263 361 263 361 267.5 362 c 128,-1,25
 272 363 272 363 283 363 c 2,26,-1
 340 363 l 1,27,-1
 379 523 l 2,28,29
 397 597 397 597 456.5 651.5 c 128,-1,30
 516 706 516 706 582 706 c 0,31,32
 638 706 638 706 668 668 c 128,-1,33
 698 630 698 630 698 573 c 0,34,35
 698 480 698 480 643 480 c 0,36,37
 630 480 630 480 619.5 488.5 c 128,-1,38
 609 497 609 497 609 512 c 0,39,40
 609 534 609 534 627 550 c 0,41,42
 639 560 639 560 667 560 c 1,43,-1
 667 577 l 2,44,45
 667 628 667 628 644.5 656 c 128,-1,46
 622 684 622 684 583 684 c 0,47,48
 545 684 545 684 507 648.5 c 128,-1,49
 469 613 469 613 448 539 c 2,50,-1
 404 363 l 1,51,-1
 481 363 l 2,52,53
 505 363 505 363 505 353 c 128,-1,54
 505 343 505 343 501.5 338.5 c 128,-1,55
 498 334 498 334 493.5 333 c 128,-1,56
 489 332 489 332 478 332 c 2,57,-1
 396 332 l 1,58,-1
 356 169 l 2,59,60
 348 137 348 137 326 100 c 1,61,62
 388 56 388 56 413 43 c 128,-1,63
 438 30 438 30 470 30 c 0,64,65
 511 30 511 30 548 59.5 c 128,-1,66
 585 89 585 89 600 131 c 0,67,68
 604 143 604 143 606.5 145.5 c 128,-1,69
 609 148 609 148 618 148 c 0,70,71
 633 148 633 148 633 138 c 0,0,1
258 85 m 1,72,73
 229 98 229 98 201 98 c 0,74,75
 170 98 170 98 147.5 78 c 128,-1,76
 125 58 125 58 125 37 c 0,77,78
 125 27 125 27 132.5 19 c 128,-1,79
 140 11 140 11 155 11 c 0,80,81
 180 11 180 11 208.5 30 c 128,-1,82
 237 49 237 49 258 85 c 1,72,73
EndSplineSet
EndChar

StartChar: currency
Encoding: 164 164 102
Width: 767
GlyphClass: 2
Flags: W
LayerCount: 2
Fore
SplineSet
614 37 m 0,0,1
 597 23 597 23 580 34 c 0,2,3
 579 35 579 35 578 36 c 128,-1,4
 577 37 577 37 575 40 c 128,-1,5
 573 43 573 43 570 47 c 2,6,-1
 530 100 l 1,7,8
 466 57 466 57 398 57 c 0,9,10
 328 57 328 57 287 100 c 1,11,-1
 220 46 l 2,12,13
 191 23 191 23 176 34 c 0,14,15
 160 45 160 45 190 68 c 2,16,-1
 265 128 l 1,17,18
 235 182 235 182 253 250 c 0,19,20
 269 317 269 317 326 372 c 1,21,-1
 278 435 l 2,22,23
 264 451 264 451 279 464 c 0,24,25
 297 477 297 477 312 467 c 0,26,27
 315 465 315 465 322 454 c 2,28,-1
 363 401 l 1,29,30
 426 443 426 443 494 443 c 0,31,32
 564 443 564 443 605 400 c 1,33,-1
 672 454 l 2,34,35
 701 477 701 477 716 466 c 0,36,37
 732 455 732 455 702 432 c 2,38,-1
 626 372 l 1,39,40
 657 318 657 318 639 250 c 0,41,42
 623 183 623 183 567 129 c 1,43,-1
 615 66 l 2,44,45
 627 48 627 48 614 37 c 0,0,1
599 250 m 128,-1,47
 615 314 615 314 581.5 358.5 c 128,-1,48
 548 403 548 403 484 403 c 128,-1,49
 420 403 420 403 364.5 358.5 c 128,-1,50
 309 314 309 314 293 250 c 128,-1,51
 277 186 277 186 310.5 141.5 c 128,-1,52
 344 97 344 97 408 97 c 0,53,54
 471 97 471 97 527 141.5 c 128,-1,46
 583 186 583 186 599 250 c 128,-1,47
EndSplineSet
EndChar

StartChar: yen
Encoding: 165 165 103
Width: 743
GlyphClass: 2
Flags: W
LayerCount: 2
Fore
SplineSet
874 672 m 2,0,1
 874 659 874 659 869.5 656 c 128,-1,2
 865 653 865 653 855 652 c 0,3,4
 818 649 818 649 787 630.5 c 128,-1,5
 756 612 756 612 722 570 c 2,6,-1
 527 333 l 1,7,-1
 678 333 l 2,8,9
 684 333 684 333 687.5 328.5 c 128,-1,10
 691 324 691 324 690 318 c 0,11,12
 686 303 686 303 671 303 c 2,13,-1
 502 303 l 1,14,-1
 486 283 l 2,15,16
 480 276 480 276 474 256 c 2,17,-1
 459 197 l 1,18,-1
 644 197 l 2,19,20
 650 197 650 197 653.5 192.5 c 128,-1,21
 657 188 657 188 656 182 c 0,22,23
 652 167 652 167 637 167 c 2,24,-1
 452 167 l 1,25,-1
 443 133 l 2,26,27
 424 54 424 54 424 48 c 0,28,29
 424 37 424 37 438 34 c 128,-1,30
 452 31 452 31 482 31 c 0,31,32
 493 31 493 31 497.5 30.5 c 128,-1,33
 502 30 502 30 505.5 27.5 c 128,-1,34
 509 25 509 25 509 19 c 0,35,36
 509 0 509 0 490 0 c 128,-1,37
 471 0 471 0 431 1.5 c 128,-1,38
 391 3 391 3 371 3 c 0,39,40
 352 3 352 3 313 1.5 c 128,-1,41
 274 0 274 0 255 0 c 0,42,43
 241 0 241 0 241 12 c 0,44,45
 241 25 241 25 247 28 c 128,-1,46
 253 31 253 31 266 31 c 0,47,48
 321 32 321 32 332.5 40 c 128,-1,49
 344 48 344 48 354 90 c 2,50,-1
 374 167 l 1,51,-1
 191 167 l 2,52,53
 176 167 176 167 180 182 c 128,-1,54
 184 197 184 197 198 197 c 2,55,-1
 381 197 l 1,56,57
 400 271 400 271 400 273 c 0,58,59
 400 278 400 278 396 288 c 2,60,-1
 391 303 l 1,61,-1
 225 303 l 2,62,63
 210 303 210 303 214 318 c 128,-1,64
 218 333 218 333 232 333 c 2,65,-1
 382 333 l 1,66,-1
 290 622 l 2,67,68
 285 640 285 640 272.5 646 c 128,-1,69
 260 652 260 652 226 652 c 0,70,71
 202 652 202 652 202 664 c 0,72,73
 202 683 202 683 221 683 c 0,74,75
 237 683 237 683 272.5 681.5 c 128,-1,76
 308 680 308 680 325 680 c 0,77,78
 345 680 345 680 384 681.5 c 128,-1,79
 423 683 423 683 442 683 c 0,80,81
 456 683 456 683 456 671 c 0,82,83
 456 658 456 658 450.5 655 c 128,-1,84
 445 652 445 652 434 652 c 0,85,86
 378 652 378 652 378 628 c 0,87,88
 378 625 378 625 382 615 c 2,89,-1
 471 333 l 1,90,-1
 492 333 l 1,91,-1
 696 582 l 1,92,-1
 699 586 l 2,93,94
 702 590 702 590 705.5 595 c 128,-1,95
 709 600 709 600 712.5 606 c 128,-1,96
 716 612 716 612 718.5 618 c 128,-1,97
 721 624 721 624 721 629 c 0,98,99
 721 650 721 650 690 652 c 0,100,101
 675 652 675 652 675 664 c 0,102,103
 675 683 675 683 693 683 c 0,104,105
 708 683 708 683 739 681.5 c 128,-1,106
 770 680 770 680 786 680 c 0,107,108
 799 680 799 680 824.5 681.5 c 128,-1,109
 850 683 850 683 862 683 c 0,110,111
 867 683 867 683 870 680.5 c 128,-1,112
 873 678 873 678 874 675 c 2,113,-1
 874 672 l 2,0,1
EndSplineSet
EndChar

StartChar: brokenbar
Encoding: 166 166 104
Width: 278
GlyphClass: 2
Flags: W
LayerCount: 2
Fore
SplineSet
245 343 m 2,0,1
 242 328 242 328 221 328 c 0,2,3
 213 328 213 328 208.5 332 c 128,-1,4
 204 336 204 336 205 343 c 2,5,-1
 298 717 l 2,6,7
 307 750 307 750 327 750 c 128,-1,8
 347 750 347 750 338 717 c 2,9,-1
 245 343 l 2,0,1
105 -217 m 2,10,11
 96 -250 96 -250 77 -250 c 0,12,13
 56 -250 56 -250 65 -217 c 2,14,-1
 158 157 l 2,15,16
 161 172 161 172 182 172 c 0,17,18
 190 172 190 172 194.5 168 c 128,-1,19
 199 164 199 164 198 157 c 2,20,-1
 105 -217 l 2,10,11
EndSplineSet
EndChar

StartChar: section
Encoding: 167 167 105
Width: 490
GlyphClass: 2
Flags: W
LayerCount: 2
Fore
SplineSet
507 194 m 0,0,1
 487 118 487 118 390 74 c 1,2,3
 417 21 417 21 401 -38 c 0,4,5
 384 -110 384 -110 322.5 -161.5 c 128,-1,6
 261 -213 261 -213 192 -213 c 0,7,8
 125 -213 125 -213 95.5 -158.5 c 128,-1,9
 66 -104 66 -104 85 -29 c 0,10,11
 89 -13 89 -13 103.5 -1 c 128,-1,12
 118 11 118 11 135 11 c 0,13,14
 151 11 151 11 160 -0.5 c 128,-1,15
 169 -12 169 -12 165 -29 c 0,16,17
 160 -46 160 -46 145.5 -57.5 c 128,-1,18
 131 -69 131 -69 115 -69 c 2,19,-1
 110 -69 l 1,20,21
 111 -112 111 -112 136 -139.5 c 128,-1,22
 161 -167 161 -167 203 -167 c 0,23,24
 251 -167 251 -167 291.5 -128.5 c 128,-1,25
 332 -90 332 -90 345 -38 c 0,26,27
 364 37 364 37 278 86 c 2,28,-1
 197 134 l 2,29,30
 147 164 147 164 121 208 c 128,-1,31
 95 252 95 252 108 306 c 0,32,33
 128 382 128 382 225 426 c 1,34,35
 199 479 199 479 214 538 c 0,36,37
 231 610 231 610 292.5 661.5 c 128,-1,38
 354 713 354 713 423 713 c 0,39,40
 490 713 490 713 519.5 658.5 c 128,-1,41
 549 604 549 604 530 529 c 0,42,43
 526 513 526 513 511.5 501 c 128,-1,44
 497 489 497 489 480 489 c 0,45,46
 464 489 464 489 455 500.5 c 128,-1,47
 446 512 446 512 450 529 c 0,48,49
 455 546 455 546 469.5 557.5 c 128,-1,50
 484 569 484 569 500 569 c 2,51,-1
 505 569 l 1,52,53
 504 612 504 612 479 639.5 c 128,-1,54
 454 667 454 667 412 667 c 0,55,56
 364 667 364 667 323.5 628.5 c 128,-1,57
 283 590 283 590 270 538 c 0,58,59
 251 463 251 463 337 414 c 2,60,-1
 418 366 l 2,61,62
 468 336 468 336 494 292 c 128,-1,63
 520 248 520 248 507 194 c 0,0,1
435 194 m 0,64,65
 452 264 452 264 373 309 c 2,66,-1
 292 357 l 2,67,68
 262 375 262 375 240 403 c 1,69,70
 199 375 199 375 180 306 c 0,71,72
 163 236 163 236 242 191 c 2,73,-1
 323 143 l 2,74,75
 356 122 356 122 375 97 c 1,76,77
 416 123 416 123 435 194 c 0,64,65
EndSplineSet
EndChar

StartChar: dieresis
Encoding: 168 168 106
Width: 511
GlyphClass: 2
Flags: W
LayerCount: 2
Fore
SplineSet
366 610 m 0,0,1
 366 588 366 588 348 570.5 c 128,-1,2
 330 553 330 553 309 553 c 0,3,4
 290 553 290 553 279 564.5 c 128,-1,5
 268 576 268 576 268 592 c 0,6,7
 268 614 268 614 286 631.5 c 128,-1,8
 304 649 304 649 326 649 c 0,9,10
 345 649 345 649 355.5 637.5 c 128,-1,11
 366 626 366 626 366 610 c 0,0,1
543 610 m 0,12,13
 543 588 543 588 525 570.5 c 128,-1,14
 507 553 507 553 486 553 c 0,15,16
 467 553 467 553 456 564.5 c 128,-1,17
 445 576 445 576 445 592 c 0,18,19
 445 614 445 614 463 631.5 c 128,-1,20
 481 649 481 649 503 649 c 0,21,22
 522 649 522 649 532.5 637.5 c 128,-1,23
 543 626 543 626 543 610 c 0,12,13
EndSplineSet
EndChar

StartChar: copyright
Encoding: 169 169 107
Width: 683
GlyphClass: 2
Flags: W
LayerCount: 2
Fore
SplineSet
683 342 m 0,0,1
 683 200 683 200 583 100 c 128,-1,2
 483 0 483 0 342 0 c 0,3,4
 200 0 200 0 100 100 c 128,-1,5
 0 200 0 200 0 342 c 0,6,7
 0 483 0 483 100 583 c 128,-1,8
 200 683 200 683 342 683 c 0,9,10
 483 683 483 683 583 583 c 128,-1,11
 683 483 683 483 683 342 c 0,0,1
643 342 m 0,12,13
 643 466 643 466 554.5 554.5 c 128,-1,14
 466 643 466 643 342 643 c 0,15,16
 217 643 217 643 128.5 555 c 128,-1,17
 40 467 40 467 40 342 c 128,-1,18
 40 217 40 217 128.5 128.5 c 128,-1,19
 217 40 217 40 342 40 c 128,-1,20
 467 40 467 40 555 128.5 c 128,-1,21
 643 217 643 217 643 342 c 0,12,13
544 545 m 2,22,-1
 507 399 l 2,23,24
 505 389 505 389 496 389 c 128,-1,25
 487 389 487 389 487 395 c 0,26,27
 490 416 490 416 490 431 c 0,28,29
 490 476 490 476 469.5 508.5 c 128,-1,30
 449 541 449 541 405 541 c 0,31,32
 369 541 369 541 331 519.5 c 128,-1,33
 293 498 293 498 264 458 c 0,34,35
 232 414 232 414 216.5 356 c 128,-1,36
 201 298 201 298 201 261 c 0,37,38
 201 202 201 202 231 172.5 c 128,-1,39
 261 143 261 143 304 143 c 128,-1,40
 347 143 347 143 392.5 178 c 128,-1,41
 438 213 438 213 459 282 c 0,42,43
 461 287 461 287 468 287 c 0,44,45
 477 287 477 287 477 281 c 0,46,47
 477 246 477 246 424 185 c 128,-1,48
 371 124 371 124 295 124 c 0,49,50
 232 124 232 124 190.5 168 c 128,-1,51
 149 212 149 212 149 284 c 0,52,53
 149 389 149 389 228 474 c 128,-1,54
 307 559 307 559 401 559 c 0,55,56
 459 559 459 559 491 508 c 1,57,-1
 529 553 l 1,58,-1
 538 559 l 2,59,60
 541 559 541 559 542.5 557.5 c 128,-1,61
 544 556 544 556 544 554 c 2,62,-1
 545 553 l 2,63,64
 545 552 545 552 544.5 549 c 128,-1,65
 544 546 544 546 544 545 c 2,22,-1
EndSplineSet
EndChar

StartChar: ordfeminine
Encoding: 170 170 108
Width: 473
GlyphClass: 2
Flags: W
LayerCount: 2
Fore
SplineSet
543 496 m 0,0,1
 535 454 535 454 522 427 c 0,2,3
 500 388 500 388 462 388 c 0,4,5
 438 388 438 388 418 400.5 c 128,-1,6
 398 413 398 413 390 437 c 1,7,8
 344 388 344 388 292 388 c 0,9,10
 246 388 246 388 216.5 419.5 c 128,-1,11
 187 451 187 451 185 497 c 0,12,13
 181 573 181 573 238.5 639 c 128,-1,14
 296 705 296 705 367 705 c 0,15,16
 415 705 415 705 438 664 c 1,17,18
 445 691 445 691 471 691 c 0,19,20
 493 691 493 691 494 673 c 0,21,22
 494 668 494 668 492 658 c 2,23,-1
 444 468 l 2,24,25
 440 452 440 452 440 432 c 0,26,27
 440 404 440 404 463 404 c 0,28,29
 494 404 494 404 515 487 c 0,30,31
 517 494 517 494 518 496 c 128,-1,32
 519 498 519 498 520.5 500.5 c 128,-1,33
 522 503 522 503 524 503 c 128,-1,34
 526 503 526 503 530 503 c 0,35,36
 543 503 543 503 543 496 c 0,0,1
492 348 m 0,37,38
 488 337 488 337 474 337 c 2,39,-1
 167 337 l 2,40,41
 161 337 161 337 157.5 340.5 c 128,-1,42
 154 344 154 344 155 348 c 0,43,44
 157 358 157 358 173 358 c 2,45,-1
 479 358 l 2,46,47
 486 358 486 358 489.5 355.5 c 128,-1,48
 493 353 493 353 492 348 c 0,37,38
394 483 m 2,49,-1
 427 615 l 1,50,-1
 429 624 l 1,51,52
 427 649 427 649 410 669.5 c 128,-1,53
 393 690 393 690 367 690 c 0,54,55
 342 690 342 690 317 667.5 c 128,-1,56
 292 645 292 645 277 612 c 0,57,58
 266 588 266 588 254 539.5 c 128,-1,59
 242 491 242 491 243 466 c 0,60,61
 244 443 244 443 255.5 423.5 c 128,-1,62
 267 404 267 404 293 404 c 0,63,64
 324 404 324 404 356 433 c 128,-1,65
 388 462 388 462 394 483 c 2,49,-1
EndSplineSet
EndChar

StartChar: guillemotleft
Encoding: 171 171 109
Width: 562
GlyphClass: 2
Flags: W
LayerCount: 2
Fore
SplineSet
285 12 m 0,0,1
 285 8 285 8 281 4 c 128,-1,2
 277 0 277 0 272 0 c 2,3,-1
 270 0 l 2,4,5
 262 0 262 0 262 7 c 0,6,7
 254 134 254 134 190 235 c 0,8,9
 186 243 186 243 194 248 c 0,10,11
 306 347 306 347 380 476 c 0,12,13
 384 483 384 483 391 483 c 2,14,-1
 393 483 l 2,15,16
 404 483 404 483 400 471 c 0,17,18
 342 348 342 348 255 242 c 1,19,20
 290 134 290 134 285 12 c 0,0,1
438 12 m 0,21,22
 438 8 438 8 434 4 c 128,-1,23
 430 0 430 0 425 0 c 2,24,-1
 423 0 l 2,25,26
 415 0 415 0 415 7 c 0,27,28
 407 134 407 134 343 235 c 0,29,30
 339 243 339 243 347 248 c 0,31,32
 459 347 459 347 533 476 c 0,33,34
 536 483 536 483 544 483 c 2,35,-1
 546 483 l 2,36,37
 557 483 557 483 553 471 c 0,38,39
 495 348 495 348 408 242 c 1,40,41
 443 134 443 134 438 12 c 0,21,22
EndSplineSet
EndChar

StartChar: logicalnot
Encoding: 172 172 110
Width: 767
GlyphClass: 2
Flags: W
LayerCount: 2
Fore
SplineSet
778 347 m 2,0,-1
 729 153 l 2,1,2
 728 145 728 145 720 139 c 128,-1,3
 712 133 712 133 704 133 c 128,-1,4
 696 133 696 133 691.5 139 c 128,-1,5
 687 145 687 145 689 153 c 2,6,-1
 733 327 l 1,7,-1
 178 327 l 2,8,9
 170 327 170 327 165.5 333 c 128,-1,10
 161 339 161 339 163 347 c 128,-1,11
 165 355 165 355 172.5 361 c 128,-1,12
 180 367 180 367 188 367 c 2,13,-1
 763 367 l 2,14,15
 771 367 771 367 775.5 361 c 128,-1,16
 780 355 780 355 778 347 c 2,0,-1
EndSplineSet
EndChar

StartChar: registered
Encoding: 174 174 111
Width: 683
GlyphClass: 2
Flags: W
LayerCount: 2
Fore
SplineSet
683 342 m 0,0,1
 683 200 683 200 583 100 c 128,-1,2
 483 0 483 0 342 0 c 0,3,4
 200 0 200 0 100 100 c 128,-1,5
 0 200 0 200 0 342 c 0,6,7
 0 483 0 483 100 583 c 128,-1,8
 200 683 200 683 342 683 c 0,9,10
 483 683 483 683 583 583 c 128,-1,11
 683 483 683 483 683 342 c 0,0,1
643 342 m 0,12,13
 643 466 643 466 554.5 554.5 c 128,-1,14
 466 643 466 643 342 643 c 0,15,16
 217 643 217 643 128.5 555 c 128,-1,17
 40 467 40 467 40 342 c 128,-1,18
 40 217 40 217 128.5 128.5 c 128,-1,19
 217 40 217 40 342 40 c 128,-1,20
 467 40 467 40 555 128.5 c 128,-1,21
 643 217 643 217 643 342 c 0,12,13
549 199 m 0,22,23
 549 194 549 194 543 179 c 128,-1,24
 537 164 537 164 520 147.5 c 128,-1,25
 503 131 503 131 481 131 c 0,26,27
 450 131 450 131 428.5 147 c 128,-1,28
 407 163 407 163 407 194 c 0,29,30
 407 205 407 205 415 242 c 0,31,32
 426 284 426 284 426 289 c 0,33,34
 426 342 426 342 369 342 c 2,35,-1
 305 342 l 1,36,-1
 266 185 l 2,37,38
 263 176 263 176 263 173 c 0,39,40
 263 169 263 169 264 167 c 128,-1,41
 265 165 265 165 273.5 163.5 c 128,-1,42
 282 162 282 162 298 162 c 128,-1,43
 314 162 314 162 314 155 c 0,44,45
 314 144 314 144 303 144 c 128,-1,46
 292 144 292 144 268 145 c 128,-1,47
 244 146 244 146 232 146 c 128,-1,48
 220 146 220 146 197 145 c 128,-1,49
 174 144 174 144 162 144 c 0,50,51
 154 144 154 144 154 151 c 0,52,53
 154 162 154 162 170 162 c 0,54,55
 199 162 199 162 207 166.5 c 128,-1,56
 215 171 215 171 219 188 c 2,57,-1
 300 513 l 2,58,59
 302 521 302 521 302 524 c 0,60,61
 302 534 302 534 268 534 c 0,62,63
 251 534 251 534 251 541 c 0,64,65
 251 553 251 553 268 553 c 2,66,-1
 426 553 l 2,67,68
 480 553 480 553 513 527 c 128,-1,69
 546 501 546 501 546 464 c 0,70,71
 546 428 546 428 513 395 c 128,-1,72
 480 362 480 362 420 347 c 1,73,74
 472 329 472 329 472 277 c 0,75,76
 472 258 472 258 467 225 c 0,77,78
 463 193 463 193 463 179 c 0,79,80
 463 144 463 144 483 144 c 0,81,82
 514 144 514 144 530 197 c 0,83,84
 535 207 535 207 540 207 c 0,85,86
 549 207 549 207 549 199 c 0,22,23
492 478 m 0,87,88
 492 498 492 498 483 510.5 c 128,-1,89
 474 523 474 523 456.5 527.5 c 128,-1,90
 439 532 439 532 427 533 c 128,-1,91
 415 534 415 534 395 534 c 0,92,93
 365 534 365 534 360 533 c 0,94,95
 351 531 351 531 347 513 c 2,96,-1
 308 355 l 1,97,-1
 369 355 l 2,98,99
 424 355 424 355 457 386 c 0,100,101
 492 421 492 421 492 478 c 0,87,88
EndSplineSet
EndChar

StartChar: macron
Encoding: 175 175 112
Width: 511
GlyphClass: 2
Flags: W
LayerCount: 2
Fore
SplineSet
572 605 m 0,0,1
 572 592 572 592 566 589 c 128,-1,2
 560 586 560 586 545 586 c 2,3,-1
 265 586 l 2,4,5
 255 586 255 586 250.5 586.5 c 128,-1,6
 246 587 246 587 243 590 c 128,-1,7
 240 593 240 593 240 599 c 0,8,9
 240 611 240 611 246 613.5 c 128,-1,10
 252 616 252 616 267 616 c 2,11,-1
 547 616 l 2,12,13
 572 616 572 616 572 605 c 0,0,1
EndSplineSet
EndChar

StartChar: degree
Encoding: 176 176 113
Width: 383
GlyphClass: 2
Flags: W
LayerCount: 2
Fore
SplineSet
458 556 m 0,0,1
 445 503 445 503 398.5 465.5 c 128,-1,2
 352 428 352 428 299 428 c 128,-1,3
 246 428 246 428 218 465.5 c 128,-1,4
 190 503 190 503 203 556 c 0,5,6
 216 608 216 608 263 645.5 c 128,-1,7
 310 683 310 683 363 683 c 128,-1,8
 416 683 416 683 443.5 645.5 c 128,-1,9
 471 608 471 608 458 556 c 0,0,1
418 556 m 0,10,11
 427 592 427 592 408 617.5 c 128,-1,12
 389 643 389 643 353 643 c 0,13,14
 316 643 316 643 284 617.5 c 128,-1,15
 252 592 252 592 243 556 c 0,16,17
 234 519 234 519 253 493.5 c 128,-1,18
 272 468 272 468 309 468 c 0,19,20
 345 468 345 468 377 493.5 c 128,-1,21
 409 519 409 519 418 556 c 0,10,11
EndSplineSet
EndChar

StartChar: plusminus
Encoding: 177 177 114
Width: 767
GlyphClass: 2
Flags: W
LayerCount: 2
Fore
SplineSet
695 20 m 128,-1,1
 695 0 695 0 662 0 c 2,2,-1
 116 0 l 2,3,4
 83 0 83 0 83 20 c 128,-1,5
 83 40 83 40 116 40 c 2,6,-1
 373 40 l 1,7,-1
 435 287 l 1,8,-1
 187 287 l 2,9,10
 154 287 154 287 154 307 c 128,-1,11
 154 327 154 327 187 327 c 2,12,-1
 445 327 l 1,13,-1
 510 589 l 2,14,15
 516 614 516 614 532 614 c 0,16,17
 541 614 541 614 546.5 608 c 128,-1,18
 552 602 552 602 552 594 c 0,19,20
 552 589 552 589 548 575 c 2,21,-1
 486 327 l 1,22,-1
 733 327 l 2,23,24
 766 327 766 327 766 307 c 128,-1,25
 766 287 766 287 733 287 c 2,26,-1
 476 287 l 1,27,-1
 415 40 l 1,28,-1
 662 40 l 2,29,0
 695 40 695 40 695 20 c 128,-1,1
EndSplineSet
EndChar

StartChar: two.superior
Encoding: 178 178 115
Width: 359
GlyphClass: 2
Flags: W
LayerCount: 2
Fore
SplineSet
397 410 m 5,0,-1
 377 306 l 5,1,-1
 110 306 l 5,2,3
 110 321 110 321 118 328 c 6,4,-1
 256 456 l 6,5,6
 332 528 332 528 332 589 c 4,7,8
 332 629 332 629 307 658 c 132,-1,9
 282 687 282 687 235 687 c 4,10,11
 204 687 204 687 177 671 c 132,-1,12
 150 655 150 655 138 626 c 5,13,-1
 147 626 l 6,14,15
 166 626 166 626 176 617 c 132,-1,16
 186 608 186 608 186 595 c 4,17,18
 186 578 186 578 173.5 570.5 c 132,-1,19
 161 563 161 563 148 563 c 4,20,21
 143 563 143 563 136.5 564 c 132,-1,22
 130 565 130 565 120 573.5 c 132,-1,23
 110 582 110 582 110 597 c 4,24,25
 110 639 110 639 148 672 c 132,-1,26
 186 705 186 705 245 705 c 4,27,28
 311 705 311 705 354 672.5 c 132,-1,29
 397 640 397 640 397 589 c 4,30,31
 397 547 397 547 367 515.5 c 132,-1,32
 337 484 337 484 242 414 c 5,33,-1
 165 352 l 5,34,-1
 295 352 l 6,35,36
 358 352 358 352 363 357 c 4,37,38
 372 367 372 367 379 410 c 5,39,-1
 397 410 l 5,0,-1
EndSplineSet
EndChar

StartChar: three.superior
Encoding: 179 179 116
Width: 359
GlyphClass: 2
Flags: W
LayerCount: 2
Fore
SplineSet
409 408 m 0,0,1
 409 361 409 361 365 327 c 128,-1,2
 321 293 321 293 256 293 c 0,3,4
 196 293 196 293 153 319.5 c 128,-1,5
 110 346 110 346 110 387 c 0,6,7
 110 405 110 405 122.5 413.5 c 128,-1,8
 135 422 135 422 151 422 c 128,-1,9
 167 422 167 422 179 413 c 128,-1,10
 191 404 191 404 191 388 c 0,11,12
 191 371 191 371 177 362 c 128,-1,13
 163 353 163 353 143 355 c 1,14,15
 161 331 161 331 193 320 c 128,-1,16
 225 309 225 309 254 309 c 0,17,18
 285 309 285 309 310 331.5 c 128,-1,19
 335 354 335 354 335 408 c 0,20,21
 335 454 335 454 313.5 481 c 128,-1,22
 292 508 292 508 249 508 c 2,23,-1
 218 508 l 2,24,25
 200 508 200 508 200 515 c 0,26,27
 200 520 200 520 211 522 c 0,28,29
 227 522 227 522 239 524 c 0,30,31
 281 524 281 524 303 555 c 0,32,33
 323 582 323 582 323 623 c 0,34,35
 323 660 323 660 302.5 675 c 128,-1,36
 282 690 282 690 254 690 c 0,37,38
 186 690 186 690 158 653 c 1,39,40
 203 653 203 653 203 623 c 0,41,42
 203 610 203 610 193 601.5 c 128,-1,43
 183 593 183 593 166 593 c 0,44,45
 150 593 150 593 140 601 c 128,-1,46
 130 609 130 609 130 624 c 0,47,48
 130 658 130 658 166.5 681.5 c 128,-1,49
 203 705 203 705 257 705 c 128,-1,50
 311 705 311 705 350.5 682 c 128,-1,51
 390 659 390 659 390 623 c 128,-1,52
 390 587 390 587 362 558 c 128,-1,53
 334 529 334 529 289 517 c 1,54,55
 344 507 344 507 376.5 476.5 c 128,-1,56
 409 446 409 446 409 408 c 0,0,1
EndSplineSet
EndChar

StartChar: acute
Encoding: 180 180 117
Width: 511
GlyphClass: 2
Flags: W
LayerCount: 2
Fore
SplineSet
539 668 m 0,0,1
 539 649 539 649 519 636 c 2,2,-1
 358 513 l 2,3,4
 349 505 349 505 344 505 c 128,-1,5
 339 505 339 505 333.5 510.5 c 128,-1,6
 328 516 328 516 328 522 c 0,7,8
 328 527 328 527 338 537 c 2,9,-1
 480 679 l 2,10,11
 497 696 497 696 511 696 c 0,12,13
 521 696 521 696 530 688.5 c 128,-1,14
 539 681 539 681 539 668 c 0,0,1
EndSplineSet
EndChar

StartChar: mu
Encoding: 181 181 118
Width: 511
GlyphClass: 2
Flags: W
LayerCount: 2
Fore
SplineSet
535 143 m 0,0,1
 535 141 535 141 531 124.5 c 128,-1,2
 527 108 527 108 520 84 c 128,-1,3
 513 60 513 60 506 46 c 0,4,5
 483 5 483 5 460 -5 c 0,6,7
 447 -11 447 -11 433 -11 c 0,8,9
 406 -11 406 -11 382.5 6 c 128,-1,10
 359 23 359 23 352 56 c 1,11,12
 294 -11 294 -11 228 -11 c 0,13,14
 173 -11 173 -11 139 18 c 1,15,16
 125 -37 125 -37 115.5 -74.5 c 128,-1,17
 106 -112 106 -112 103.5 -123.5 c 128,-1,18
 101 -135 101 -135 98.5 -144 c 128,-1,19
 96 -153 96 -153 93 -164 c 0,20,21
 89 -182 89 -182 85.5 -191 c 128,-1,22
 82 -200 82 -200 73.5 -208 c 128,-1,23
 65 -216 65 -216 51 -216 c 0,24,25
 38 -216 38 -216 30.5 -208 c 128,-1,26
 23 -200 23 -200 23 -190 c 0,27,28
 23 -188 23 -188 26 -173 c 2,29,-1
 170 401 l 2,30,31
 179 441 179 441 210 441 c 0,32,33
 221 441 221 441 229 434 c 128,-1,34
 237 427 237 427 237 415 c 2,35,-1
 222 352 l 1,36,-1
 177 172 l 2,37,38
 165 124 165 124 165 94 c 0,39,40
 165 11 165 11 232 11 c 0,41,42
 277 11 277 11 312 48 c 128,-1,43
 347 85 347 85 355 117 c 2,44,-1
 424 392 l 2,45,46
 434 430 434 430 463 430 c 0,47,48
 490 430 490 430 490 404 c 0,49,50
 490 394 490 394 475 341 c 0,51,52
 469 313 469 313 458 273 c 2,53,-1
 428 150 l 2,54,55
 408 68 408 68 408 51 c 0,56,57
 408 11 408 11 434 11 c 0,58,59
 452 11 452 11 467.5 35 c 128,-1,60
 483 59 483 59 501 131 c 0,61,62
 505 146 505 146 508 149.5 c 128,-1,63
 511 153 511 153 520 153 c 0,64,65
 535 153 535 153 535 143 c 0,0,1
EndSplineSet
EndChar

StartChar: paragraph
Encoding: 182 182 119
Width: 611
GlyphClass: 2
Flags: W
LayerCount: 2
Fore
SplineSet
751 674 m 0,0,1
 746 654 746 654 713 654 c 2,2,-1
 663 654 l 1,3,-1
 459 -161 l 2,4,5
 450 -194 450 -194 431 -194 c 0,6,7
 410 -194 410 -194 419 -161 c 2,8,-1
 623 654 l 1,9,-1
 553 654 l 1,10,-1
 349 -161 l 2,11,12
 340 -194 340 -194 321 -194 c 0,13,14
 300 -194 300 -194 309 -161 c 2,15,-1
 407 230 l 1,16,17
 357 232 357 232 311 247 c 128,-1,18
 265 262 265 262 227.5 289 c 128,-1,19
 190 316 190 316 174 361.5 c 128,-1,20
 158 407 158 407 172 463 c 0,21,22
 195 558 195 558 285.5 626 c 128,-1,23
 376 694 376 694 480 694 c 2,24,-1
 723 694 l 2,25,26
 733 694 733 694 738.5 693.5 c 128,-1,27
 744 693 744 693 748.5 688 c 128,-1,28
 753 683 753 683 751 674 c 0,0,1
EndSplineSet
EndChar

StartChar: periodcentered
Encoding: 183 183 120
Width: 767
GlyphClass: 2
Flags: W
LayerCount: 2
Fore
SplineSet
523 352 m 0,0,1
 523 329 523 329 503 309 c 128,-1,2
 483 289 483 289 458 289 c 0,3,4
 438 289 438 289 426 301 c 128,-1,5
 414 313 414 313 414 332 c 0,6,7
 414 356 414 356 434.5 375.5 c 128,-1,8
 455 395 455 395 479 395 c 0,9,10
 499 395 499 395 511 382 c 128,-1,11
 523 369 523 369 523 352 c 0,0,1
EndSplineSet
EndChar

StartChar: cedilla
Encoding: 184 184 121
Width: 460
GlyphClass: 2
Flags: W
LayerCount: 2
Fore
SplineSet
336 -109 m 0,0,1
 336 -192 336 -192 140 -192 c 2,2,-1
 115 -192 l 2,3,4
 102 -192 102 -192 102 -181 c 128,-1,5
 102 -170 102 -170 127 -170 c 2,6,-1
 137 -170 l 2,7,8
 272 -170 272 -170 272 -108 c 0,9,10
 272 -75 272 -75 224 -71 c 0,11,12
 209 -69 209 -69 209 -58 c 0,13,14
 209 -56 209 -56 212.5 -43 c 128,-1,15
 216 -30 216 -30 219.5 -14.5 c 128,-1,16
 223 1 223 1 224 4 c 0,17,18
 226 10 226 10 249 10 c 2,19,-1
 262 10 l 2,20,21
 288 10 288 10 289 3 c 2,22,-1
 275 -54 l 1,23,24
 336 -66 336 -66 336 -109 c 0,0,1
EndSplineSet
EndChar

StartChar: one.superior
Encoding: 185 185 122
Width: 366
GlyphClass: 2
Flags: W
LayerCount: 2
Fore
SplineSet
348 306 m 1,0,1
 322 308 322 308 231 308 c 128,-1,2
 140 308 140 308 114 306 c 1,3,-1
 114 324 l 1,4,-1
 137 324 l 2,5,6
 183 324 183 324 193.5 330 c 128,-1,7
 204 336 204 336 204 353 c 2,8,-1
 204 664 l 1,9,10
 167 648 167 648 110 648 c 1,11,-1
 110 667 l 1,12,13
 196 667 196 667 241 705 c 1,14,15
 253 705 253 705 255.5 703 c 128,-1,16
 258 701 258 701 258 690 c 2,17,-1
 258 353 l 2,18,19
 258 335 258 335 268.5 329.5 c 128,-1,20
 279 324 279 324 325 324 c 2,21,-1
 348 324 l 1,22,-1
 348 306 l 1,0,1
EndSplineSet
EndChar

StartChar: ordmasculine
Encoding: 186 186 123
Width: 429
GlyphClass: 2
Flags: W
LayerCount: 2
Fore
SplineSet
517 591 m 0,0,1
 521 514 521 514 457 451 c 128,-1,2
 393 388 393 388 314 388 c 0,3,4
 261 388 261 388 225 419.5 c 128,-1,5
 189 451 189 451 186 504 c 0,6,7
 182 580 182 580 245.5 642.5 c 128,-1,8
 309 705 309 705 388 705 c 0,9,10
 443 705 443 705 478.5 673 c 128,-1,11
 514 641 514 641 517 591 c 0,0,1
448 348 m 0,12,13
 444 337 444 337 430 337 c 2,14,-1
 168 337 l 2,15,16
 161 337 161 337 157.5 340 c 128,-1,17
 154 343 154 343 155 348 c 0,18,19
 158 358 158 358 173 358 c 2,20,-1
 436 358 l 2,21,22
 442 358 442 358 445.5 355 c 128,-1,23
 449 352 449 352 448 348 c 0,12,13
457 618 m 0,24,25
 455 650 455 650 437 670 c 128,-1,26
 419 690 419 690 388 690 c 0,27,28
 330 690 330 690 287 626 c 0,29,30
 269 599 269 599 256.5 551.5 c 128,-1,31
 244 504 244 504 246 476 c 0,32,33
 248 440 248 440 267.5 422 c 128,-1,34
 287 404 287 404 314 404 c 0,35,36
 344 404 344 404 372.5 424 c 128,-1,37
 401 444 401 444 418 474 c 0,38,39
 435 503 435 503 446.5 548 c 128,-1,40
 458 593 458 593 457 618 c 0,24,25
EndSplineSet
EndChar

StartChar: guillemotright
Encoding: 187 187 124
Width: 562
GlyphClass: 2
Flags: W
LayerCount: 2
Fore
SplineSet
490 235 m 0,0,1
 378 136 378 136 304 7 c 0,2,3
 300 0 300 0 293 0 c 2,4,-1
 291 0 l 2,5,6
 286 0 286 0 284 4 c 128,-1,7
 282 8 282 8 284 12 c 0,8,9
 342 136 342 136 429 242 c 1,10,11
 394 349 394 349 399 471 c 0,12,13
 399 475 399 475 403 479 c 128,-1,14
 407 483 407 483 412 483 c 2,15,-1
 414 483 l 2,16,17
 420 483 420 483 422 476 c 0,18,19
 430 349 430 349 494 248 c 0,20,21
 498 242 498 242 490 235 c 0,0,1
337 235 m 0,22,23
 225 136 225 136 151 7 c 0,24,25
 148 0 148 0 140 0 c 2,26,-1
 138 0 l 2,27,28
 133 0 133 0 131 4 c 128,-1,29
 129 8 129 8 131 12 c 0,30,31
 189 136 189 136 276 242 c 1,32,33
 241 349 241 349 246 471 c 0,34,35
 246 475 246 475 250 479 c 128,-1,36
 254 483 254 483 259 483 c 2,37,-1
 261 483 l 2,38,39
 267 483 267 483 269 476 c 0,40,41
 277 349 277 349 341 248 c 0,42,43
 345 242 345 242 337 235 c 0,22,23
EndSplineSet
EndChar

StartChar: onequarter
Encoding: 188 188 125
Width: 807
GlyphClass: 3
Flags: W
LayerCount: 2
Fore
SplineSet
376 317 m 0,0,1
 377 306 377 306 363 306 c 0,2,3
 347 306 347 306 314.5 307 c 128,-1,4
 282 308 282 308 266 308 c 128,-1,5
 250 308 250 308 219 307 c 128,-1,6
 188 306 188 306 172 306 c 0,7,8
 161 306 161 306 160 313 c 0,9,10
 160 324 160 324 180 324 c 2,11,-1
 186 324 l 2,12,13
 226 324 226 324 237.5 329 c 128,-1,14
 249 334 249 334 253 350 c 2,15,-1
 323 634 l 1,16,17
 284 609 284 609 244 609 c 0,18,19
 232 609 232 609 232 617 c 128,-1,20
 232 625 232 625 241 628 c 2,21,-1
 243 628 l 1,22,23
 315 635 315 635 367 696 c 0,24,25
 375 705 375 705 379 705 c 0,26,27
 389 705 389 705 389 698 c 0,28,29
 388 692 388 692 387 690 c 2,30,-1
 301 348 l 2,31,32
 299 342 299 342 299 336 c 0,33,34
 300 327 300 327 321 326 c 0,35,36
 337 324 337 324 351 324 c 2,37,-1
 357 324 l 2,38,39
 376 324 376 324 376 317 c 0,0,1
732 8 m 0,40,41
 732 2 732 2 708 -3.5 c 128,-1,42
 684 -9 684 -9 666 -9 c 0,43,44
 656 -9 656 -9 651 -8 c 1,45,-1
 629 -96 l 2,46,47
 625 -116 625 -116 603 -116 c 0,48,49
 583 -116 583 -116 582 -101 c 0,50,51
 582 -100 582 -100 582.5 -96.5 c 128,-1,52
 583 -93 583 -93 585 -88 c 2,53,-1
 606 1 l 1,54,-1
 564 15 l 2,55,56
 539 22 539 22 511 22 c 0,57,58
 470 22 470 22 456 13 c 0,59,60
 437 1 437 1 433 1 c 128,-1,61
 429 1 429 1 425.5 4.5 c 128,-1,62
 422 8 422 8 422 11 c 0,63,64
 421 17 421 17 432 24 c 128,-1,65
 443 31 443 31 449 32 c 0,66,67
 513 75 513 75 566 153 c 0,68,69
 629 243 629 243 663 370 c 0,70,71
 666 381 666 381 667.5 385.5 c 128,-1,72
 669 390 669 390 675 395 c 128,-1,73
 681 400 681 400 691 400 c 0,74,75
 711 400 711 400 711 384 c 0,76,77
 710 376 710 376 706.5 362 c 128,-1,78
 703 348 703 348 687.5 306.5 c 128,-1,79
 672 265 672 265 650.5 225.5 c 128,-1,80
 629 186 629 186 587 134 c 128,-1,81
 545 82 545 82 493 40 c 1,82,-1
 512 40 l 2,83,84
 540 40 540 40 568 34 c 0,85,86
 573 32 573 32 576.5 30.5 c 128,-1,87
 580 29 580 29 612 20 c 1,88,89
 612 22 612 22 623.5 68 c 128,-1,90
 635 114 635 114 637 119 c 0,91,92
 637 120 637 120 638 122.5 c 128,-1,93
 639 125 639 125 639 126 c 128,-1,94
 639 127 639 127 640 129.5 c 128,-1,95
 641 132 641 132 641.5 133 c 128,-1,96
 642 134 642 134 643.5 136 c 128,-1,97
 645 138 645 138 646 139 c 128,-1,98
 647 140 647 140 649 141.5 c 128,-1,99
 651 143 651 143 653 143.5 c 128,-1,100
 655 144 655 144 658 144.5 c 128,-1,101
 661 145 661 145 664 145 c 0,102,103
 684 145 684 145 684 129 c 0,104,105
 685 127 685 127 682 117 c 2,106,-1
 656 10 l 1,107,-1
 668 10 l 2,108,109
 692 10 692 10 710 16 c 2,110,-1
 721 19 l 2,111,112
 725 19 725 19 728.5 15 c 128,-1,113
 732 11 732 11 732 8 c 0,40,41
834 663 m 0,114,115
 833 658 833 658 828 653 c 2,116,-1
 259 9 l 2,117,118
 250 0 250 0 239 0 c 0,119,120
 231 0 231 0 226.5 6 c 128,-1,121
 222 12 222 12 224 20 c 0,122,123
 226 27 226 27 230 31 c 2,124,-1
 800 674 l 2,125,126
 808 683 808 683 819 683 c 0,127,128
 827 683 827 683 831.5 677 c 128,-1,129
 836 671 836 671 834 663 c 0,114,115
EndSplineSet
Ligature2: "'frac' Diagonal Fractions lookup 3 subtable" one fraction four
Ligature2: "'frac' Diagonal Fractions lookup 3 subtable" one slash four
EndChar

StartChar: onehalf
Encoding: 189 189 126
Width: 807
GlyphClass: 3
Flags: W
LayerCount: 2
Fore
SplineSet
376 317 m 0,0,1
 377 306 377 306 363 306 c 0,2,3
 347 306 347 306 314.5 307 c 128,-1,4
 282 308 282 308 266 308 c 128,-1,5
 250 308 250 308 219 307 c 128,-1,6
 188 306 188 306 172 306 c 0,7,8
 161 306 161 306 160 313 c 0,9,10
 160 324 160 324 180 324 c 2,11,-1
 186 324 l 2,12,13
 226 324 226 324 237.5 329 c 128,-1,14
 249 334 249 334 253 350 c 2,15,-1
 323 634 l 1,16,17
 284 609 284 609 244 609 c 0,18,19
 232 609 232 609 232 617 c 128,-1,20
 232 625 232 625 241 628 c 2,21,-1
 243 628 l 1,22,23
 315 635 315 635 367 696 c 0,24,25
 375 705 375 705 379 705 c 0,26,27
 389 705 389 705 389 698 c 0,28,29
 388 692 388 692 387 690 c 2,30,-1
 301 348 l 2,31,32
 299 342 299 342 299 336 c 0,33,34
 300 327 300 327 321 326 c 0,35,36
 337 324 337 324 351 324 c 2,37,-1
 357 324 l 2,38,39
 376 324 376 324 376 317 c 0,0,1
754 98 m 0,40,41
 754 90 754 90 744.5 66 c 128,-1,42
 735 42 735 42 708 14.5 c 128,-1,43
 681 -13 681 -13 644 -13 c 0,44,45
 614 -13 614 -13 573 11 c 0,46,47
 531 33 531 33 510 33 c 0,48,49
 484 33 484 33 472 -5 c 0,50,51
 470 -13 470 -13 460 -13 c 0,52,53
 449 -13 449 -13 448 -7 c 0,54,55
 455 35 455 35 503 86 c 0,56,57
 510 93 510 93 518 100 c 128,-1,58
 526 107 526 107 531 111.5 c 128,-1,59
 536 116 536 116 546.5 122.5 c 128,-1,60
 557 129 557 129 560.5 131 c 128,-1,61
 564 133 564 133 577 140 c 128,-1,62
 590 147 590 147 592 148 c 0,63,64
 722 213 722 213 717 320 c 0,65,66
 716 354 716 354 696.5 370 c 128,-1,67
 677 386 677 386 651 386 c 0,68,69
 611 386 611 386 578 355.5 c 128,-1,70
 545 325 545 325 530.5 291 c 128,-1,71
 516 257 516 257 517 235 c 0,72,73
 518 215 518 215 534 215 c 0,74,75
 562 215 562 215 581.5 246 c 128,-1,76
 601 277 601 277 600 296 c 0,77,78
 600 304 600 304 592 318 c 1,79,-1
 591 322 l 2,80,81
 590 324 590 324 592.5 326 c 128,-1,82
 595 328 595 328 598 328 c 0,83,84
 604 328 604 328 609.5 316.5 c 128,-1,85
 615 305 615 305 615 296 c 0,86,87
 617 273 617 273 594.5 237.5 c 128,-1,88
 572 202 572 202 534 202 c 0,89,90
 512 202 512 202 503.5 214 c 128,-1,91
 495 226 495 226 495 239 c 0,92,93
 493 280 493 280 537.5 340 c 128,-1,94
 582 400 582 400 652 400 c 0,95,96
 698 400 698 400 732.5 373.5 c 128,-1,97
 767 347 767 347 770 298 c 0,98,99
 772 245 772 245 733.5 211 c 128,-1,100
 695 177 695 177 602 131 c 0,101,102
 529 98 529 98 495 44 c 1,103,104
 497 46 497 46 511 46 c 0,105,106
 534 46 534 46 588 36 c 0,107,108
 630 29 630 29 647 29 c 0,109,110
 680 29 680 29 701 49 c 128,-1,111
 722 69 722 69 731 94 c 0,112,113
 733 104 733 104 743 104 c 128,-1,114
 753 104 753 104 754 98 c 0,40,41
761 663 m 0,115,116
 761 660 761 660 756 653 c 2,117,-1
 186 9 l 2,118,119
 177 0 177 0 167 0 c 0,120,121
 159 0 159 0 154.5 6 c 128,-1,122
 150 12 150 12 152 20 c 0,123,124
 154 27 154 27 158 31 c 2,125,-1
 727 674 l 2,126,127
 734 683 734 683 746 683 c 0,128,129
 766 683 766 683 761 663 c 0,115,116
EndSplineSet
Ligature2: "'frac' Diagonal Fractions lookup 3 subtable" one fraction two
Ligature2: "'frac' Diagonal Fractions lookup 3 subtable" one slash two
EndChar

StartChar: threequarters
Encoding: 190 190 127
Width: 807
GlyphClass: 3
Flags: W
LayerCount: 2
Fore
SplineSet
462 428 m 0,0,1
 464 375 464 375 410 334 c 128,-1,2
 356 293 356 293 287 293 c 0,3,4
 243 293 243 293 216 315.5 c 128,-1,5
 189 338 189 338 187 369 c 0,6,7
 187 416 187 416 223 416 c 0,8,9
 249 416 249 416 249 397 c 0,10,11
 249 387 249 387 240 377 c 128,-1,12
 231 367 231 367 210 368 c 1,13,14
 213 337 213 337 235 321.5 c 128,-1,15
 257 306 257 306 287 306 c 0,16,17
 337 306 337 306 370 341 c 0,18,19
 409 380 409 380 409 447 c 0,20,21
 407 497 407 497 351 497 c 2,22,-1
 331 497 l 2,23,24
 313 497 313 497 313 503 c 0,25,26
 312 512 312 512 316 514 c 128,-1,27
 320 516 320 516 331 516 c 2,28,-1
 347 516 l 2,29,30
 386 516 386 516 412.5 531 c 128,-1,31
 439 546 439 546 449.5 570 c 128,-1,32
 460 594 460 594 463.5 608 c 128,-1,33
 467 622 467 622 468 636 c 2,34,-1
 468 638 l 1,35,36
 464 692 464 692 403 692 c 0,37,38
 352 692 352 692 311.5 658.5 c 128,-1,39
 271 625 271 625 273 588 c 0,40,41
 275 566 275 566 293 566 c 0,42,43
 309 566 309 566 322.5 577 c 128,-1,44
 336 588 336 588 335 603 c 1,45,-1
 328 621 l 2,46,47
 327 623 327 623 326 625 c 2,48,-1
 325 627 l 2,49,50
 325 634 325 634 333 634 c 0,51,52
 339 634 339 634 344.5 623.5 c 128,-1,53
 350 613 350 613 351 604 c 0,54,55
 352 583 352 583 333.5 568 c 128,-1,56
 315 553 315 553 293 553 c 0,57,58
 255 553 255 553 251 591 c 0,59,60
 249 631 249 631 295.5 668 c 128,-1,61
 342 705 342 705 404 705 c 0,62,63
 448 705 448 705 478.5 683.5 c 128,-1,64
 509 662 509 662 511 625 c 128,-1,65
 513 588 513 588 483 553.5 c 128,-1,66
 453 519 453 519 400 504 c 1,67,68
 457 483 457 483 462 428 c 0,0,1
732 8 m 0,69,70
 732 2 732 2 708 -3.5 c 128,-1,71
 684 -9 684 -9 666 -9 c 0,72,73
 656 -9 656 -9 651 -8 c 1,74,-1
 629 -96 l 2,75,76
 625 -116 625 -116 603 -116 c 0,77,78
 583 -116 583 -116 582 -101 c 0,79,80
 582 -100 582 -100 582.5 -96.5 c 128,-1,81
 583 -93 583 -93 585 -88 c 2,82,-1
 606 1 l 1,83,-1
 564 15 l 2,84,85
 539 22 539 22 511 22 c 0,86,87
 470 22 470 22 456 13 c 0,88,89
 437 1 437 1 433 1 c 128,-1,90
 429 1 429 1 425.5 4.5 c 128,-1,91
 422 8 422 8 422 11 c 0,92,93
 421 17 421 17 432 24 c 128,-1,94
 443 31 443 31 449 32 c 0,95,96
 513 75 513 75 566 153 c 0,97,98
 629 243 629 243 663 370 c 0,99,100
 666 381 666 381 667.5 385.5 c 128,-1,101
 669 390 669 390 675 395 c 128,-1,102
 681 400 681 400 691 400 c 0,103,104
 711 400 711 400 711 384 c 0,105,106
 710 376 710 376 706.5 362 c 128,-1,107
 703 348 703 348 687.5 306.5 c 128,-1,108
 672 265 672 265 650.5 225.5 c 128,-1,109
 629 186 629 186 587 134 c 128,-1,110
 545 82 545 82 493 40 c 1,111,-1
 512 40 l 2,112,113
 540 40 540 40 568 34 c 0,114,115
 573 32 573 32 576.5 30.5 c 128,-1,116
 580 29 580 29 612 20 c 1,117,118
 612 22 612 22 623.5 68 c 128,-1,119
 635 114 635 114 637 119 c 0,120,121
 637 120 637 120 638 122.5 c 128,-1,122
 639 125 639 125 639 126 c 128,-1,123
 639 127 639 127 640 129.5 c 128,-1,124
 641 132 641 132 641.5 133 c 128,-1,125
 642 134 642 134 643.5 136 c 128,-1,126
 645 138 645 138 646 139 c 128,-1,127
 647 140 647 140 649 141.5 c 128,-1,128
 651 143 651 143 653 143.5 c 128,-1,129
 655 144 655 144 658 144.5 c 128,-1,130
 661 145 661 145 664 145 c 0,131,132
 684 145 684 145 684 129 c 0,133,134
 685 127 685 127 682 117 c 2,135,-1
 656 10 l 1,136,-1
 668 10 l 2,137,138
 692 10 692 10 710 16 c 2,139,-1
 721 19 l 2,140,141
 725 19 725 19 728.5 15 c 128,-1,142
 732 11 732 11 732 8 c 0,69,70
834 663 m 0,143,144
 833 658 833 658 828 653 c 2,145,-1
 259 9 l 2,146,147
 250 0 250 0 239 0 c 0,148,149
 231 0 231 0 226.5 6 c 128,-1,150
 222 12 222 12 224 20 c 0,151,152
 226 27 226 27 230 31 c 2,153,-1
 800 674 l 2,154,155
 808 683 808 683 819 683 c 0,156,157
 827 683 827 683 831.5 677 c 128,-1,158
 836 671 836 671 834 663 c 0,143,144
EndSplineSet
Ligature2: "'frac' Diagonal Fractions lookup 3 subtable" three fraction four
Ligature2: "'frac' Diagonal Fractions lookup 3 subtable" three slash four
EndChar

StartChar: questiondown
Encoding: 191 191 128
Width: 511
GlyphClass: 3
Flags: W
LayerCount: 2
Fore
SplineSet
442 37 m 0,0,1
 442 23 442 23 432.5 -5.5 c 128,-1,2
 423 -34 423 -34 402.5 -70.5 c 128,-1,3
 382 -107 382 -107 355 -139.5 c 128,-1,4
 328 -172 328 -172 288 -194 c 128,-1,5
 248 -216 248 -216 205 -216 c 0,6,7
 151 -216 151 -216 118 -181 c 128,-1,8
 85 -146 85 -146 85 -92 c 0,9,10
 85 -58 85 -58 95.5 -28.5 c 128,-1,11
 106 1 106 1 126 24.5 c 128,-1,12
 146 48 146 48 159.5 61 c 128,-1,13
 173 74 173 74 195 91 c 2,14,-1
 273 154 l 2,15,16
 326 195 326 195 340.5 212.5 c 128,-1,17
 355 230 355 230 355 257 c 0,18,19
 355 291 355 291 330 291 c 0,20,21
 307 291 307 291 284 271.5 c 128,-1,22
 261 252 261 252 251 223 c 0,23,24
 248 213 248 213 245.5 210.5 c 128,-1,25
 243 208 243 208 234 208 c 0,26,27
 219 208 219 208 219 218 c 0,28,29
 219 241 219 241 252 277 c 128,-1,30
 285 313 285 313 330 313 c 0,31,32
 359 313 359 313 374.5 292 c 128,-1,33
 390 271 390 271 390 243 c 0,34,35
 390 214 390 214 376 188 c 128,-1,36
 362 162 362 162 352 152 c 128,-1,37
 342 142 342 142 321 125 c 2,38,-1
 200 30 l 2,39,40
 178 11 178 11 165 -1.5 c 128,-1,41
 152 -14 152 -14 136 -43.5 c 128,-1,42
 120 -73 120 -73 120 -106 c 0,43,44
 120 -148 120 -148 144.5 -171 c 128,-1,45
 169 -194 169 -194 205 -194 c 0,46,47
 264 -194 264 -194 316.5 -142 c 128,-1,48
 369 -90 369 -90 397 -12 c 1,49,50
 359 -12 359 -12 359 20 c 0,51,52
 359 40 359 40 373.5 54.5 c 128,-1,53
 388 69 388 69 408 69 c 0,54,55
 442 69 442 69 442 37 c 0,0,1
422 457 m 0,56,57
 422 432 422 432 402 413 c 128,-1,58
 382 394 382 394 358 394 c 0,59,60
 337 394 337 394 325 407 c 128,-1,61
 313 420 313 420 313 437 c 0,62,63
 313 461 313 461 333 480.5 c 128,-1,64
 353 500 353 500 378 500 c 0,65,66
 397 500 397 500 409.5 488 c 128,-1,67
 422 476 422 476 422 457 c 0,56,57
EndSplineSet
Ligature2: "'dlig' Discretionary Ligatures lookup 13 subtable" question quoteleft
Ligature2: "'dlig' Discretionary Ligatures lookup 13 subtable" question grave
EndChar

StartChar: Agrave
Encoding: 192 192 129
Width: 743
GlyphClass: 2
Flags: W
LayerCount: 2
Fore
SplineSet
692 18 m 0,0,1
 692 0 692 0 674 0 c 0,2,3
 657 0 657 0 622 1.5 c 128,-1,4
 587 3 587 3 569 3 c 0,5,6
 550 3 550 3 511 1.5 c 128,-1,7
 472 0 472 0 454 0 c 0,8,9
 439 0 439 0 439 12 c 0,10,11
 439 31 439 31 462 31 c 0,12,13
 529 31 529 31 529 63 c 2,14,-1
 518 229 l 1,15,-1
 290 229 l 1,16,-1
 218 103 l 2,17,18
 204 77 204 77 204 65 c 0,19,20
 204 38 204 38 246 31 c 0,21,22
 262 29 262 29 262 19 c 0,23,24
 262 0 262 0 244 0 c 0,25,26
 229 0 229 0 198 1.5 c 128,-1,27
 167 3 167 3 151 3 c 0,28,29
 138 3 138 3 110.5 1.5 c 128,-1,30
 83 0 83 0 71 0 c 128,-1,31
 59 0 59 0 59 12 c 0,32,33
 60 30 60 30 71 31 c 0,34,35
 88 32 88 32 99.5 34.5 c 128,-1,36
 111 37 111 37 128 44 c 128,-1,37
 145 51 145 51 161 68.5 c 128,-1,38
 177 86 177 86 192 113 c 2,39,-1
 524 698 l 2,40,41
 534 716 534 716 550 716 c 0,42,43
 562 716 562 716 564.5 712 c 128,-1,44
 567 708 567 708 568 691 c 2,45,-1
 611 65 l 2,46,47
 613 44 613 44 622 37.5 c 128,-1,48
 631 31 631 31 668 31 c 0,49,50
 678 31 678 31 682 30.5 c 128,-1,51
 686 30 686 30 689 27 c 128,-1,52
 692 24 692 24 692 18 c 0,0,1
516 260 m 1,53,-1
 493 587 l 1,54,-1
 307 260 l 1,55,-1
 516 260 l 1,53,-1
632 766 m 0,56,57
 630 760 630 760 622.5 754 c 128,-1,58
 615 748 615 748 609 747 c 0,59,60
 605 746 605 746 597 752 c 2,61,-1
 463 845 l 2,62,63
 447 857 447 857 452 873 c 0,64,65
 456 887 456 887 469.5 896.5 c 128,-1,66
 483 906 483 906 497 906 c 0,67,68
 508 906 508 906 519 895 c 2,69,-1
 626 779 l 2,70,71
 632 772 632 772 632 766 c 0,56,57
EndSplineSet
Position2: "'cpsp' Capital Spacing lookup 0 subtable" dx=7 dy=0 dh=14 dv=0
EndChar

StartChar: Aacute
Encoding: 193 193 130
Width: 743
GlyphClass: 2
Flags: W
LayerCount: 2
Fore
SplineSet
692 18 m 0,0,1
 692 0 692 0 674 0 c 0,2,3
 657 0 657 0 622 1.5 c 128,-1,4
 587 3 587 3 569 3 c 0,5,6
 550 3 550 3 511 1.5 c 128,-1,7
 472 0 472 0 454 0 c 0,8,9
 439 0 439 0 439 12 c 0,10,11
 439 31 439 31 462 31 c 0,12,13
 529 31 529 31 529 63 c 2,14,-1
 518 229 l 1,15,-1
 290 229 l 1,16,-1
 218 103 l 2,17,18
 204 77 204 77 204 65 c 0,19,20
 204 38 204 38 246 31 c 0,21,22
 262 29 262 29 262 19 c 0,23,24
 262 0 262 0 244 0 c 0,25,26
 229 0 229 0 198 1.5 c 128,-1,27
 167 3 167 3 151 3 c 0,28,29
 138 3 138 3 110.5 1.5 c 128,-1,30
 83 0 83 0 71 0 c 128,-1,31
 59 0 59 0 59 12 c 0,32,33
 60 30 60 30 71 31 c 0,34,35
 88 32 88 32 99.5 34.5 c 128,-1,36
 111 37 111 37 128 44 c 128,-1,37
 145 51 145 51 161 68.5 c 128,-1,38
 177 86 177 86 192 113 c 2,39,-1
 524 698 l 2,40,41
 534 716 534 716 550 716 c 0,42,43
 562 716 562 716 564.5 712 c 128,-1,44
 567 708 567 708 568 691 c 2,45,-1
 611 65 l 2,46,47
 613 44 613 44 622 37.5 c 128,-1,48
 631 31 631 31 668 31 c 0,49,50
 678 31 678 31 682 30.5 c 128,-1,51
 686 30 686 30 689 27 c 128,-1,52
 692 24 692 24 692 18 c 0,0,1
516 260 m 1,53,-1
 493 587 l 1,54,-1
 307 260 l 1,55,-1
 516 260 l 1,53,-1
727 873 m 0,56,57
 724 856 724 856 702 845 c 2,58,-1
 522 752 l 2,59,60
 511 746 511 746 507 747 c 0,61,62
 502 748 502 748 497.5 754 c 128,-1,63
 493 760 493 760 494 766 c 0,64,65
 496 772 496 772 506 779 c 2,66,-1
 671 895 l 2,67,68
 688 906 688 906 699 906 c 0,69,70
 713 906 713 906 721 896.5 c 128,-1,71
 729 887 729 887 727 873 c 0,56,57
EndSplineSet
Position2: "'cpsp' Capital Spacing lookup 0 subtable" dx=7 dy=0 dh=14 dv=0
EndChar

StartChar: Acircumflex
Encoding: 194 194 131
Width: 743
GlyphClass: 2
Flags: W
LayerCount: 2
Fore
SplineSet
692 18 m 0,0,1
 692 0 692 0 674 0 c 0,2,3
 657 0 657 0 622 1.5 c 128,-1,4
 587 3 587 3 569 3 c 0,5,6
 550 3 550 3 511 1.5 c 128,-1,7
 472 0 472 0 454 0 c 0,8,9
 439 0 439 0 439 12 c 0,10,11
 439 31 439 31 462 31 c 0,12,13
 529 31 529 31 529 63 c 2,14,-1
 518 229 l 1,15,-1
 290 229 l 1,16,-1
 218 103 l 2,17,18
 204 77 204 77 204 65 c 0,19,20
 204 38 204 38 246 31 c 0,21,22
 262 29 262 29 262 19 c 0,23,24
 262 0 262 0 244 0 c 0,25,26
 229 0 229 0 198 1.5 c 128,-1,27
 167 3 167 3 151 3 c 0,28,29
 138 3 138 3 110.5 1.5 c 128,-1,30
 83 0 83 0 71 0 c 128,-1,31
 59 0 59 0 59 12 c 0,32,33
 60 30 60 30 71 31 c 0,34,35
 88 32 88 32 99.5 34.5 c 128,-1,36
 111 37 111 37 128 44 c 128,-1,37
 145 51 145 51 161 68.5 c 128,-1,38
 177 86 177 86 192 113 c 2,39,-1
 524 698 l 2,40,41
 534 716 534 716 550 716 c 0,42,43
 562 716 562 716 564.5 712 c 128,-1,44
 567 708 567 708 568 691 c 2,45,-1
 611 65 l 2,46,47
 613 44 613 44 622 37.5 c 128,-1,48
 631 31 631 31 668 31 c 0,49,50
 678 31 678 31 682 30.5 c 128,-1,51
 686 30 686 30 689 27 c 128,-1,52
 692 24 692 24 692 18 c 0,0,1
516 260 m 1,53,-1
 493 587 l 1,54,-1
 307 260 l 1,55,-1
 516 260 l 1,53,-1
696 755 m 2,56,57
 702 750 702 750 695 741.5 c 128,-1,58
 688 733 688 733 681 737 c 2,59,-1
 569 792 l 1,60,-1
 429 737 l 2,61,62
 423 735 423 735 419 738 c 128,-1,63
 415 741 415 741 416 746.5 c 128,-1,64
 417 752 417 752 423 755 c 2,65,-1
 578 853 l 2,66,67
 585 856 585 856 590 853 c 2,68,-1
 696 755 l 2,56,57
EndSplineSet
Position2: "'cpsp' Capital Spacing lookup 0 subtable" dx=7 dy=0 dh=14 dv=0
EndChar

StartChar: Atilde
Encoding: 195 195 132
Width: 743
GlyphClass: 2
Flags: W
LayerCount: 2
Fore
SplineSet
692 18 m 0,0,1
 692 0 692 0 674 0 c 0,2,3
 657 0 657 0 622 1.5 c 128,-1,4
 587 3 587 3 569 3 c 0,5,6
 550 3 550 3 511 1.5 c 128,-1,7
 472 0 472 0 454 0 c 0,8,9
 439 0 439 0 439 12 c 0,10,11
 439 31 439 31 462 31 c 0,12,13
 529 31 529 31 529 63 c 2,14,-1
 518 229 l 1,15,-1
 290 229 l 1,16,-1
 218 103 l 2,17,18
 204 77 204 77 204 65 c 0,19,20
 204 38 204 38 246 31 c 0,21,22
 262 29 262 29 262 19 c 0,23,24
 262 0 262 0 244 0 c 0,25,26
 229 0 229 0 198 1.5 c 128,-1,27
 167 3 167 3 151 3 c 0,28,29
 138 3 138 3 110.5 1.5 c 128,-1,30
 83 0 83 0 71 0 c 128,-1,31
 59 0 59 0 59 12 c 0,32,33
 60 30 60 30 71 31 c 0,34,35
 88 32 88 32 99.5 34.5 c 128,-1,36
 111 37 111 37 128 44 c 128,-1,37
 145 51 145 51 161 68.5 c 128,-1,38
 177 86 177 86 192 113 c 2,39,-1
 524 698 l 2,40,41
 534 716 534 716 550 716 c 0,42,43
 562 716 562 716 564.5 712 c 128,-1,44
 567 708 567 708 568 691 c 2,45,-1
 611 65 l 2,46,47
 613 44 613 44 622 37.5 c 128,-1,48
 631 31 631 31 668 31 c 0,49,50
 678 31 678 31 682 30.5 c 128,-1,51
 686 30 686 30 689 27 c 128,-1,52
 692 24 692 24 692 18 c 0,0,1
516 260 m 1,53,-1
 493 587 l 1,54,-1
 307 260 l 1,55,-1
 516 260 l 1,53,-1
730 826 m 128,-1,57
 730 816 730 816 681 776 c 128,-1,58
 632 736 632 736 602 736 c 0,59,60
 575 736 575 736 551 775 c 0,61,62
 535 802 535 802 519 802 c 0,63,64
 506 802 506 802 483.5 787.5 c 128,-1,65
 461 773 461 773 446 758 c 2,66,-1
 430 744 l 2,67,68
 421 737 421 737 417 737 c 0,69,70
 406 737 406 737 406 747 c 0,71,72
 406 752 406 752 419 765.5 c 128,-1,73
 432 779 432 779 446 790 c 2,74,-1
 459 801 l 2,75,76
 506 837 506 837 533 837 c 0,77,78
 551 837 551 837 562 827 c 128,-1,79
 573 817 573 817 587 794 c 128,-1,80
 601 771 601 771 616 771 c 0,81,82
 635 771 635 771 667 795.5 c 128,-1,83
 699 820 699 820 706 829 c 0,84,85
 713 836 713 836 719 836 c 0,86,56
 730 836 730 836 730 826 c 128,-1,57
EndSplineSet
Position2: "'cpsp' Capital Spacing lookup 0 subtable" dx=7 dy=0 dh=14 dv=0
EndChar

StartChar: Adieresis
Encoding: 196 196 133
Width: 743
GlyphClass: 2
Flags: W
LayerCount: 2
Fore
SplineSet
692 18 m 0,0,1
 692 0 692 0 674 0 c 0,2,3
 657 0 657 0 622 1.5 c 128,-1,4
 587 3 587 3 569 3 c 0,5,6
 550 3 550 3 511 1.5 c 128,-1,7
 472 0 472 0 454 0 c 0,8,9
 439 0 439 0 439 12 c 0,10,11
 439 31 439 31 462 31 c 0,12,13
 529 31 529 31 529 63 c 2,14,-1
 518 229 l 1,15,-1
 290 229 l 1,16,-1
 218 103 l 2,17,18
 204 77 204 77 204 65 c 0,19,20
 204 38 204 38 246 31 c 0,21,22
 262 29 262 29 262 19 c 0,23,24
 262 0 262 0 244 0 c 0,25,26
 229 0 229 0 198 1.5 c 128,-1,27
 167 3 167 3 151 3 c 0,28,29
 138 3 138 3 110.5 1.5 c 128,-1,30
 83 0 83 0 71 0 c 128,-1,31
 59 0 59 0 59 12 c 0,32,33
 60 30 60 30 71 31 c 0,34,35
 88 32 88 32 99.5 34.5 c 128,-1,36
 111 37 111 37 128 44 c 128,-1,37
 145 51 145 51 161 68.5 c 128,-1,38
 177 86 177 86 192 113 c 2,39,-1
 524 698 l 2,40,41
 534 716 534 716 550 716 c 0,42,43
 562 716 562 716 564.5 712 c 128,-1,44
 567 708 567 708 568 691 c 2,45,-1
 611 65 l 2,46,47
 613 44 613 44 622 37.5 c 128,-1,48
 631 31 631 31 668 31 c 0,49,50
 678 31 678 31 682 30.5 c 128,-1,51
 686 30 686 30 689 27 c 128,-1,52
 692 24 692 24 692 18 c 0,0,1
516 260 m 1,53,-1
 493 587 l 1,54,-1
 307 260 l 1,55,-1
 516 260 l 1,53,-1
512 793 m 0,56,57
 512 771 512 771 494 753.5 c 128,-1,58
 476 736 476 736 455 736 c 0,59,60
 436 736 436 736 425 747.5 c 128,-1,61
 414 759 414 759 414 775 c 0,62,63
 414 797 414 797 432 814.5 c 128,-1,64
 450 832 450 832 472 832 c 0,65,66
 491 832 491 832 501.5 820.5 c 128,-1,67
 512 809 512 809 512 793 c 0,56,57
721 793 m 0,68,69
 721 771 721 771 703 753.5 c 128,-1,70
 685 736 685 736 664 736 c 0,71,72
 645 736 645 736 634 747.5 c 128,-1,73
 623 759 623 759 623 775 c 0,74,75
 623 797 623 797 641 814.5 c 128,-1,76
 659 832 659 832 681 832 c 0,77,78
 700 832 700 832 710.5 820.5 c 128,-1,79
 721 809 721 809 721 793 c 0,68,69
EndSplineSet
Position2: "'cpsp' Capital Spacing lookup 0 subtable" dx=7 dy=0 dh=14 dv=0
EndChar

StartChar: Aring
Encoding: 197 197 134
Width: 743
GlyphClass: 2
Flags: W
LayerCount: 2
Fore
SplineSet
692 18 m 0,0,1
 692 0 692 0 674 0 c 0,2,3
 657 0 657 0 622 1.5 c 128,-1,4
 587 3 587 3 569 3 c 0,5,6
 550 3 550 3 511 1.5 c 128,-1,7
 472 0 472 0 454 0 c 0,8,9
 439 0 439 0 439 12 c 0,10,11
 439 31 439 31 462 31 c 0,12,13
 529 31 529 31 529 63 c 2,14,-1
 518 229 l 1,15,-1
 290 229 l 1,16,-1
 218 103 l 2,17,18
 204 77 204 77 204 65 c 0,19,20
 204 38 204 38 246 31 c 0,21,22
 262 29 262 29 262 19 c 0,23,24
 262 0 262 0 244 0 c 0,25,26
 229 0 229 0 198 1.5 c 128,-1,27
 167 3 167 3 151 3 c 0,28,29
 138 3 138 3 110.5 1.5 c 128,-1,30
 83 0 83 0 71 0 c 128,-1,31
 59 0 59 0 59 12 c 0,32,33
 60 30 60 30 71 31 c 0,34,35
 88 32 88 32 99.5 34.5 c 128,-1,36
 111 37 111 37 128 44 c 128,-1,37
 145 51 145 51 161 68.5 c 128,-1,38
 177 86 177 86 192 113 c 2,39,-1
 524 698 l 2,40,41
 534 716 534 716 550 716 c 0,42,43
 562 716 562 716 564.5 712 c 128,-1,44
 567 708 567 708 568 691 c 2,45,-1
 611 65 l 2,46,47
 613 44 613 44 622 37.5 c 128,-1,48
 631 31 631 31 668 31 c 0,49,50
 678 31 678 31 682 30.5 c 128,-1,51
 686 30 686 30 689 27 c 128,-1,52
 692 24 692 24 692 18 c 0,0,1
516 260 m 1,53,-1
 493 587 l 1,54,-1
 307 260 l 1,55,-1
 516 260 l 1,53,-1
631 826 m 1,56,57
 631 862 631 862 587 862 c 0,58,59
 555 862 555 862 537 842 c 128,-1,60
 519 822 519 822 517 802 c 2,61,-1
 515 781 l 2,62,63
 515 746 515 746 559 746 c 0,64,65
 579 746 579 746 593.5 754 c 128,-1,66
 608 762 608 762 615 774 c 128,-1,67
 622 786 622 786 626 798 c 128,-1,68
 630 810 630 810 630 818 c 2,69,-1
 631 826 l 1,56,57
669 825 m 0,70,71
 669 783 669 783 632.5 749.5 c 128,-1,72
 596 716 596 716 551 716 c 0,73,74
 521 716 521 716 499 733.5 c 128,-1,75
 477 751 477 751 477 784 c 0,76,77
 477 827 477 827 513.5 859.5 c 128,-1,78
 550 892 550 892 594 892 c 0,79,80
 630 892 630 892 649.5 871.5 c 128,-1,81
 669 851 669 851 669 825 c 0,70,71
EndSplineSet
Position2: "'cpsp' Capital Spacing lookup 0 subtable" dx=7 dy=0 dh=14 dv=0
EndChar

StartChar: AE
Encoding: 198 198 135
Width: 883
GlyphClass: 2
Flags: W
LayerCount: 2
Fore
SplineSet
892 247 m 0,0,1
 889 237 889 237 888 235 c 2,2,-1
 799 16 l 2,3,4
 794 5 794 5 790 2.5 c 128,-1,5
 786 0 786 0 771 0 c 2,6,-1
 367 0 l 2,7,8
 357 0 357 0 353 0.5 c 128,-1,9
 349 1 349 1 345.5 3.5 c 128,-1,10
 342 6 342 6 342 12 c 0,11,12
 342 31 342 31 365 31 c 0,13,14
 401 31 401 31 411 37.5 c 128,-1,15
 421 44 421 44 427 69 c 2,16,-1
 488 313 l 1,17,-1
 342 313 l 1,18,-1
 218 100 l 2,19,20
 205 77 205 77 205 64 c 0,21,22
 205 34 205 34 246 31 c 0,23,24
 262 29 262 29 262 19 c 0,25,26
 262 0 262 0 244 0 c 0,27,28
 229 0 229 0 198 1.5 c 128,-1,29
 167 3 167 3 151 3 c 0,30,31
 138 3 138 3 110.5 1.5 c 128,-1,32
 83 0 83 0 71 0 c 128,-1,33
 59 0 59 0 59 13 c 0,34,35
 59 24 59 24 64 27 c 128,-1,36
 69 30 69 30 79 31 c 0,37,38
 115 34 115 34 141 51 c 128,-1,39
 167 68 167 68 193 113 c 2,40,-1
 505 651 l 1,41,42
 497 652 497 652 476 652 c 2,43,-1
 456 652 l 2,44,45
 446 652 446 652 441.5 652.5 c 128,-1,46
 437 653 437 653 433.5 655.5 c 128,-1,47
 430 658 430 658 430 664 c 0,48,49
 430 677 430 677 436 680 c 128,-1,50
 442 683 442 683 458 683 c 2,51,-1
 924 683 l 2,52,53
 936 683 936 683 940.5 682 c 128,-1,54
 945 681 945 681 947 675.5 c 128,-1,55
 949 670 949 670 948 658 c 2,56,-1
 925 481 l 2,57,58
 924 473 924 473 923.5 469.5 c 128,-1,59
 923 466 923 466 921 463 c 128,-1,60
 919 460 919 460 916 459 c 128,-1,61
 913 458 913 458 908 458 c 0,62,63
 892 458 892 458 892 470 c 2,64,-1
 894 483 l 1,65,-1
 900 552 l 2,66,67
 905 612 905 612 870 634 c 0,68,69
 843 652 843 652 779 652 c 2,70,-1
 689 652 l 2,71,72
 662 652 662 652 654 647 c 128,-1,73
 646 642 646 642 640 616 c 2,74,-1
 573 344 l 1,75,-1
 649 344 l 2,76,77
 707 344 707 344 728.5 363.5 c 128,-1,78
 750 383 750 383 764 440 c 0,79,80
 768 454 768 454 771 457.5 c 128,-1,81
 774 461 774 461 783 461 c 0,82,83
 798 461 798 461 798 450 c 0,84,85
 798 443 798 443 796 437 c 2,86,-1
 741 216 l 2,87,88
 737 203 737 203 733.5 199.5 c 128,-1,89
 730 196 730 196 722 196 c 0,90,91
 707 196 707 196 707 208 c 0,92,93
 707 211 707 211 709 218 c 0,94,95
 718 263 718 263 718 272 c 0,96,97
 718 294 718 294 705 303.5 c 128,-1,98
 692 313 692 313 647 313 c 2,99,-1
 565 313 l 1,100,-1
 502 63 l 2,101,102
 502 62 502 62 500 53.5 c 128,-1,103
 498 45 498 45 498 41 c 128,-1,104
 498 37 498 37 499 35 c 128,-1,105
 500 33 500 33 507 32 c 128,-1,106
 514 31 514 31 529 31 c 2,107,-1
 620 31 l 2,108,109
 673 31 673 31 708.5 42 c 128,-1,110
 744 53 744 53 770 80.5 c 128,-1,111
 796 108 796 108 811.5 137 c 128,-1,112
 827 166 827 166 850 221 c 0,113,114
 863 253 863 253 866 255 c 0,115,116
 869 258 869 258 877 258 c 0,117,118
 892 258 892 258 892 247 c 0,0,1
563 612 m 2,119,120
 565 618 565 618 565 629 c 0,121,122
 565 649 565 649 537 649 c 1,123,-1
 360 344 l 1,124,-1
 495 344 l 1,125,-1
 563 612 l 2,119,120
EndSplineSet
Position2: "'cpsp' Capital Spacing lookup 0 subtable" dx=7 dy=0 dh=14 dv=0
EndChar

StartChar: Ccedilla
Encoding: 199 199 136
Width: 716
GlyphClass: 2
Flags: W
LayerCount: 2
Fore
SplineSet
810 681 m 2,0,-1
 749 438 l 2,1,2
 746 426 746 426 743 423 c 128,-1,3
 740 420 740 420 731 420 c 0,4,5
 716 420 716 420 716 430 c 0,6,7
 716 431 716 431 717 441 c 128,-1,8
 718 451 718 451 719.5 465.5 c 128,-1,9
 721 480 721 480 721 491 c 0,10,11
 721 566 721 566 686.5 620 c 128,-1,12
 652 674 652 674 579 674 c 0,13,14
 519 674 519 674 455 638.5 c 128,-1,15
 391 603 391 603 342 536 c 0,16,17
 289 463 289 463 263 366 c 128,-1,18
 237 269 237 269 237 207 c 0,19,20
 237 108 237 108 287.5 58.5 c 128,-1,21
 338 9 338 9 409 9 c 0,22,23
 482 9 482 9 557.5 67.5 c 128,-1,24
 633 126 633 126 668 242 c 0,25,26
 671 250 671 250 684 250 c 0,27,28
 699 250 699 250 699 240 c 0,29,30
 699 219 699 219 678 178 c 128,-1,31
 657 137 657 137 621 91.5 c 128,-1,32
 585 46 585 46 524 12 c 128,-1,33
 463 -22 463 -22 395 -22 c 2,34,-1
 385 -22 l 1,35,-1
 377 -54 l 1,36,37
 438 -66 438 -66 438 -109 c 0,38,39
 438 -192 438 -192 242 -192 c 2,40,-1
 217 -192 l 2,41,42
 204 -192 204 -192 204 -181 c 128,-1,43
 204 -170 204 -170 229 -170 c 2,44,-1
 239 -170 l 2,45,46
 374 -170 374 -170 374 -108 c 0,47,48
 374 -75 374 -75 326 -71 c 0,49,50
 311 -69 311 -69 311 -58 c 0,51,52
 311 -57 311 -57 313 -49.5 c 128,-1,53
 315 -42 315 -42 317.5 -30.5 c 128,-1,54
 320 -19 320 -19 322 -12 c 1,55,56
 244 11 244 11 197 79 c 128,-1,57
 150 147 150 147 150 245 c 0,58,59
 150 359 150 359 212 467 c 128,-1,60
 274 575 274 575 372 640 c 128,-1,61
 470 705 470 705 571 705 c 0,62,63
 669 705 669 705 722 620 c 1,64,-1
 785 694 l 2,65,66
 789 699 789 699 793 701.5 c 128,-1,67
 797 704 797 704 799 704 c 2,68,-1
 801 705 l 2,69,70
 805 705 805 705 808 702.5 c 128,-1,71
 811 700 811 700 812 698 c 2,72,-1
 812 695 l 2,73,74
 812 689 812 689 810 681 c 2,0,-1
EndSplineSet
Position2: "'cpsp' Capital Spacing lookup 0 subtable" dx=7 dy=0 dh=14 dv=0
EndChar

StartChar: Egrave
Encoding: 200 200 137
Width: 678
GlyphClass: 2
Flags: W
LayerCount: 2
Fore
SplineSet
687 247 m 0,0,1
 684 237 684 237 683 235 c 2,2,-1
 594 16 l 2,3,4
 589 5 589 5 585 2.5 c 128,-1,5
 581 0 581 0 566 0 c 2,6,-1
 87 0 l 2,7,8
 77 0 77 0 73 0.5 c 128,-1,9
 69 1 69 1 65.5 3.5 c 128,-1,10
 62 6 62 6 62 12 c 0,11,12
 62 25 62 25 68 28 c 128,-1,13
 74 31 74 31 89 31 c 0,14,15
 138 31 138 31 151.5 38.5 c 128,-1,16
 165 46 165 46 171 73 c 2,17,-1
 305 609 l 1,18,-1
 309 632 l 2,19,20
 309 638 309 638 307 641 c 128,-1,21
 305 644 305 644 291.5 646.5 c 128,-1,22
 278 649 278 649 251 649 c 0,23,24
 239 649 239 649 234.5 649.5 c 128,-1,25
 230 650 230 650 227 653 c 128,-1,26
 224 656 224 656 224 662 c 0,27,28
 224 674 224 674 230 677 c 128,-1,29
 236 680 236 680 251 680 c 2,30,-1
 718 680 l 2,31,32
 728 680 728 680 731 679.5 c 128,-1,33
 734 679 734 679 739 676.5 c 128,-1,34
 744 674 744 674 742.5 669 c 128,-1,35
 741 664 741 664 742 654 c 2,36,-1
 719 477 l 2,37,38
 718 467 718 467 717 463 c 128,-1,39
 716 459 716 459 712.5 457 c 128,-1,40
 709 455 709 455 702 455 c 0,41,42
 687 455 687 455 687 467 c 0,43,44
 687 474 687 474 689 484 c 0,45,46
 694 524 694 524 694 548 c 0,47,48
 694 604 694 604 666.5 626.5 c 128,-1,49
 639 649 639 649 561 649 c 2,50,-1
 436 649 l 2,51,52
 410 649 410 649 402 644 c 128,-1,53
 394 639 394 639 388 615 c 2,54,-1
 327 369 l 1,55,-1
 408 369 l 2,56,57
 467 369 467 369 489.5 388 c 128,-1,58
 512 407 512 407 527 462 c 0,59,60
 533 484 533 484 538 485 c 0,61,62
 541 486 541 486 546 486 c 0,63,64
 562 486 562 486 562 474 c 0,65,66
 560 464 560 464 559 461 c 2,67,-1
 504 241 l 2,68,69
 501 228 501 228 498 224.5 c 128,-1,70
 495 221 495 221 486 221 c 0,71,72
 470 221 470 221 470 233 c 2,73,-1
 472 244 l 2,74,75
 481 277 481 277 481 295 c 0,76,77
 481 318 481 318 467 328 c 128,-1,78
 453 338 453 338 406 338 c 2,79,-1
 319 338 l 1,80,-1
 250 63 l 2,81,82
 250 62 250 62 248 53.5 c 128,-1,83
 246 45 246 45 246 41 c 128,-1,84
 246 37 246 37 247 35 c 128,-1,85
 248 33 248 33 255 32 c 128,-1,86
 262 31 262 31 277 31 c 2,87,-1
 399 31 l 2,88,89
 446 31 446 31 481 40 c 128,-1,90
 516 49 516 49 539.5 62 c 128,-1,91
 563 75 563 75 583.5 103.5 c 128,-1,92
 604 132 604 132 617.5 159 c 128,-1,93
 631 186 631 186 651 234 c 0,94,95
 658 251 658 251 661 254.5 c 128,-1,96
 664 258 664 258 672 258 c 0,97,98
 687 258 687 258 687 247 c 0,0,1
600 766 m 0,99,100
 598 760 598 760 590.5 754 c 128,-1,101
 583 748 583 748 577 747 c 0,102,103
 573 746 573 746 565 752 c 2,104,-1
 431 845 l 2,105,106
 415 857 415 857 420 873 c 0,107,108
 424 887 424 887 437.5 896.5 c 128,-1,109
 451 906 451 906 465 906 c 0,110,111
 476 906 476 906 487 895 c 2,112,-1
 594 779 l 2,113,114
 600 772 600 772 600 766 c 0,99,100
EndSplineSet
Position2: "'cpsp' Capital Spacing lookup 0 subtable" dx=7 dy=0 dh=14 dv=0
EndChar

StartChar: Eacute
Encoding: 201 201 138
Width: 678
GlyphClass: 2
Flags: W
LayerCount: 2
Fore
SplineSet
687 247 m 0,0,1
 684 237 684 237 683 235 c 2,2,-1
 594 16 l 2,3,4
 589 5 589 5 585 2.5 c 128,-1,5
 581 0 581 0 566 0 c 2,6,-1
 87 0 l 2,7,8
 77 0 77 0 73 0.5 c 128,-1,9
 69 1 69 1 65.5 3.5 c 128,-1,10
 62 6 62 6 62 12 c 0,11,12
 62 25 62 25 68 28 c 128,-1,13
 74 31 74 31 89 31 c 0,14,15
 138 31 138 31 151.5 38.5 c 128,-1,16
 165 46 165 46 171 73 c 2,17,-1
 305 609 l 1,18,-1
 309 632 l 2,19,20
 309 638 309 638 307 641 c 128,-1,21
 305 644 305 644 291.5 646.5 c 128,-1,22
 278 649 278 649 251 649 c 0,23,24
 239 649 239 649 234.5 649.5 c 128,-1,25
 230 650 230 650 227 653 c 128,-1,26
 224 656 224 656 224 662 c 0,27,28
 224 674 224 674 230 677 c 128,-1,29
 236 680 236 680 251 680 c 2,30,-1
 718 680 l 2,31,32
 728 680 728 680 731 679.5 c 128,-1,33
 734 679 734 679 739 676.5 c 128,-1,34
 744 674 744 674 742.5 669 c 128,-1,35
 741 664 741 664 742 654 c 2,36,-1
 719 477 l 2,37,38
 718 467 718 467 717 463 c 128,-1,39
 716 459 716 459 712.5 457 c 128,-1,40
 709 455 709 455 702 455 c 0,41,42
 687 455 687 455 687 467 c 0,43,44
 687 474 687 474 689 484 c 0,45,46
 694 524 694 524 694 548 c 0,47,48
 694 604 694 604 666.5 626.5 c 128,-1,49
 639 649 639 649 561 649 c 2,50,-1
 436 649 l 2,51,52
 410 649 410 649 402 644 c 128,-1,53
 394 639 394 639 388 615 c 2,54,-1
 327 369 l 1,55,-1
 408 369 l 2,56,57
 467 369 467 369 489.5 388 c 128,-1,58
 512 407 512 407 527 462 c 0,59,60
 533 484 533 484 538 485 c 0,61,62
 541 486 541 486 546 486 c 0,63,64
 562 486 562 486 562 474 c 0,65,66
 560 464 560 464 559 461 c 2,67,-1
 504 241 l 2,68,69
 501 228 501 228 498 224.5 c 128,-1,70
 495 221 495 221 486 221 c 0,71,72
 470 221 470 221 470 233 c 2,73,-1
 472 244 l 2,74,75
 481 277 481 277 481 295 c 0,76,77
 481 318 481 318 467 328 c 128,-1,78
 453 338 453 338 406 338 c 2,79,-1
 319 338 l 1,80,-1
 250 63 l 2,81,82
 250 62 250 62 248 53.5 c 128,-1,83
 246 45 246 45 246 41 c 128,-1,84
 246 37 246 37 247 35 c 128,-1,85
 248 33 248 33 255 32 c 128,-1,86
 262 31 262 31 277 31 c 2,87,-1
 399 31 l 2,88,89
 446 31 446 31 481 40 c 128,-1,90
 516 49 516 49 539.5 62 c 128,-1,91
 563 75 563 75 583.5 103.5 c 128,-1,92
 604 132 604 132 617.5 159 c 128,-1,93
 631 186 631 186 651 234 c 0,94,95
 658 251 658 251 661 254.5 c 128,-1,96
 664 258 664 258 672 258 c 0,97,98
 687 258 687 258 687 247 c 0,0,1
695 873 m 0,99,100
 692 856 692 856 670 845 c 2,101,-1
 490 752 l 2,102,103
 479 746 479 746 475 747 c 0,104,105
 470 748 470 748 465.5 754 c 128,-1,106
 461 760 461 760 462 766 c 0,107,108
 464 772 464 772 474 779 c 2,109,-1
 639 895 l 2,110,111
 656 906 656 906 667 906 c 0,112,113
 681 906 681 906 689 896.5 c 128,-1,114
 697 887 697 887 695 873 c 0,99,100
EndSplineSet
Position2: "'cpsp' Capital Spacing lookup 0 subtable" dx=7 dy=0 dh=14 dv=0
EndChar

